<svg width="74" height="71" fill="none" xmlns="http://www.w3.org/2000/svg"><path d="M72.724 33.03H56.406v-3.279c0-.479-.25-.92-.65-1.155l-17.48-10.222V13.17h3.457v1.978c0 .733.572 1.328 1.276 1.328h10.424c.705 0 1.276-.595 1.276-1.328 0-.154-.026-.307-.077-.451l-1.046-3.094 1.06-3.027c.239-.69-.104-1.45-.767-1.7a1.234 1.234 0 00-.433-.079H48.7V4.872c0-.733-.572-1.327-1.276-1.327h-9.148v-1.62c0-.733-.571-1.327-1.276-1.327-.705 0-1.276.594-1.276 1.327v16.449l-17.48 10.21c-.4.234-.65.675-.65 1.154v3.28H1.276C.57 33.017 0 33.611 0 34.344v34.73c0 .733.571 1.327 1.276 1.327h71.448c.705 0 1.276-.594 1.276-1.327V34.358c0-.733-.571-1.327-1.276-1.327zM48.7 11.843l-.051-.053V9.506h2.909l-.523 1.7c-.105.295-.105.62 0 .915l.6 1.7h-7.35v-.651h3.139c.704 0 1.276-.595 1.276-1.328zM38.276 6.2h7.872v4.315h-7.872V6.2zM17.594 67.747H2.552V35.686h15.042v32.061zm18.13 0h-6.698V52.586h6.698v15.161zm9.25 0h-6.698V52.586h6.698v15.161zm8.931 0h-6.38V51.258c0-.733-.57-1.327-1.275-1.327h-18.5c-.705 0-1.276.594-1.276 1.327v16.489h-6.38V30.575L37 20.67l16.854 9.85.051 3.824v33.402zm17.543 0H56.406V35.686h15.042v32.061z" fill="#21388F"/></svg>