<svg width="74" height="77" fill="none" xmlns="http://www.w3.org/2000/svg"><path d="M72.724 36.03H56.406v-3.279c0-.478-.25-.92-.65-1.155l-17.48-10.222V16.17h3.457v1.978c0 .733.572 1.328 1.276 1.328h10.424c.705 0 1.276-.595 1.276-1.328 0-.154-.026-.307-.077-.451l-1.046-3.094 1.06-3.027c.239-.69-.104-1.45-.767-1.7a1.234 1.234 0 00-.433-.079H48.7V7.872c0-.733-.572-1.327-1.276-1.327h-9.148v-1.62c0-.733-.571-1.327-1.276-1.327-.705 0-1.276.594-1.276 1.327v16.449l-17.48 10.21c-.4.234-.65.675-.65 1.154v3.28H1.276C.57 36.017 0 36.611 0 37.344v34.73c0 .733.571 1.327 1.276 1.327h71.448c.705 0 1.276-.594 1.276-1.327V37.358c0-.733-.571-1.327-1.276-1.327zM48.7 14.843l-.051-.053v-2.283h2.909l-.523 1.7c-.105.295-.105.62 0 .915l.6 1.7h-7.35v-.651h3.139c.704 0 1.276-.595 1.276-1.328zM38.276 9.2h7.872v4.315h-7.872V9.2zM17.594 70.747H2.552V38.686h15.042v32.061zm18.13 0h-6.698V55.586h6.698v15.161zm9.25 0h-6.698V55.586h6.698v15.161zm8.931 0h-6.38V54.258c0-.733-.57-1.327-1.275-1.327h-18.5c-.705 0-1.276.594-1.276 1.327v16.489h-6.38V33.575L37 23.67l16.854 9.85.051 3.824v33.402zm17.543 0H56.406V38.686h15.042v32.061z" fill="#21388F"/><path d="M37 27.733c-2.955.008-5.346 2.502-5.346 5.576.007 3.073 2.406 5.557 5.359 5.55 2.952-.008 5.34-2.504 5.333-5.576-.007-3.067-2.399-5.55-5.346-5.55zm0 8.47c-1.543-.007-2.788-1.315-2.781-2.92.007-1.596 1.248-2.887 2.781-2.894 1.545.007 2.794 1.312 2.794 2.92h.013c-.007 1.606-1.264 2.902-2.807 2.894zM8.178 41.606H5.627v5.31h2.551v-5.31zm6.29 0h-2.551v5.31h2.551v-5.31zm14.609 0h-5.104v2.656h5.104v-2.656zm10.475 0h-5.104v2.656h5.104v-2.656zm10.474 0h-5.103v2.656h5.103v-2.656zm-20.949 6.187h-5.104v2.655h5.104v-2.655zm10.475 0h-5.104v2.655h5.104v-2.655zm10.474 0h-5.103v2.655h5.103v-2.655zM8.178 52.055H5.627v5.31h2.551v-5.31zm6.29 0h-2.551v5.31h2.551v-5.31zm-6.29 10.461H5.627v5.31h2.551v-5.31zm6.29 0h-2.551v5.31h2.551v-5.31zm47.616-20.91h-2.552v5.31h2.552v-5.31zm6.289 0h-2.551v5.31h2.551v-5.31zm-6.289 10.449h-2.552v5.31h2.552v-5.31zm6.289 0h-2.551v5.31h2.551v-5.31zm-6.289 10.461h-2.552v5.31h2.552v-5.31zm6.289 0h-2.551v5.31h2.551v-5.31z" fill="#21388F"/></svg>