<svg width="84" height="80" viewBox="0 0 84 80" fill="none" xmlns="http://www.w3.org/2000/svg">
<path d="M41.9816 52.1819L38.1644 60.2389L37.4294 67.0091C42.2321 68.2916 46.5035 64.996 47.1295 60.6331C47.6699 56.8801 45.4361 53.38 41.9816 52.1819Z" fill="#25283E"/>
<path d="M81.0656 73.6547H58.7128C58.6915 73.4685 58.7244 73.2865 58.6715 73.1002L50.0716 42.5961L52.8871 22.996L60.385 12.4987L74.2955 14.198C76.7211 14.5062 78.9048 12.7765 79.1987 10.3636C79.4937 7.95075 77.7771 5.75568 75.3641 5.46044L58.8577 3.44293C57.2516 3.23078 55.6781 3.94016 54.7411 5.25277L46.3889 16.9449L30.476 14.4315L23.8201 2.70499C22.6179 0.590094 19.9285 -0.147848 17.8193 1.04862C15.7044 2.24921 14.9636 4.93601 16.163 7.04936L23.866 20.6213C24.5279 21.7875 25.6841 22.5886 27.0081 22.7963L36.5497 24.3023C34.585 36.9613 35.0122 34.2092 33.0076 47.132L28.4053 56.8482C28.2303 57.2178 28.1185 57.6161 28.0743 58.023L26.3792 73.6542C6.02104 73.6542 48.4956 73.6542 2.93456 73.6542C1.31381 73.6547 0 74.9688 0 76.5894C0 78.2096 1.31381 79.5238 2.93439 79.5238C30.775 79.5238 53.2623 79.5238 81.0654 79.5238C82.6858 79.5238 83.9998 78.2096 83.9998 76.5894C84 74.9688 82.686 73.6547 81.0656 73.6547ZM33.7565 73.6547L35.2999 59.4306L39.8849 49.7529C43.1392 50.2216 42.4083 50.1156 45.1851 50.5153C48.9192 52.9041 50.613 57.0334 50.0339 61.0496C49.8376 62.4154 49.3734 63.6848 48.7173 64.8281L51.2047 73.6547C39.8622 73.6547 62.9227 73.6547 33.7565 73.6547Z" fill="#25283E"/>
</svg>
