<svg width="84" height="84" viewBox="0 0 84 84" fill="none" xmlns="http://www.w3.org/2000/svg">
<path d="M41.9816 54.1819L38.1644 62.2389L37.4294 69.0091C42.2321 70.2916 46.5035 66.996 47.1295 62.6331C47.6699 58.8801 45.4361 55.38 41.9816 54.1819Z" fill="#25283E"/>
<path d="M81.0656 75.6547H58.7128C58.6915 75.4685 58.7244 75.2865 58.6715 75.1002L50.0716 44.5961L52.8871 24.996L60.385 14.4987L74.2955 16.198C76.7211 16.5062 78.9048 14.7765 79.1987 12.3636C79.4937 9.95075 77.7771 7.75568 75.3641 7.46044L58.8577 5.44293C57.2516 5.23078 55.6781 5.94016 54.7411 7.25277L46.3889 18.9449L30.476 16.4315L23.8201 4.70499C22.6179 2.59009 19.9285 1.85215 17.8193 3.04862C15.7044 4.24921 14.9636 6.93601 16.163 9.04936L23.866 22.6213C24.5279 23.7875 25.6841 24.5886 27.0081 24.7963L36.5497 26.3023C34.585 38.9613 35.0122 36.2092 33.0076 49.132L28.4053 58.8482C28.2303 59.2178 28.1185 59.6161 28.0743 60.023L26.3792 75.6542C6.02104 75.6542 48.4956 75.6542 2.93456 75.6542C1.31381 75.6547 0 76.9688 0 78.5894C0 80.2096 1.31381 81.5238 2.93439 81.5238C30.775 81.5238 53.2623 81.5238 81.0654 81.5238C82.6858 81.5238 83.9998 80.2096 83.9998 78.5894C84 76.9688 82.686 75.6547 81.0656 75.6547ZM33.7565 75.6547L35.2999 61.4306L39.8849 51.7529C43.1392 52.2216 42.4083 52.1156 45.1851 52.5153C48.9192 54.9041 50.613 59.0334 50.0339 63.0496C49.8376 64.4154 49.3734 65.6848 48.7173 66.8281L51.2047 75.6547C39.8622 75.6547 62.9227 75.6547 33.7565 75.6547Z" fill="#25283E"/>
</svg>
