<svg width="84" height="84" viewBox="0 0 84 84" fill="none" xmlns="http://www.w3.org/2000/svg">
<path d="M19.4984 34C23.6396 34 27 30.6434 27 26.5002C27 22.3586 23.6398 19 19.4984 19C15.3568 19 12 22.3586 12 26.5002C12 30.6434 15.3568 34 19.4984 34Z" fill="#25283E"/>
<path d="M64.0015 33C60.1364 33 57 29.8671 57 26.0002C57 22.1347 60.1362 19 64.0015 19C67.867 19 71 22.1347 71 26.0002C71 29.8671 67.867 33 64.0015 33Z" fill="#25283E"/>
<path fill-rule="evenodd" clip-rule="evenodd" d="M42.8667 34.8892C41.7569 33.7088 39.9522 33.7018 38.8375 34.8793C37.7251 36.0554 37.7193 37.9681 38.8294 39.1485L49.4924 50.4965C49.5894 50.5992 49.6875 50.7237 49.7887 50.8523C50.2107 51.3882 50.688 51.9942 51.3699 51.3813L59.9663 41.221C59.962 41.3762 59.9562 43.622 59.9551 57H74.1093C74.1058 53.6666 74.1031 50.4056 74.1031 47.3947L74.709 47.8342L76.0536 57H81.8165L80.1499 45.616C80.0284 44.7925 79.5921 44.0589 78.9431 43.5879L73.9307 39.9566C73.3192 37.2372 71.0268 35.2091 68.2745 35.2091H59.9709C58.6953 35.2091 56.9302 36.5833 56.9302 36.5833L50.7907 43.5879L42.8667 34.8892ZM59.9673 41.2198C59.9681 41.2434 59.9687 41.3149 59.9693 41.3741C59.9703 41.4816 59.9709 41.5486 59.9709 41.2155L59.9673 41.2198Z" fill="#25283E"/>
<path fill-rule="evenodd" clip-rule="evenodd" d="M42.9121 34.9753C44.0723 33.6806 45.959 33.6729 47.1244 34.9644C48.2874 36.2543 48.2935 38.3521 47.1329 39.6468L35.9852 52.0929C35.8838 52.2056 35.7813 52.3421 35.6755 52.4831C35.2342 53.0709 34.7353 53.7356 34.0224 53.0633L25.0352 41.9198C25.0395 42.0811 25.0452 44.2992 25.0467 57H10.2515C10.2541 54.1221 10.2559 51.3196 10.2559 48.691L9.62244 49.173L8.52798 57H2.50245L3.9342 46.7402C4.06119 45.837 4.51733 45.0324 5.19584 44.5158L10.4361 40.533C11.0753 37.5505 13.472 35.3261 16.3494 35.3261H25.0304C26.364 35.3261 28.2093 36.8333 28.2093 36.8333L34.6279 44.5158L42.9121 34.9753ZM25.0342 41.9185L25.0304 41.9138C25.0304 42.2791 25.031 42.2056 25.0321 42.0877C25.0327 42.0228 25.0334 41.9444 25.0342 41.9185Z" fill="#25283E"/>
<rect x="8" y="59" width="68" height="2" stroke="#25283E" stroke-width="2"/>
<rect x="15" y="59" width="21" height="2" transform="rotate(90 15 59)" stroke="#25283E" stroke-width="2"/>
<rect x="71" y="59" width="21" height="2" transform="rotate(90 71 59)" stroke="#25283E" stroke-width="2"/>
</svg>
