<svg width="84" height="84" viewBox="0 0 84 84" fill="none" xmlns="http://www.w3.org/2000/svg">
<g clip-path="url(#clip0_691_3824)">
<path d="M38.0245 35.0389C41.4523 33.8508 43.6697 30.3801 43.1325 26.6593C42.5069 22.3047 38.2573 19.0784 33.5137 20.3346L34.2412 27.0488L38.0245 35.0389Z" fill="#25283E"/>
<path d="M80.494 65.6897L56.893 60.9454C56.6085 60.8887 56.3218 60.8603 56.0315 60.8603H48.394L46.0488 44.5472L54.5794 14.2918C55.125 12.3587 53.9995 10.349 52.0636 9.80334C50.1332 9.25465 48.1209 10.3832 47.5751 12.319L44.7073 22.4948C45.3581 23.629 45.8186 24.8883 46.0149 26.2441C46.4185 29.0556 45.7047 31.8549 44.0025 34.129C43.2234 35.1664 42.2655 36.0137 41.2027 36.6931C35.9468 37.4492 39.5682 36.932 35.9468 37.4492L31.3988 27.8503L29.7786 12.9128C29.5597 10.9118 27.7289 9.48499 25.7674 9.68655C23.7691 9.90531 22.3253 11.6988 22.5412 13.6976L24.2298 29.2461C24.2752 29.6494 24.3862 30.0447 24.5597 30.4116L29.1218 40.0445C31.052 52.4808 30.1962 46.9635 32.2602 60.2717C33.5335 60.3684 39.1276 60.687 40.2076 61.0906L23.0505 62.023C22.857 62.0343 22.6639 62.0572 22.4736 62.094L3.55363 65.681C1.18285 66.1299 -0.371968 68.4156 0.0772987 70.7835C0.520948 73.1228 2.76898 74.706 5.1796 74.2596L23.8147 70.7261C48.7439 69.3764 42.2457 69.5925 55.5969 69.5925L78.7719 74.2513C81.182 74.723 83.4448 73.16 83.9137 70.8318C84.3885 68.4667 82.8565 66.1645 80.494 65.6897Z" fill="#25283E"/>
</g>
<defs>
<clipPath id="clip0_691_3824">
<rect width="84" height="84" fill="white"/>
</clipPath>
</defs>
</svg>
