<svg width="84" height="66" viewBox="0 0 84 66" fill="none" xmlns="http://www.w3.org/2000/svg">
<path d="M38.0244 26.0389C41.4522 24.8508 43.6696 21.3801 43.1325 17.6593C42.5069 13.3047 38.2573 10.0785 33.5137 11.3347L34.2411 18.0488L38.0244 26.0389Z" fill="#25283E"/>
<path d="M80.494 56.6897L56.893 51.9454C56.6085 51.8887 56.3218 51.8603 56.0315 51.8603H48.394L46.0487 35.5473L54.5794 5.29178C55.125 3.35869 53.9995 1.34899 52.0635 0.803369C50.1332 0.254681 48.1209 1.38321 47.5751 3.31903L44.7072 13.4949C45.3581 14.629 45.8186 15.8883 46.0149 17.2441C46.4185 20.0556 45.7047 22.8549 44.0025 25.129C43.2234 26.1664 42.2655 27.0137 41.2027 27.6932C35.9468 28.4492 39.5682 27.932 35.9468 28.4492L31.3988 18.8503L29.7786 3.91283C29.5597 1.91181 27.7289 0.485018 25.7674 0.686583C23.7691 0.905344 22.3253 2.69884 22.5411 4.69764L24.2298 20.2461C24.2752 20.6494 24.3862 21.0447 24.5597 21.4116L29.1218 31.0445C31.052 43.4809 30.1962 37.9635 32.2602 51.2718C33.5335 51.3685 39.1276 51.687 40.2076 52.0906L23.0505 53.0231C22.8569 53.0343 22.6639 53.0573 22.4736 53.094L3.55361 56.681C1.18283 57.13 -0.371983 59.4156 0.0772834 61.7835C0.520932 64.1228 2.76897 65.706 5.17959 65.2597L23.8147 61.7261C48.7438 60.3765 42.2457 60.5925 55.5969 60.5925L78.7719 65.2513C81.182 65.7231 83.4448 64.1601 83.9137 61.8319C84.3885 59.4667 82.8565 57.1645 80.494 56.6897Z" fill="#25283E"/>
</svg>
