<svg width="84" height="84" viewBox="0 0 84 84" fill="none" xmlns="http://www.w3.org/2000/svg">
<g clip-path="url(#clip0_691_3761)">
<path d="M68.2121 24.1975C67.3314 22.9431 65.6008 22.6398 64.3464 23.5206L56.2778 29.1847L46.1344 29.7596H35.5906L26.3042 28.2775L22.2449 20.9826L26.3976 14.5875C28.9321 15.0765 32.0412 13.4926 33.9905 10.4907C36.3665 6.83173 36.1192 2.45429 33.4381 0.713388C30.7571 -1.0277 26.6575 0.527118 24.2816 4.18604C22.442 7.0191 22.1762 10.282 23.394 12.4191L19.8785 17.8329C19.1018 17.4753 18.172 17.4775 17.3676 17.925C16.0284 18.6702 15.5469 20.36 16.2921 21.6993L16.7885 22.5914L15.5826 24.4485C15.0262 25.3055 15.2696 26.4511 16.1266 27.0077C16.9834 27.564 18.1292 27.3207 18.6856 26.4637L18.8243 26.2502L22.1101 32.1548C22.5242 32.8988 23.2568 33.4116 24.0977 33.5457L31.985 34.8045V54.2788L29.2173 66.9741L20.8361 78.0694C19.6043 79.6999 19.9276 82.0203 21.5582 83.252C23.1891 84.4841 25.5097 84.1599 26.7408 82.5298L35.6117 70.7862C35.9344 70.3591 36.1604 69.8671 36.2745 69.3442L38.5204 59.0431H42.0491L44.5224 66.2087L44.2264 80.2215C44.1827 82.2919 45.8477 83.9996 47.9273 83.9996C49.9343 83.9996 51.5824 82.3941 51.625 80.3777L51.9349 65.7043C51.9441 65.2673 51.8758 64.8321 51.7333 64.4189L48.3835 54.7138V35.1459L57.36 34.6869C57.8817 34.6604 58.3852 34.4869 58.8128 34.1867L67.5358 28.0632C68.7896 27.1826 69.0927 25.452 68.2121 24.1975Z" fill="#25283E"/>
<path d="M40.4688 27.0566C43.9771 27.0566 46.821 24.2126 46.821 20.7044C46.821 17.1961 43.9771 14.3521 40.4688 14.3521C36.9606 14.3521 34.1166 17.1961 34.1166 20.7044C34.1166 24.2126 36.9606 27.0566 40.4688 27.0566Z" fill="#25283E"/>
<path d="M56.2146 11.5574L58.0276 15.5352C58.1573 15.8198 58.4211 16.0207 58.7299 16.0702C59.0389 16.1196 59.3521 16.0112 59.5641 15.7813L62.3382 12.7755C62.5505 12.5457 62.6335 12.2248 62.5595 11.9208C62.4855 11.6167 62.2642 11.37 61.9701 11.2634L57.8599 9.77434C57.8483 9.32011 57.6611 8.87083 57.3009 8.5384C56.5939 7.88581 55.4917 7.92995 54.8391 8.63712C54.1865 9.34429 54.2306 10.4463 54.9376 11.0989C55.2981 11.4315 55.7609 11.5821 56.2146 11.5574Z" fill="#25283E"/>
</g>
<defs>
<clipPath id="clip0_691_3761">
<rect width="84" height="84" fill="white"/>
</clipPath>
</defs>
</svg>
