<svg width="54" height="84" viewBox="0 0 54 84" fill="none" xmlns="http://www.w3.org/2000/svg">
<path d="M53.2121 24.1975C52.3314 22.9431 50.6008 22.6398 49.3464 23.5206L41.2778 29.1847L31.1344 29.7596H20.5906L11.3042 28.2775L7.2449 20.9826L11.3976 14.5875C13.9321 15.0765 17.0412 13.4926 18.9905 10.4907C21.3665 6.83173 21.1192 2.45429 18.4381 0.713388C15.7571 -1.0277 11.6575 0.527118 9.2816 4.18604C7.44198 7.0191 7.17622 10.282 8.39402 12.4191L4.87852 17.8329C4.10175 17.4753 3.17205 17.4775 2.36763 17.925C1.02838 18.6702 0.546867 20.36 1.29213 21.6993L1.78849 22.5914L0.582583 24.4485C0.0261532 25.3055 0.269567 26.4511 1.12656 27.0077C1.98336 27.564 3.12919 27.3207 3.68562 26.4637L3.82427 26.2502L7.1101 32.1548C7.52422 32.8988 8.25684 33.4116 9.09771 33.5457L16.985 34.8045V54.2788L14.2173 66.9741L5.83606 78.0694C4.60433 79.6999 4.92761 82.0203 6.55825 83.252C8.18907 84.4841 10.5097 84.1599 11.7408 82.5298L20.6117 70.7862C20.9344 70.3591 21.1604 69.8671 21.2745 69.3442L23.5204 59.0431H27.0491L29.5224 66.2087L29.2264 80.2215C29.1827 82.2919 30.8477 83.9996 32.9273 83.9996C34.9343 83.9996 36.5824 82.3941 36.625 80.3777L36.9349 65.7043C36.9441 65.2673 36.8758 64.8321 36.7333 64.4189L33.3835 54.7138V35.1459L42.36 34.6869C42.8817 34.6604 43.3852 34.4869 43.8128 34.1867L52.5358 28.0632C53.7896 27.1826 54.0927 25.452 53.2121 24.1975Z" fill="#25283E"/>
<path d="M25.4688 27.0566C28.9771 27.0566 31.821 24.2126 31.821 20.7044C31.821 17.1961 28.9771 14.3521 25.4688 14.3521C21.9606 14.3521 19.1166 17.1961 19.1166 20.7044C19.1166 24.2126 21.9606 27.0566 25.4688 27.0566Z" fill="#25283E"/>
<path d="M41.2146 11.5573L43.0276 15.5351C43.1573 15.8198 43.4211 16.0207 43.7299 16.0701C44.0389 16.1196 44.3521 16.0112 44.5641 15.7813L47.3382 12.7755C47.5505 12.5457 47.6335 12.2248 47.5595 11.9207C47.4855 11.6167 47.2642 11.37 46.9701 11.2634L42.8599 9.77431C42.8483 9.32008 42.6611 8.8708 42.3009 8.53837C41.5939 7.88578 40.4917 7.92992 39.8391 8.63709C39.1865 9.34426 39.2306 10.4463 39.9376 11.0989C40.2981 11.4315 40.7609 11.5821 41.2146 11.5573Z" fill="#25283E"/>
</svg>
