<svg width="80" height="84" viewBox="0 0 80 84" fill="none" xmlns="http://www.w3.org/2000/svg">
<path d="M15.3903 24.0514C19.2106 24.0514 22.3107 20.9549 22.3107 17.1327C22.3107 13.3121 19.2108 10.2137 15.3903 10.2137C11.5695 10.2137 8.47278 13.3121 8.47278 17.1327C8.47278 20.9549 11.5695 24.0514 15.3903 24.0514Z" fill="#25283E"/>
<path d="M39.3135 15.0696C38.1743 13.9342 36.3298 13.9409 35.1956 15.0792L25.0934 25.224L16.6618 25.3839H14.1184C11.3055 25.3839 8.96262 27.3395 8.33767 29.9616L3.21494 33.463C2.55165 33.9172 2.10574 34.6246 1.98159 35.4186L0.126505 47.3735C-0.123644 48.9619 0.965964 50.451 2.55452 50.6973C4.17027 50.9427 5.63451 49.8345 5.87688 48.2682L7.54229 37.5574L8.1615 37.1337C8.1615 45.2969 8.13954 55.3677 8.13954 63.532L1.5443 78.9798C0.762264 80.8105 1.61287 82.9273 3.44364 83.7107C5.29298 84.495 7.39365 83.6279 8.17231 81.8096L11.239 74.6279C11.4565 75.3436 11.836 76.014 12.486 76.4926C14.11 77.6821 16.359 77.3117 17.5259 75.725L26.9927 62.8546C27.8457 61.6971 27.9256 60.146 27.2046 58.9045L22.6211 51.0319C22.6211 24.613 22.6048 32.7941 22.6048 31.1755L26.5053 30.9813C27.2294 30.9455 27.9119 30.6399 28.4241 30.1281L39.3218 19.1861C40.4564 18.0479 40.4504 16.2036 39.3135 15.0696ZM13.7987 68.6245L14.7312 66.443C15.1368 65.4945 15.3459 64.4737 15.3459 63.4422V56.4475H17.4325L19.7832 60.4885L13.7987 68.6245Z" fill="#25283E"/>
<path d="M47.7036 0C43.971 0 40.9462 3.02509 40.9462 6.7579C40.9462 10.489 43.971 13.5141 47.7036 13.5141C51.4337 13.5141 54.4615 10.489 54.4615 6.7579C54.4615 3.02509 51.4337 0 47.7036 0Z" fill="#25283E"/>
<path d="M79.3955 12.0828C78.9989 11.6302 78.4292 11.3714 77.829 11.3714H58.9155C58.3183 11.3714 57.7482 11.6302 57.3521 12.0828C56.9555 12.5331 56.7738 13.1331 56.8564 13.7276L59.6283 34.377C59.7658 35.4092 60.6465 36.1801 61.6903 36.1801H75.057C76.1006 36.1801 76.9786 35.4092 77.119 34.377L79.8907 13.7276C79.9708 13.1331 79.7894 12.5331 79.3955 12.0828ZM73.2377 32.0221H63.5071L61.2937 15.5307H75.4536L73.2377 32.0221Z" fill="#25283E"/>
</svg>
