<svg width="84" height="84" viewBox="0 0 84 84" fill="none" xmlns="http://www.w3.org/2000/svg">
<g clip-path="url(#clip0_691_3808)">
<path d="M17.3903 24.0515C21.2106 24.0515 24.3107 20.9549 24.3107 17.1328C24.3107 13.3121 21.2108 10.2137 17.3903 10.2137C13.5695 10.2137 10.4728 13.3121 10.4728 17.1328C10.4728 20.9549 13.5695 24.0515 17.3903 24.0515Z" fill="#25283E"/>
<path d="M41.3136 15.0696C40.1743 13.9342 38.3298 13.9409 37.1956 15.0792L27.0934 25.224L18.6618 25.3839H16.1185C13.3055 25.3839 10.9626 27.3395 10.3377 29.9616L5.21495 33.463C4.55166 33.9172 4.10575 34.6246 3.98161 35.4186L2.12652 47.3735C1.87637 48.9619 2.96598 50.451 4.55453 50.6973C6.17028 50.9427 7.63452 49.8345 7.8769 48.2682L9.54231 37.5574L10.1615 37.1337C10.1615 45.2969 10.1396 55.3677 10.1396 63.532L3.54431 78.9798C2.76228 80.8105 3.61289 82.9273 5.44365 83.7107C7.29299 84.495 9.39367 83.6279 10.1723 81.8096L13.239 74.6279C13.4565 75.3436 13.836 76.014 14.486 76.4926C16.11 77.6821 18.359 77.3117 19.526 75.725L28.9928 62.8546C29.8457 61.6971 29.9256 60.146 29.2046 58.9045L24.6212 51.0319C24.6212 24.613 24.6048 32.7941 24.6048 31.1755L28.5053 30.9813C29.2294 30.9455 29.9119 30.6399 30.4241 30.1281L41.3218 19.1861C42.4564 18.0479 42.4505 16.2036 41.3136 15.0696ZM15.7987 68.6245L16.7313 66.443C17.1368 65.4945 17.3459 64.4737 17.3459 63.4422V56.4475H19.4326L21.7832 60.4885L15.7987 68.6245Z" fill="#25283E"/>
<path d="M49.7036 0C45.971 0 42.9462 3.02509 42.9462 6.7579C42.9462 10.489 45.971 13.5141 49.7036 13.5141C53.4337 13.5141 56.4615 10.489 56.4615 6.7579C56.4615 3.02509 53.4337 0 49.7036 0Z" fill="#25283E"/>
<path d="M81.3955 12.0828C80.9989 11.6301 80.4292 11.3714 79.8291 11.3714H60.9155C60.3183 11.3714 59.7482 11.6301 59.3522 12.0828C58.9556 12.5331 58.7738 13.1331 58.8564 13.7276L61.6283 34.377C61.7658 35.4091 62.6465 36.18 63.6903 36.18H77.057C78.1006 36.18 78.9786 35.4091 79.119 34.377L81.8907 13.7276C81.9708 13.1331 81.7894 12.5331 81.3955 12.0828ZM75.2377 32.0221H65.5071L63.2937 15.5307H77.4536L75.2377 32.0221Z" fill="#25283E"/>
</g>
<defs>
<clipPath id="clip0_691_3808">
<rect width="84" height="84" fill="white"/>
</clipPath>
</defs>
</svg>
