<svg width="84" height="84" viewBox="0 0 84 84" fill="none" xmlns="http://www.w3.org/2000/svg">
<path d="M13.5126 20.662C12.6842 21.2527 12.4108 22.3869 12.9235 23.2866C13.469 24.2464 14.6882 24.5826 15.648 24.0388L16.2413 23.7026L13.6124 20.5938L13.5126 20.662Z" fill="#25283E"/>
<path d="M45.8769 6.85242C45.9766 6.79485 46.0779 6.73205 46.1747 6.6637C47.8288 5.49918 48.2295 3.21359 47.0646 1.55966C45.9001 -0.0999858 43.6144 -0.496463 41.9589 0.668052L22.3531 14.4476L25.653 18.3493L45.8769 6.85242Z" fill="#25283E"/>
<path d="M40.3021 50.9033L47.0537 32.5442C48.0652 29.7936 46.9333 26.4201 43.3967 25.1076C43.3095 25.072 41.453 24.3915 41.3695 24.3612C40.6601 24.0986 39.2043 23.8745 38.9349 23.9074L27.8307 24.8343L21.463 17.3103C20.4651 16.1265 18.7043 15.984 17.526 16.9794C16.3463 17.9772 16.2 19.7382 17.1952 20.9163L24.4937 29.5451C25.1102 30.272 26.033 30.6059 26.86 30.521C27.732 30.4498 38.8188 29.5532 39.6784 29.392C39.1317 29.6188 27.6404 32.8805 27.0704 33.0445C26.1231 33.3154 25.1703 33.1674 24.3515 32.7602L27.0635 36.1615C27.8511 37.148 29.1892 37.5829 30.6971 36.8148C30.2584 38.0066 27.959 44.6094 27.959 44.6094C27.959 44.6094 24.6904 60.9919 24.5126 61.9352L16.7916 78.3066C15.8525 80.2997 16.7069 82.6781 18.6999 83.6185C20.6752 84.5511 23.0647 83.72 24.0121 81.7104L31.9492 64.8797C32.0899 64.5762 32.1963 64.2534 32.2579 63.9226L33.7986 55.8079L44.6188 81.4833C45.436 83.5365 47.7573 84.5266 49.8023 83.7145C51.8503 82.8997 52.8493 80.5785 52.0333 78.5333L40.3021 50.9033Z" fill="#25283E"/>
<path d="M39.1935 14.6688C37.9275 18.1083 39.691 21.9253 43.1332 23.1908C46.5741 24.4595 50.3922 22.6933 51.6592 19.2513C52.9263 15.8118 51.1604 11.9925 47.7195 10.7293C44.2731 9.46328 40.4579 11.2239 39.1935 14.6688Z" fill="#25283E"/>
<path d="M67.8776 22.3516C65.9676 22.3516 64.4175 23.8991 64.4175 25.8103C64.4175 27.7186 65.9676 29.2686 67.8776 29.2686C69.7873 29.2686 71.336 27.7186 71.336 25.8103C71.336 23.8993 69.7873 22.3516 67.8776 22.3516Z" fill="#25283E"/>
</svg>
