<svg width="60" height="84" viewBox="0 0 60 84" fill="none" xmlns="http://www.w3.org/2000/svg">
<path d="M1.51254 20.6619C0.684232 21.2527 0.410823 22.3869 0.923465 23.2866C1.46894 24.2464 2.68817 24.5826 3.64796 24.0388L4.24125 23.7026L1.61238 20.5938L1.51254 20.6619Z" fill="#25283E"/>
<path d="M33.8769 6.85239C33.9766 6.79482 34.0779 6.73202 34.1747 6.66367C35.8288 5.49915 36.2295 3.21356 35.0647 1.55963C33.9001 -0.100016 31.6144 -0.496494 29.9589 0.668022L10.3531 14.4476L13.653 18.3492L33.8769 6.85239Z" fill="#25283E"/>
<path d="M28.3021 50.9033L35.0537 32.5441C36.0652 29.7935 34.9333 26.42 31.3967 25.1075C31.3095 25.072 29.453 24.3915 29.3695 24.3612C28.6601 24.0986 27.2043 23.8745 26.9349 23.9073L15.8307 24.8343L9.46299 17.3103C8.46514 16.1264 6.70431 15.984 5.52599 16.9793C4.34633 17.9772 4.20003 19.7382 5.19518 20.9163L12.4937 29.545C13.1102 30.272 14.033 30.6059 14.86 30.521C15.732 30.4498 26.8188 29.5531 27.6784 29.392C27.1317 29.6188 15.6405 32.8805 15.0704 33.0445C14.1231 33.3154 13.1703 33.1674 12.3515 32.7601L15.0635 36.1614C15.8511 37.148 17.1892 37.5828 18.6971 36.8148C18.2584 38.0066 15.959 44.6093 15.959 44.6093C15.959 44.6093 12.6904 60.9918 12.5126 61.9351L4.79163 78.3065C3.85254 80.2997 4.70694 82.6781 6.69994 83.6185C8.67525 84.551 11.0647 83.72 12.0121 81.7104L19.9492 64.8797C20.0899 64.5761 20.1963 64.2534 20.2579 63.9226L21.7986 55.8078L32.6188 81.4832C33.436 83.5365 35.7573 84.5266 37.8023 83.7145C39.8503 82.8996 40.8493 80.5785 40.0333 78.5333L28.3021 50.9033Z" fill="#25283E"/>
<path d="M27.1935 14.6688C25.9275 18.1083 27.691 21.9253 31.1332 23.1908C34.5741 24.4595 38.3922 22.6933 39.6592 19.2513C40.9263 15.8118 39.1604 11.9925 35.7196 10.7293C32.2731 9.46328 28.4579 11.2239 27.1935 14.6688Z" fill="#25283E"/>
<path d="M55.8776 22.3516C53.9676 22.3516 52.4175 23.8991 52.4175 25.8103C52.4175 27.7186 53.9676 29.2686 55.8776 29.2686C57.7872 29.2686 59.3359 27.7186 59.3359 25.8103C59.3359 23.8993 57.7872 22.3516 55.8776 22.3516Z" fill="#25283E"/>
</svg>
