<svg width="54" height="84" viewBox="0 0 54 84" fill="none" xmlns="http://www.w3.org/2000/svg">
<path d="M28.6143 21.6663C29.406 22.8422 30.5563 23.7884 32.0056 24.2699C35.4937 25.4319 39.2688 23.5505 40.4338 20.0583C41.6002 16.5687 39.7121 12.7917 36.2238 11.6296C34.0347 10.8969 31.7374 11.3672 30.0405 12.6743C30.515 13.7899 30.6354 15.0645 30.2526 16.3116L28.6143 21.6663Z" fill="#25283E"/>
<path d="M37.7199 42.4698C38.2478 43.2055 39.0954 43.6402 40.0006 43.6402H50.4583C52.0075 43.6402 53.2615 42.3877 53.2615 40.837C53.2615 39.2894 52.0075 38.034 50.4583 38.034H41.4419L36.4685 31.0819C36.2266 28.9295 34.7851 27.0018 32.5962 26.2715L30.2743 25.4978C29.3703 25.197 28.4203 25.1532 27.4985 25.3113L20.0257 49.7306C19.4829 51.5053 18.0964 52.7714 16.4445 53.2665L15.8075 59.0121C15.114 58.8754 6.8551 57.1881 6.2123 57.1526L6.07847 46.5963C6.06064 45.1334 4.86675 43.96 3.41047 43.96C3.39824 43.96 3.38584 43.96 3.37497 43.96C1.89967 43.9792 0.721059 45.1909 0.738721 46.6647L1.0777 73.3643C1.0901 74.3352 1.62743 75.2214 2.48218 75.6837L7.324 78.2899C8.61487 78.9845 10.2379 78.5059 10.9395 77.2038C11.6382 75.9075 11.1543 74.2887 9.85513 73.5858L6.39843 71.7236L6.3164 65.2805L18.5189 67.7255C20.8203 68.1876 23.026 66.571 23.2843 64.2384L24.206 55.9411L32.1465 63.4237C32.0205 64.0304 29.0972 78.0436 29.0561 78.6589H18.8637C17.3896 78.6589 16.1947 79.854 16.1947 81.331C16.1947 82.8048 17.3896 84 18.8637 84H45.5635C46.5329 84 47.427 83.4722 47.8976 82.6271L50.5666 77.8167C51.2843 76.5286 50.8181 74.9042 49.5288 74.1877C48.2393 73.4684 46.6163 73.9387 45.8999 75.227L43.9922 78.6589H37.1801L40.4428 62.8492C40.723 61.4872 40.2786 60.0788 39.2667 59.1244L30.4565 50.8241L34.6671 38.2006L37.7199 42.4698Z" fill="#25283E"/>
<path d="M10.2844 45.0678L13.1792 35.6053L12.8511 33.2316L13.9913 32.9499L15.9032 26.7092L9.05929 28.3912C7.66465 28.7328 6.75386 30.0755 6.95086 31.4951L8.52178 42.8415C8.66698 43.8863 9.3699 44.7095 10.2844 45.0678Z" fill="#25283E"/>
<path d="M17.7532 29.3291L12.2387 47.3486C11.7847 48.828 12.6172 50.3951 14.0995 50.8489C14.3717 50.9338 14.6479 50.9717 14.9201 50.9717C16.1193 50.9717 17.231 50.1981 17.5987 48.9922L27.8268 15.5733C28.2807 14.0909 27.448 12.5239 25.9658 12.0699C25.7674 12.0096 25.5692 12.029 25.3682 12.0123C26.3375 8.87288 25.7156 10.8859 28.2751 2.59363C28.6007 1.5356 28.0086 0.417108 26.9518 0.0888291C25.8865 -0.236563 24.7732 0.359706 24.4478 1.41502C21.195 11.9551 22.7003 7.07609 16.5812 26.9063C16.2738 27.9041 16.8028 28.9407 17.7532 29.3291Z" fill="#25283E"/>
</svg>
