<svg width="84" height="84" viewBox="0 0 84 84" fill="none" xmlns="http://www.w3.org/2000/svg">
<g clip-path="url(#clip0_691_3830)">
<path d="M43.6142 21.6663C44.406 22.8422 45.5562 23.7884 47.0055 24.2699C50.4936 25.4319 54.2688 23.5505 55.4338 20.0583C56.6002 16.5687 54.712 12.7917 51.2237 11.6296C49.0346 10.8969 46.7374 11.3672 45.0404 12.6743C45.5149 13.7899 45.6353 15.0645 45.2526 16.3116L43.6142 21.6663Z" fill="#25283E"/>
<path d="M52.7199 42.4698C53.2478 43.2055 54.0954 43.6402 55.0006 43.6402H65.4583C67.0074 43.6402 68.2615 42.3877 68.2615 40.837C68.2615 39.2894 67.0074 38.034 65.4583 38.034H56.4419L51.4685 31.0819C51.2266 28.9295 49.7851 27.0018 47.5962 26.2715L45.2743 25.4978C44.3703 25.197 43.4203 25.1532 42.4984 25.3113L35.0256 49.7306C34.4829 51.5053 33.0964 52.7714 31.4445 53.2665L30.8074 59.0121C30.114 58.8754 21.8551 57.1881 21.2123 57.1526L21.0785 46.5963C21.0606 45.1334 19.8667 43.96 18.4105 43.96C18.3982 43.96 18.3858 43.96 18.375 43.96C16.8997 43.9792 15.721 45.1909 15.7387 46.6647L16.0777 73.3643C16.0901 74.3352 16.6274 75.2214 17.4822 75.6837L22.324 78.2899C23.6149 78.9845 25.2379 78.5059 25.9395 77.2038C26.6381 75.9075 26.1543 74.2887 24.8551 73.5858L21.3984 71.7236L21.3164 65.2805L33.5189 67.7255C35.8203 68.1876 38.026 66.571 38.2843 64.2384L39.206 55.9411L47.1465 63.4237C47.0205 64.0304 44.0972 78.0436 44.0561 78.6589H33.8637C32.3896 78.6589 31.1946 79.854 31.1946 81.331C31.1946 82.8048 32.3896 84 33.8637 84H60.5635C61.5328 84 62.427 83.4722 62.8976 82.6271L65.5666 77.8167C66.2843 76.5286 65.8181 74.9042 64.5288 74.1877C63.2393 73.4684 61.6162 73.9387 60.8999 75.227L58.9922 78.6589H52.18L55.4428 62.8492C55.723 61.4872 55.2786 60.0788 54.2667 59.1244L45.4565 50.8241L49.6671 38.2006L52.7199 42.4698Z" fill="#25283E"/>
<path d="M25.2844 45.0678L28.1792 35.6053L27.8511 33.2316L28.9913 32.9498L30.9032 26.7091L24.0593 28.3911C22.6647 28.7328 21.7539 30.0755 21.9509 31.4951L23.5218 42.8415C23.667 43.8863 24.3699 44.7094 25.2844 45.0678Z" fill="#25283E"/>
<path d="M32.7532 29.3291L27.2387 47.3486C26.7847 48.828 27.6172 50.3951 29.0995 50.8489C29.3717 50.9338 29.6478 50.9717 29.9201 50.9717C31.1192 50.9717 32.2309 50.1981 32.5986 48.9922L42.8267 15.5733C43.2807 14.0909 42.448 12.5239 40.9657 12.0699C40.7674 12.0096 40.5692 12.029 40.3681 12.0123C41.3375 8.87288 40.7156 10.8859 43.2751 2.59363C43.6006 1.5356 43.0086 0.417108 41.9518 0.0888291C40.8864 -0.236563 39.7732 0.359706 39.4478 1.41502C36.1949 11.9551 37.7003 7.07609 31.5812 26.9063C31.2738 27.9041 31.8028 28.9407 32.7532 29.3291Z" fill="#25283E"/>
</g>
<defs>
<clipPath id="clip0_691_3830">
<rect width="84" height="84" fill="white"/>
</clipPath>
</defs>
</svg>
