<svg width="84" height="84" viewBox="0 0 84 84" fill="none" xmlns="http://www.w3.org/2000/svg">
<g clip-path="url(#clip0_691_3769)">
<path d="M56.1161 51.6616C61.2494 51.6616 65.4108 47.4964 65.4108 42.3583C65.4108 37.2202 61.2494 33.0549 56.1161 33.0549C50.9828 33.0549 46.8214 37.2202 46.8214 42.3583C46.8214 47.4964 50.9828 51.6616 56.1161 51.6616Z" fill="#25283E"/>
<path d="M56.1161 83.9181C61.2494 83.9181 65.4108 79.7528 65.4108 74.6147C65.4108 69.4766 61.2494 65.3114 56.1161 65.3114C50.9828 65.3114 46.8214 69.4766 46.8214 74.6147C46.8214 79.7528 50.9828 83.9181 56.1161 83.9181Z" fill="#25283E"/>
<path d="M74.7053 83.9181C79.8386 83.9181 84 79.7528 84 74.6147C84 69.4766 79.8386 65.3114 74.7053 65.3114C69.572 65.3114 65.4106 69.4766 65.4106 74.6147C65.4106 79.7528 69.572 83.9181 74.7053 83.9181Z" fill="#25283E"/>
<path d="M37.5269 83.9181C42.6602 83.9181 46.8216 79.7528 46.8216 74.6147C46.8216 69.4766 42.6602 65.3114 37.5269 65.3114C32.3936 65.3114 28.2322 69.4766 28.2322 74.6147C28.2322 79.7528 32.3936 83.9181 37.5269 83.9181Z" fill="#25283E"/>
<path d="M46.8214 67.7898C51.9547 67.7898 56.1161 63.6245 56.1161 58.4864C56.1161 53.3483 51.9547 49.1831 46.8214 49.1831C41.6881 49.1831 37.5267 53.3483 37.5267 58.4864C37.5267 63.6245 41.6881 67.7898 46.8214 67.7898Z" fill="#25283E"/>
<path d="M65.4108 67.7898C70.5441 67.7898 74.7055 63.6245 74.7055 58.4864C74.7055 53.3483 70.5441 49.1831 65.4108 49.1831C60.2775 49.1831 56.1161 53.3483 56.1161 58.4864C56.1161 63.6245 60.2775 67.7898 65.4108 67.7898Z" fill="#25283E"/>
<path d="M44.6534 11.0281L51.3985 16.6289L9.61005 68.9892C8.33302 70.5949 6.03719 70.8813 4.52142 69.6226L1.23625 66.8958C-0.279515 65.6371 -0.421807 63.3229 0.922356 61.7696L44.6534 11.0281Z" fill="#25283E"/>
<path d="M59.8131 6.08517L54.4612 12.7908L47.8584 7.30948L53.4589 0.811675C54.2062 -0.0558338 55.5111 -0.165378 56.3923 0.566225L59.5123 3.15713C60.3919 3.88873 60.526 5.18983 59.8131 6.08517Z" fill="#25283E"/>
</g>
<defs>
<clipPath id="clip0_691_3769">
<rect width="84" height="84" fill="white"/>
</clipPath>
</defs>
</svg>
