<svg width="84" height="84" viewBox="0 0 84 84" fill="none" xmlns="http://www.w3.org/2000/svg">
<path d="M56.0286 27.4285L55.5364 27.9098C54.7667 28.6635 53.5318 28.65 52.7781 27.8797L49.5084 24.5375C48.7547 23.7672 48.7682 22.5323 49.5385 21.7793L52.0417 19.3299C50.5838 17.3348 48.2074 16.0313 45.5331 16.0313C41.2117 16.0313 30.5611 16.0313 27.624 16.0313C23.2251 16.0313 19.6286 19.5548 19.6068 23.8858V23.9024V45.9355L18.5641 45.9348L18.5647 44.3705C18.5647 43.777 18.0841 43.2957 17.4907 43.2957L15.5161 43.2945C14.9227 43.2938 14.4414 43.7751 14.4408 44.3686L14.4376 51.6213C14.4376 52.2147 14.9182 52.696 15.5117 52.696L17.4862 52.6973C18.0796 52.6973 18.5609 52.2166 18.5609 51.6232L18.5622 50.0588L20.0452 50.0595C20.2393 50.3998 20.4906 50.7029 20.7879 50.9548C21.3698 51.4476 22.1209 51.7462 22.9425 51.7462C23.8346 51.7462 24.6427 51.3937 25.2413 50.8234C25.4759 50.6004 25.6771 50.344 25.8386 50.0614L27.4683 50.0627L27.4677 51.627C27.4677 52.2198 27.9483 52.7011 28.5418 52.7018L30.5163 52.703C31.1097 52.703 31.591 52.2224 31.591 51.6289L31.5949 44.3762C31.5949 43.7828 31.1142 43.3015 30.5208 43.3009L28.5463 43.3002C27.9528 43.2996 27.4715 43.7802 27.4709 44.3737L27.4702 45.9387L26.2782 45.938C26.2782 42.9907 26.2782 26.3627 26.2782 23.914C26.2853 23.2795 26.9249 22.7027 27.624 22.7027H27.7432V41.0732L31.8724 41.0751C32.9497 41.0751 33.8225 41.9493 33.8219 43.0266L33.8212 44.5986L33.8174 52.9805C33.8168 54.0578 32.9432 54.9307 31.8659 54.9301L27.708 54.9281V79.9066C27.708 82.1509 29.5447 84.0415 31.7884 83.9992C33.9635 83.9582 35.7144 82.1817 35.7144 79.9969V47.9997H37.4428V79.9066C37.4428 82.1509 39.2789 84.0415 41.5232 83.9992C43.6983 83.9582 45.4485 82.1817 45.4485 79.9969C45.4485 79.9758 45.4132 22.7245 45.4132 22.7034H45.5331C46.2316 22.7034 46.8712 23.2795 46.8783 23.914V35.3887C46.8783 36.5698 47.4627 37.6952 48.4715 38.3098C49.782 39.1077 51.4297 38.9096 52.5102 37.8849L57.7256 32.9374C57.4667 32.6721 57.4712 32.2472 57.7358 31.9883L59.1425 30.6117L56.0286 27.4285Z" fill="#25283E"/>
<path d="M43.492 6.9137C43.492 10.732 40.3966 13.8274 36.5783 13.8274C32.76 13.8274 29.6646 10.732 29.6646 6.9137C29.6646 3.0954 32.76 0 36.5783 0C40.3966 0 43.492 3.0954 43.492 6.9137Z" fill="#25283E"/>
<path d="M66.3575 26.6684L65.2392 27.7624L63.6819 26.1705L60.5679 22.9873L59.0106 21.396L60.1289 20.3014C60.5531 19.8868 60.5608 19.2062 60.1455 18.7825L58.7645 17.3707C58.3498 16.9465 57.6692 16.9388 57.2456 17.354L52.061 22.4259C51.6367 22.8412 51.629 23.5211 52.0443 23.9454L53.4254 25.3572C53.84 25.7808 54.5206 25.7885 54.9449 25.3739L56.0632 24.2793L57.6205 25.8712L60.7345 29.0544L62.2918 30.6463L61.1735 31.7403C60.7492 32.1556 60.7416 32.8355 61.1568 33.2598L62.5379 34.6716C62.9526 35.0952 63.6332 35.1029 64.0568 34.6883L69.2414 29.6158C69.6657 29.2012 69.6727 28.5206 69.2581 28.0963L67.877 26.6851C67.4624 26.2608 66.7817 26.2532 66.3575 26.6684V26.6684Z" fill="#25283E"/>
</svg>
