<svg width="84" height="84" viewBox="0 0 84 84" fill="none" xmlns="http://www.w3.org/2000/svg">
<g clip-path="url(#clip0_691_3816)">
<path d="M19.0346 17.4407C22.5186 18.1932 25.9534 15.9737 26.7047 12.4899C27.4533 9.00291 25.2323 5.57359 21.7484 4.82246C18.263 4.07268 14.8306 6.29063 14.0822 9.77468C13.3338 13.2601 15.5492 16.6923 19.0346 17.4407Z" fill="#25283E"/>
<path d="M38.1663 19.3868L30.7801 26.7976L31.2226 26.5682C33.9775 25.1396 37.2909 25.9592 39.1101 28.3452L43.1187 24.3229C44.4817 22.9556 44.4789 20.7418 43.1103 19.3788C41.7419 18.0143 39.5294 18.0198 38.1663 19.3868Z" fill="#25283E"/>
<path d="M32.5107 29.0512L23.9527 33.4886L22.8095 28.3831L23.8911 30.369L30.1669 27.1158C30.1669 27.1158 26.9584 24.0751 25.9097 23.0404C25.2788 22.4178 23.9905 21.4713 22.8013 21.1173C20.315 20.3772 18.521 19.9441 16.2962 21.3836C15.0574 22.1839 14.1874 23.4431 13.8774 24.884L7.21384 59.2483L0.418989 73.2994C-0.58895 75.3848 0.283767 77.8938 2.37075 78.9033C4.46183 79.9125 6.96386 79.0413 7.97452 76.9516L15.0451 62.3297C15.2281 61.9513 15.3524 61.547 15.4151 61.1318L17.0119 50.5895L24.9045 57.9632L27.161 75.657C27.456 77.9774 29.5839 79.5794 31.8537 79.2873C34.1523 78.9951 35.7775 76.8929 35.484 74.5943L33.0366 55.3998C32.9135 54.4299 32.4548 53.5328 31.7391 52.865C31.5273 52.6671 23.4202 45.0924 23.2126 44.8998C20.2175 46.4499 17.1882 45.1182 15.9686 42.7679C14.8855 40.6743 15.4769 38.5982 15.985 29.9104L18.1211 39.4462C18.479 41.047 19.9061 42.1779 21.5328 42.1779C22.8864 42.1779 34.4543 35.9212 35.7289 35.2601C37.443 34.3712 38.1121 32.261 37.2242 30.547C36.3336 28.8327 34.2219 28.1647 32.5107 29.0512Z" fill="#25283E"/>
<path d="M83.581 73.2994L76.7862 59.2484L70.1226 24.884C69.8125 23.4431 68.9426 22.184 67.7038 21.3836C66.4664 20.5832 64.9612 20.3087 63.5189 20.6188C62.7543 20.7827 61.6726 21.0013 60.9213 21.2075L54.02 21.3277L51.104 11.6265C50.5498 9.77858 48.6006 8.72562 46.7487 9.28425C44.8994 9.84014 43.8506 11.7905 44.4065 13.6398L48.0846 25.8773C48.5295 27.3576 49.8926 28.3672 51.4332 28.3672C51.4537 28.3672 51.4743 28.3672 51.4948 28.3672L57.052 28.2702L57.2486 29.1879L59.7974 29.3764L60.6222 28.2073L61.2367 27.3346L59.8738 32.1872L50.1385 31.4661C48.2374 31.302 46.5369 32.7676 46.3937 34.6947C46.2517 36.6205 47.6966 38.2978 49.6225 38.4395C49.6225 38.4395 62.3829 39.3807 62.4687 39.3807C64.0244 39.3807 65.4078 38.3467 65.8341 36.8296L67.97 29.2263L68.5261 37.5862C68.6899 40.0459 66.8037 42.1368 64.4055 42.2954C64.2321 42.3063 60.0076 42.0127 60.0076 42.0127L60.6551 45.0229L52.2609 52.865C51.5454 53.5328 51.0866 54.4301 50.9634 55.3998L48.516 74.5943C48.1966 77.0967 50.14 79.3215 52.6831 79.3215C54.7631 79.3215 56.5699 77.7752 56.839 75.657L59.0955 57.9632L66.9883 50.5895L68.5849 61.1318C68.6476 61.547 68.7718 61.9513 68.9551 62.3297L76.0255 76.9516C77.0362 79.0413 79.5384 79.9126 81.6293 78.9033C83.7161 77.8939 84.5888 75.3848 83.581 73.2994Z" fill="#25283E"/>
<path d="M64.9655 17.4407C68.4509 16.6923 70.6663 13.2601 69.9177 9.77449C69.1691 6.29045 65.7373 4.0725 62.2517 4.82227C58.7676 5.57341 56.5468 9.0029 57.2954 12.4897C58.0467 15.9737 61.4814 18.1932 64.9655 17.4407Z" fill="#25283E"/>
</g>
<defs>
<clipPath id="clip0_691_3816">
<rect width="84" height="84" fill="white"/>
</clipPath>
</defs>
</svg>
