<svg width="84" height="76" viewBox="0 0 84 76" fill="none" xmlns="http://www.w3.org/2000/svg">
<path d="M19.0346 13.4407C22.5187 14.1932 25.9534 11.9737 26.7048 8.48986C27.4533 5.00291 25.2323 1.57359 21.7484 0.822458C18.263 0.0726845 14.8306 2.29063 14.0822 5.77468C13.3338 9.26009 15.5492 12.6923 19.0346 13.4407Z" fill="#25283E"/>
<path d="M38.1664 15.3869L30.7802 22.7976L31.2226 22.5683C33.9776 21.1397 37.2909 21.9592 39.1102 24.3453L43.1188 20.3229C44.4817 18.9557 44.479 16.7418 43.1104 15.3788C41.742 14.0144 39.5295 14.0198 38.1664 15.3869Z" fill="#25283E"/>
<path d="M32.5107 25.0512L23.9527 29.4886L22.8095 24.3831L23.8911 26.3689L30.1669 23.1158C30.1669 23.1158 26.9584 20.0751 25.9097 19.0404C25.2788 18.4178 23.9905 17.4712 22.8013 17.1172C20.315 16.3772 18.521 15.9441 16.2962 17.3836C15.0574 18.1838 14.1874 19.4431 13.8774 20.884L7.21384 55.2482L0.418989 69.2993C-0.58895 71.3848 0.283767 73.8938 2.37075 74.9033C4.46183 75.9124 6.96386 75.0412 7.97452 72.9515L15.0451 58.3297C15.2281 57.9513 15.3524 57.547 15.4151 57.1318L17.0119 46.5894L24.9045 53.9632L27.161 71.6569C27.456 73.9774 29.5839 75.5794 31.8537 75.2873C34.1523 74.995 35.7775 72.8929 35.484 70.5943L33.0366 51.3998C32.9135 50.4299 32.4548 49.5328 31.7391 48.865C31.5273 48.667 23.4202 41.0924 23.2126 40.8997C20.2175 42.4499 17.1882 41.1182 15.9686 38.7679C14.8855 36.6743 15.4769 34.5982 15.985 25.9104L18.1211 35.4462C18.479 37.047 19.9061 38.1779 21.5328 38.1779C22.8864 38.1779 34.4543 31.9212 35.7289 31.2601C37.443 30.3712 38.1121 28.261 37.2242 26.5469C36.3336 24.8327 34.2219 24.1646 32.5107 25.0512Z" fill="#25283E"/>
<path d="M83.581 69.2994L76.7862 55.2484L70.1226 20.884C69.8125 19.4431 68.9426 18.184 67.7038 17.3836C66.4664 16.5832 64.9612 16.3087 63.5189 16.6188C62.7543 16.7827 61.6726 17.0013 60.9213 17.2075L54.02 17.3277L51.104 7.6265C50.5498 5.77858 48.6006 4.72562 46.7487 5.28425C44.8994 5.84014 43.8506 7.79054 44.4065 9.63982L48.0846 21.8773C48.5295 23.3576 49.8926 24.3672 51.4332 24.3672C51.4537 24.3672 51.4743 24.3672 51.4948 24.3672L57.052 24.2702L57.2486 25.1879L59.7974 25.3764L60.6222 24.2073L61.2367 23.3346L59.8738 28.1872L50.1385 27.4661C48.2374 27.302 46.5369 28.7676 46.3937 30.6947C46.2517 32.6205 47.6966 34.2978 49.6225 34.4395C49.6225 34.4395 62.3829 35.3807 62.4687 35.3807C64.0244 35.3807 65.4078 34.3467 65.8341 32.8296L67.97 25.2263L68.5261 33.5862C68.6899 36.0459 66.8037 38.1368 64.4055 38.2954C64.2321 38.3063 60.0076 38.0127 60.0076 38.0127L60.6551 41.0229L52.2609 48.865C51.5454 49.5328 51.0866 50.4301 50.9634 51.3998L48.516 70.5943C48.1966 73.0967 50.14 75.3215 52.6831 75.3215C54.7631 75.3215 56.5699 73.7752 56.839 71.657L59.0955 53.9632L66.9883 46.5895L68.5849 57.1318C68.6476 57.547 68.7718 57.9513 68.9551 58.3297L76.0255 72.9516C77.0362 75.0413 79.5384 75.9126 81.6293 74.9033C83.7161 73.8939 84.5888 71.3848 83.581 69.2994Z" fill="#25283E"/>
<path d="M64.9654 13.4407C68.4508 12.6923 70.6662 9.26008 69.9176 5.77449C69.1691 2.29045 65.7372 0.0725014 62.2516 0.822275C58.7676 1.57341 56.5467 5.0029 57.2953 8.48967C58.0466 11.9737 61.4814 14.1932 64.9654 13.4407Z" fill="#25283E"/>
</svg>
