<svg width="84" height="76" viewBox="0 0 84 76" fill="none" xmlns="http://www.w3.org/2000/svg">
<path d="M10.8753 12.6367C13.8214 10.7601 14.6869 6.84924 12.8153 3.9004C10.9328 0.957142 7.02518 0.0913571 4.07651 1.96832C1.13037 3.84816 0.261884 7.75864 2.13885 10.7021C4.01564 13.6484 7.9263 14.5167 10.8753 12.6367Z" fill="#25283E"/>
<path d="M16.729 36.1174C16.3577 35.2764 16.1437 34.3449 16.1437 33.3665C16.1437 29.582 19.2131 26.5124 22.9973 26.5124H26.2842L22.217 20.131L26.9987 17.9406C27.334 17.7896 27.639 17.5837 27.911 17.3337L35.9825 9.80891C37.3675 8.52012 37.4415 6.35152 36.1556 4.9667C34.8584 3.58155 32.6955 3.5102 31.3104 4.79341L23.6429 11.9388L17.789 14.6181C17.3824 14.4124 16.9566 14.264 16.5085 14.1373C13.8015 13.376 10.6027 15.2587 9.0169 17.4544L0.555177 29.8046C-0.381615 31.2393 -0.109926 33.1465 1.18731 34.2652L8.44529 40.542C9.88793 41.7843 12.0455 41.6194 13.2794 40.193C14.5186 38.7587 14.3595 36.5958 12.9277 35.3591L7.9288 31.0359L10.7346 26.7104L16.729 36.1174Z" fill="#25283E"/>
<path d="M31.3078 49.0781L27.8288 40.2204H22.9974C20.8841 40.2204 19.0208 39.2449 17.7625 37.7414L18.5677 39.0058C18.7353 39.627 23.1732 50.8749 23.4101 51.4714L24.5121 71.143C24.6383 73.3304 26.4494 75.0232 28.6151 75.0232C28.6949 75.0232 28.772 75.0203 28.8513 75.0178C31.1188 74.8888 32.85 72.9484 32.7263 70.6811L31.5859 50.353C31.558 49.9131 31.4647 49.4874 31.3078 49.0781Z" fill="#25283E"/>
<path d="M34.8503 19.9003L28.8842 26.5124H39.9596L40.5255 25.886L53.3019 18.4823L47.0112 12.6205L35.8429 19.0954C35.4716 19.3094 35.1365 19.5816 34.8503 19.9003Z" fill="#25283E"/>
<path d="M73.1245 12.6367C76.0734 14.5167 79.984 13.6482 81.8612 10.7021C83.7385 7.75864 82.87 3.84816 79.9237 1.96832C76.9748 0.0915241 73.0669 0.957308 71.1847 3.90057C69.3128 6.84924 70.1784 10.7601 73.1245 12.6367Z" fill="#25283E"/>
<path d="M83.4442 29.8046C82.6775 28.623 76.2219 18.8777 74.9826 17.4544C72.9596 15.6215 70.2305 13.53 67.4908 14.1373C67.0372 14.2392 66.6167 14.4124 66.2101 14.6181L60.3564 11.9388L52.689 4.79338C51.3067 3.51288 49.1413 3.57881 47.8439 4.96667C46.5578 6.35132 46.632 8.52009 48.0168 9.80888L56.0884 17.3336C56.3606 17.5837 56.6656 17.7896 57.0008 17.9406L61.7825 20.131C59.8425 23.1786 61.299 20.8896 53.9588 32.4129C49.6055 30.9262 51.4522 31.5581 45.3429 29.4747C44.9172 29.3293 44.4663 29.2551 44.0157 29.2551H22.9975C20.7249 29.2551 18.8864 31.0964 18.8864 33.3665C18.8864 35.6392 20.7249 37.4776 22.9975 37.4776H43.3315C49.1 39.4452 46.3874 38.5191 55.602 41.6688L52.6918 49.0779C52.5351 49.4872 52.4418 49.9129 52.4139 50.3528L51.2737 70.6809C51.15 72.9482 52.8815 74.8888 55.1487 75.0176C55.2283 75.0203 55.3056 75.023 55.3849 75.023C57.5506 75.023 59.3615 73.33 59.4881 71.1428L60.5902 51.4712C60.8268 50.8747 65.2649 39.6266 65.4326 39.0056L73.2649 26.71L76.0709 31.0356L71.072 35.3587C69.6401 36.5953 69.4836 38.7581 70.7201 40.1927C71.954 41.6192 74.1116 41.7839 75.5542 40.5416L82.8122 34.2649C84.1089 33.1465 84.3813 31.2393 83.4442 29.8046Z" fill="#25283E"/>
</svg>
