<svg width="84" height="84" viewBox="0 0 84 84" fill="none" xmlns="http://www.w3.org/2000/svg">
<g clip-path="url(#clip0_691_3789)">
<path d="M10.8753 16.6367C13.8214 14.7601 14.6869 10.8493 12.8153 7.90043C10.9328 4.95717 7.02518 4.09139 4.07651 5.96835C1.13037 7.84819 0.261884 11.7587 2.13885 14.7021C4.01564 17.6484 7.9263 18.5167 10.8753 16.6367Z" fill="#25283E"/>
<path d="M16.729 40.1174C16.3577 39.2765 16.1437 38.3449 16.1437 37.3665C16.1437 33.582 19.2131 30.5124 22.9973 30.5124H26.2842L22.217 24.1311L26.9987 21.9406C27.334 21.7897 27.639 21.5838 27.911 21.3337L35.9825 13.8089C37.3675 12.5202 37.4415 10.3515 36.1556 8.96673C34.8584 7.58158 32.6955 7.51023 31.3104 8.79344L23.6429 15.9388L17.789 18.6182C17.3824 18.4124 16.9566 18.264 16.5085 18.1374C13.8015 17.376 10.6027 19.2588 9.0169 21.4544L0.555177 33.8046C-0.381615 35.2393 -0.109926 37.1466 1.18731 38.2653L8.44529 44.542C9.88793 45.7843 12.0455 45.6194 13.2794 44.193C14.5186 42.7587 14.3595 40.5958 12.9277 39.3591L7.9288 35.036L10.7346 30.7104L16.729 40.1174Z" fill="#25283E"/>
<path d="M31.3079 53.0781L27.8288 44.2204H22.9975C20.8841 44.2204 19.0209 43.2449 17.7625 41.7414L18.5678 43.0059C18.7353 43.627 23.1733 54.8749 23.4101 55.4714L24.5121 75.143C24.6384 77.3304 26.4494 79.0232 28.6152 79.0232C28.695 79.0232 28.7721 79.0204 28.8513 79.0178C31.1189 78.8888 32.8501 76.9485 32.7263 74.6811L31.586 54.353C31.5581 53.9131 31.4648 53.4874 31.3079 53.0781Z" fill="#25283E"/>
<path d="M34.8503 23.9003L28.8842 30.5124H39.9596L40.5255 29.886L53.3019 22.4823L47.0112 16.6205L35.8429 23.0954C35.4716 23.3094 35.1365 23.5816 34.8503 23.9003Z" fill="#25283E"/>
<path d="M73.1245 16.6367C76.0734 18.5167 79.984 17.6482 81.8612 14.7021C83.7385 11.7587 82.87 7.84819 79.9237 5.96835C76.9748 4.09155 73.0669 4.95734 71.1847 7.9006C69.3128 10.8493 70.1784 14.7601 73.1245 16.6367Z" fill="#25283E"/>
<path d="M83.4441 33.8047C82.6774 32.6231 76.2218 22.8778 74.9825 21.4544C72.9595 19.6216 70.2305 17.5301 67.4907 18.1374C67.0371 18.2393 66.6167 18.4124 66.2101 18.6182L60.3564 15.9388L52.6889 8.79344C51.3066 7.51294 49.1412 7.57887 47.8438 8.96673C46.5577 10.3514 46.632 12.5202 48.0168 13.8089L56.0883 21.3337C56.3605 21.5838 56.6655 21.7897 57.0007 21.9406L61.7824 24.1311C59.8424 27.1786 61.2989 24.8897 53.9588 36.413C49.6055 34.9262 51.4522 35.5582 45.3428 33.4748C44.9171 33.3294 44.4662 33.2552 44.0157 33.2552H22.9975C20.7249 33.2552 18.8863 35.0965 18.8863 37.3665C18.8863 39.6393 20.7249 41.4777 22.9975 41.4777H43.3315C49.1 43.4453 46.3873 42.5191 55.6019 45.6688L52.6918 53.0779C52.5351 53.4873 52.4417 53.913 52.4138 54.3529L51.2737 74.681C51.1499 76.9483 52.8815 78.8888 55.1486 79.0177C55.2283 79.0204 55.3055 79.0231 55.3848 79.0231C57.5505 79.0231 59.3614 77.3301 59.488 75.1429L60.5902 55.4712C60.8267 54.8748 65.2648 43.6267 65.4325 43.0057L73.2648 30.7101L76.0708 35.0356L71.0719 39.3588C69.6401 40.5953 69.4835 42.7582 70.7201 44.1927C71.9539 45.6193 74.1115 45.784 75.5542 44.5417L82.8121 38.2649C84.1089 37.1466 84.3812 35.2393 83.4441 33.8047Z" fill="#25283E"/>
</g>
<defs>
<clipPath id="clip0_691_3789">
<rect width="84" height="84" fill="white"/>
</clipPath>
</defs>
</svg>
