<svg width="84" height="84" viewBox="0 0 84 84" fill="none" xmlns="http://www.w3.org/2000/svg">
<g clip-path="url(#clip0_691_3840)">
<path d="M83.6108 70.0805L76.8705 55.3328C76.8705 55.3328 79.7043 42.9588 79.7071 42.7757C79.7236 41.718 79.3214 40.6979 78.585 39.9393L65.2665 26.1834C65.6563 26.8025 65.9649 27.4844 66.1282 28.2416C66.5086 30.0063 66.1229 31.7529 65.1991 33.1473L67.1848 41.4148C67.7491 43.7677 66.4288 46.2032 64.1332 46.9997C62.2077 47.6602 63.4568 47.2315 56.1493 49.7395C54.8302 50.455 53.9724 51.8046 53.9054 53.3095L53.0837 71.6733C52.9775 74.0417 54.8123 76.0469 57.1805 76.153C57.2446 76.1557 57.3104 76.157 57.3748 76.157C59.6577 76.157 61.5567 74.3587 61.6599 72.056L62.3701 56.1737L68.6142 52.9488L68.1768 54.7638C67.9517 55.6971 68.0469 56.6794 68.4464 57.5527L75.8028 73.649C76.7852 75.798 79.324 76.7578 81.4909 75.7685C83.6471 74.7838 84.5961 72.2364 83.6108 70.0805Z" fill="#25283E"/>
<path d="M57.2125 36.7496L57.1931 38.7921L43.9067 43.3514C42.0387 43.9913 41.0438 46.0259 41.685 47.8954C42.1939 49.379 43.5812 50.3124 45.068 50.3124C45.4525 50.3124 45.8451 50.2495 46.2288 50.1167L61.9074 44.7377C63.341 44.2457 64.3094 42.9042 64.3234 41.3884L64.3919 34.1338C63.5438 34.9875 62.4551 35.6189 61.192 35.8918L57.2125 36.7496Z" fill="#25283E"/>
<path d="M36.5685 20.181C39.4928 21.8508 43.1354 21.0137 45.1028 18.3856C45.3321 19.6181 45.9074 20.8001 46.8453 21.7697C49.3826 24.3867 53.5645 24.4538 56.183 21.9164C58.8041 19.379 58.8696 15.2014 56.3339 12.5799C53.798 9.96037 49.6173 9.89164 46.9974 12.4291C46.7349 12.6847 46.5153 12.967 46.3029 13.2519C45.9608 11.4061 44.8667 9.71285 43.1102 8.70949C39.9415 6.90293 35.9088 8.00671 34.1036 11.1744C32.2986 14.3434 33.3995 18.3744 36.5685 20.181Z" fill="#25283E"/>
<path d="M44.787 53.7537C44.7801 53.7498 33.2989 46.6098 33.2918 46.6055L37.3452 39.4964L39.0164 41.9599C39.261 42.3201 39.5905 42.5969 39.9386 42.8429C40.6847 41.8576 41.7214 41.0753 42.979 40.6436L49.4441 38.4247L49.1688 38.485C48.505 38.6274 47.8442 38.5435 47.2686 38.2852L39.9204 34.9821L34.2017 32.4109L47.8973 35.4933C48.4187 35.6093 48.944 35.6063 49.4372 35.4988L60.5901 33.0942C62.5212 32.6793 63.7477 30.7764 63.3314 28.844C62.9165 26.913 61.0217 25.6833 59.0811 26.1024L48.6993 28.3408L35.7721 25.4305L39.929 25.5159C39.6746 25.302 39.4066 25.1008 39.1074 24.9304L36.9976 23.7261C35.688 22.9799 34.1347 22.7828 32.68 23.1811C31.2255 23.5793 29.9888 24.5391 29.2412 25.8484L12.1364 57.3098L1.17202 68.9181C-0.455575 70.6408 -0.378924 73.3572 1.34547 74.9849C3.06677 76.6141 5.78574 76.5357 7.41212 74.8115L18.822 62.7323C19.1182 62.4208 19.3642 62.0645 19.5542 61.679L24.6387 51.3297C24.6499 51.3365 24.6585 51.3464 24.6697 51.3534L38.2673 59.8082L38.463 71.9347C38.5019 74.2808 40.4163 76.1571 42.7539 76.1571C42.7777 76.1571 42.8014 76.1571 42.8252 76.1571C45.1947 76.1182 47.0855 74.1659 47.0476 71.7949L46.8126 57.3295C46.7892 55.8707 46.0263 54.5252 44.787 53.7537Z" fill="#25283E"/>
</g>
<defs>
<clipPath id="clip0_691_3840">
<rect width="84" height="84" fill="white"/>
</clipPath>
</defs>
</svg>
