<svg width="84" height="70" viewBox="0 0 84 70" fill="none" xmlns="http://www.w3.org/2000/svg">
<path d="M83.6107 63.0805L76.8704 48.3328C76.8704 48.3328 79.7043 35.9588 79.707 35.7757C79.7236 34.718 79.3214 33.6979 78.585 32.9393L65.2664 19.1834C65.6562 19.8025 65.9649 20.4844 66.1282 21.2416C66.5085 23.0063 66.1229 24.7529 65.1991 26.1473L67.1848 34.4148C67.7491 36.7677 66.4288 39.2032 64.1332 39.9997C62.2076 40.6602 63.4568 40.2315 56.1492 42.7395C54.8301 43.455 53.9723 44.8046 53.9053 46.3095L53.0837 64.6733C52.9774 67.0417 54.8122 69.0469 57.1805 69.153C57.2446 69.1557 57.3104 69.157 57.3748 69.157C59.6576 69.157 61.5567 67.3587 61.6599 65.056L62.37 49.1737L68.6141 45.9488L68.1768 47.7638C67.9516 48.6971 68.0469 49.6794 68.4463 50.5527L75.8028 66.649C76.7851 68.798 79.3239 69.7578 81.4908 68.7685C83.6471 67.7838 84.596 65.2364 83.6107 63.0805Z" fill="#25283E"/>
<path d="M57.2125 29.7496L57.1931 31.7921L43.9067 36.3514C42.0387 36.9913 41.0437 39.0259 41.685 40.8954C42.1939 42.379 43.5812 43.3124 45.068 43.3124C45.4525 43.3124 45.845 43.2495 46.2288 43.1167L61.9074 37.7377C63.341 37.2457 64.3094 35.9042 64.3234 34.3884L64.3919 27.1338C63.5438 27.9875 62.4551 28.6189 61.192 28.8918L57.2125 29.7496Z" fill="#25283E"/>
<path d="M36.5685 13.181C39.4928 14.8508 43.1354 14.0137 45.1028 11.3856C45.3321 12.6181 45.9074 13.8001 46.8453 14.7697C49.3826 17.3867 53.5644 17.4538 56.183 14.9164C58.8041 12.379 58.8696 8.20142 56.3339 5.57995C53.798 2.96037 49.6173 2.89164 46.9974 5.42906C46.7349 5.68468 46.5153 5.96699 46.3029 6.25189C45.9608 4.40606 44.8667 2.71285 43.1102 1.70949C39.9415 -0.0970675 35.9088 1.00671 34.1036 4.17439C32.2986 7.34344 33.3995 11.3744 36.5685 13.181Z" fill="#25283E"/>
<path d="M44.7869 46.7537C44.78 46.7498 33.2989 39.6098 33.2918 39.6055L37.3452 32.4964L39.0164 34.9599C39.261 35.3201 39.5905 35.5969 39.9386 35.8429C40.6846 34.8576 41.7214 34.0753 42.979 33.6436L49.4441 31.4247L49.1688 31.485C48.505 31.6274 47.8442 31.5435 47.2685 31.2852L39.9203 27.9821L34.2016 25.4109L47.8973 28.4933C48.4187 28.6093 48.944 28.6063 49.4372 28.4988L60.59 26.0942C62.5211 25.6793 63.7477 23.7764 63.3314 21.844C62.9164 19.913 61.0217 18.6833 59.0811 19.1024L48.6993 21.3408L35.772 18.4305L39.929 18.5159C39.6745 18.302 39.4065 18.1008 39.1073 17.9304L36.9976 16.7261C35.688 15.9799 34.1346 15.7828 32.68 16.1811C31.2255 16.5793 29.9887 17.5391 29.2412 18.8484L12.1364 50.3098L1.17199 61.9181C-0.455606 63.6408 -0.378954 66.3572 1.34544 67.9849C3.06674 69.6141 5.78571 69.5357 7.41209 67.8115L18.8219 55.7323C19.1182 55.4208 19.3642 55.0645 19.5542 54.679L24.6387 44.3297C24.6499 44.3365 24.6585 44.3464 24.6697 44.3534L38.2673 52.8082L38.4629 64.9347C38.5019 67.2808 40.4163 69.1571 42.7539 69.1571C42.7776 69.1571 42.8014 69.1571 42.8252 69.1571C45.1946 69.1182 47.0854 67.1659 47.0475 64.7949L46.8126 50.3295C46.7892 48.8707 46.0263 47.5252 44.7869 46.7537Z" fill="#25283E"/>
</svg>
