<svg width="84" height="84" viewBox="0 0 84 84" fill="none" xmlns="http://www.w3.org/2000/svg">
<path d="M23.9962 70.5555C22.0084 72.0842 19.5515 73.0302 16.8555 73.0302C10.3587 73.0302 5.07202 67.7436 5.07202 61.2467C5.07202 54.7485 10.3587 49.4616 16.8555 49.4616C21.7589 49.4616 25.9643 52.4766 27.7374 56.746L31.4274 52.919C28.5215 47.8472 23.1195 44.3898 16.8555 44.3898C7.54503 44.3898 0 51.9365 0 61.2467C0 70.5555 7.54503 78.1022 16.8555 78.1022C21.236 78.1022 25.1883 76.3902 28.1864 73.6494C27.0358 73.2633 25.9443 72.6507 25.0117 71.7525C24.6269 71.3808 24.2949 70.9746 23.9962 70.5555Z" fill="#25283E"/>
<path d="M49.5905 44.5185L40.6651 39.3344C44.6455 36.8431 43.1696 37.7658 47.1501 35.2743L47.0248 36.5424C46.81 38.7004 48.4004 40.6753 50.4027 41.0811C50.4506 41.0909 66.0711 43.7459 66.6407 43.7459C68.6699 43.7459 70.4615 42.2798 70.8045 40.211C71.1876 37.9078 69.6308 35.7315 67.3276 35.3504L55.8279 33.44L56.3747 27.9522C56.926 24.4454 57.1653 23.3458 55.856 21.2537L54.2099 18.6221C52.0833 15.2257 47.5992 14.1872 44.1948 16.3187L26.1787 27.5985C21.7538 30.3691 19.596 36.2107 23.2085 40.5079C24.6198 42.1871 38.3415 50.6193 38.3415 50.6193L27.2284 62.1467C25.2835 64.1625 25.3413 67.374 27.3588 69.3173C28.3429 70.2663 29.6109 70.7386 30.8788 70.7386C32.2081 70.7386 33.5355 70.2203 34.5294 69.1865L50.6931 52.4238C52.9735 50.0643 52.4387 46.1727 49.5905 44.5185Z" fill="#25283E"/>
<path d="M68.5246 21.4931C72.4758 19.0182 73.6728 13.8107 71.1993 9.86142C68.7263 5.90877 63.5186 4.71176 59.568 7.18511C55.6185 9.65845 54.4215 14.8641 56.8933 18.8134C59.3662 22.7662 64.5739 23.9649 68.5246 21.4931Z" fill="#25283E"/>
<path d="M67.1443 44.3898C57.7369 44.3898 50.2888 52.1513 50.2888 61.2467C50.2888 70.5555 57.8341 78.1022 67.1443 78.1022C76.4528 78.1022 84 70.5555 84 61.2467C84 51.9365 76.4528 44.3898 67.1443 44.3898ZM67.1443 73.0302C60.6474 73.0302 55.3608 67.7436 55.3608 61.2467C55.3608 54.7485 60.6476 49.4616 67.1443 49.4616C73.6413 49.4616 78.928 54.7485 78.928 61.2467C78.9282 67.7436 73.6413 73.0302 67.1443 73.0302Z" fill="#25283E"/>
</svg>
