<svg width="84" height="74" viewBox="0 0 84 74" fill="none" xmlns="http://www.w3.org/2000/svg">
<path d="M23.9962 65.5555C22.0084 67.0842 19.5515 68.0302 16.8555 68.0302C10.3587 68.0302 5.07202 62.7435 5.07202 56.2467C5.07202 49.7485 10.3587 44.4616 16.8555 44.4616C21.7589 44.4616 25.9643 47.4766 27.7374 51.746L31.4274 47.919C28.5215 42.8472 23.1195 39.3898 16.8555 39.3898C7.54503 39.3898 0 46.9365 0 56.2467C0 65.5555 7.54503 73.1022 16.8555 73.1022C21.236 73.1022 25.1883 71.3902 28.1864 68.6494C27.0358 68.2633 25.9443 67.6506 25.0117 66.7525C24.6269 66.3807 24.2949 65.9746 23.9962 65.5555Z" fill="#25283E"/>
<path d="M49.5905 39.5185L40.6651 34.3343C44.6455 31.843 43.1696 32.7657 47.1502 30.2743L47.0248 31.5423C46.81 33.7004 48.4004 35.6753 50.4027 36.081C50.4506 36.0908 66.0711 38.7458 66.6407 38.7458C68.6699 38.7458 70.4615 37.2797 70.8045 35.211C71.1876 32.9078 69.6308 30.7314 67.3276 30.3504L55.8279 28.4399L56.3748 22.9521C56.926 19.4454 57.1653 18.3458 55.856 16.2537L54.2099 13.622C52.0833 10.2257 47.5992 9.18714 44.1948 11.3187L26.1787 22.5985C21.7539 25.369 19.596 31.2106 23.2085 35.5078C24.6198 37.187 38.3415 45.6192 38.3415 45.6192L27.2284 57.1467C25.2835 59.1625 25.3413 62.3739 27.3588 64.3172C28.3429 65.2663 29.611 65.7385 30.8788 65.7385C32.2081 65.7385 33.5355 65.2202 34.5294 64.1865L50.6931 47.4238C52.9735 45.0643 52.4387 41.1727 49.5905 39.5185Z" fill="#25283E"/>
<path d="M68.5246 16.493C72.4758 14.0182 73.6728 8.81066 71.1993 4.86139C68.7263 0.908742 63.5186 -0.288267 59.568 2.18508C55.6185 4.65842 54.4215 9.86407 56.8933 13.8133C59.3662 17.7662 64.5739 18.9649 68.5246 16.493Z" fill="#25283E"/>
<path d="M67.1443 39.3898C57.7369 39.3898 50.2887 47.1513 50.2887 56.2467C50.2887 65.5555 57.8341 73.1022 67.1443 73.1022C76.4528 73.1022 84 65.5555 84 56.2467C84 46.9365 76.4528 39.3898 67.1443 39.3898ZM67.1443 68.0302C60.6474 68.0302 55.3608 62.7435 55.3608 56.2467C55.3608 49.7485 60.6476 44.4616 67.1443 44.4616C73.6413 44.4616 78.928 49.7485 78.928 56.2467C78.9281 62.7435 73.6413 68.0302 67.1443 68.0302Z" fill="#25283E"/>
</svg>
