<svg width="84" height="84" viewBox="0 0 84 84" fill="none" xmlns="http://www.w3.org/2000/svg">
<g clip-path="url(#clip0_691_3918)">
<path d="M24.2882 24.951C28.2523 24.951 31.4666 21.7379 31.4666 17.7738C31.4666 13.8096 28.2523 10.5967 24.2882 10.5967C20.3241 10.5967 17.111 13.8096 17.111 17.7738C17.111 21.7379 20.3241 24.951 24.2882 24.951Z" fill="#25283E"/>
<path d="M44.8341 15.6434L34.3539 26.1668L25.6079 26.3325H22.97C19.5558 26.3325 16.7892 29.099 16.7892 32.5131C16.7892 59.6534 16.7651 44.032 16.7651 65.9094L11.2637 78.7934C10.4536 80.6918 11.3348 82.8883 13.235 83.6994C15.1508 84.5144 17.3383 83.6117 18.1417 81.7298L23.6166 68.9034C24.0292 67.9368 24.2419 66.8968 24.2419 65.8459V58.5594H26.407L29.4583 63.7983L28.0734 75.9177C27.8391 77.9677 29.3126 79.8214 31.3643 80.0557C33.3985 80.2942 35.2663 78.8265 35.5024 76.7658L37.029 63.4138C37.1199 62.6128 36.9519 61.8044 36.5443 61.1079L31.7884 52.9377V39.1676L35.418 40.7064C36.8817 41.326 38.5622 40.7098 39.2827 39.31L45.2496 27.7148C45.8502 26.5494 45.5952 25.1935 44.7478 24.2882L49.1134 19.904C50.2904 18.7228 50.2863 16.8104 49.1044 15.6334C47.9261 14.4574 46.012 14.4641 44.8341 15.6434ZM35.1962 34.0517L31.7884 32.6069V32.5131C31.7884 32.4539 31.7728 32.4006 31.7714 32.3417L35.8197 32.1407C35.963 32.1336 36.0909 32.0693 36.2299 32.0425L35.1962 34.0517Z" fill="#25283E"/>
<path d="M57.8076 14.0201C61.6791 14.0201 64.8176 10.8816 64.8176 7.01004C64.8176 3.1385 61.6791 0 57.8076 0C53.936 0 50.7975 3.1385 50.7975 7.01004C50.7975 10.8816 53.936 14.0201 57.8076 14.0201Z" fill="#25283E"/>
<path d="M71.856 32.5635L55.9076 24.4776C55.2407 24.138 54.4443 24.1716 53.8027 24.5633C53.1637 24.9564 52.7746 25.6517 52.7746 26.4017V72.1116C52.7746 73.3025 53.7408 74.2685 54.9317 74.2685C56.1224 74.2685 57.0886 73.3025 57.0886 72.1116V46.689L68.723 52.5879V80.2602C68.723 81.4512 69.689 82.4172 70.8799 82.4172C72.0705 82.4172 73.0369 81.4512 73.0369 80.2602V34.4873C73.0371 33.6743 72.5807 32.9313 71.856 32.5635ZM57.0888 41.8512V29.9139L68.7232 35.8114V47.7506L57.0888 41.8512Z" fill="#25283E"/>
</g>
<defs>
<clipPath id="clip0_691_3918">
<rect width="84" height="84" fill="white"/>
</clipPath>
</defs>
</svg>
