<svg width="64" height="84" viewBox="0 0 64 84" fill="none" xmlns="http://www.w3.org/2000/svg">
<path d="M14.2882 24.9509C18.2523 24.9509 21.4666 21.7378 21.4666 17.7737C21.4666 13.8096 18.2523 10.5967 14.2882 10.5967C10.3241 10.5967 7.11099 13.8096 7.11099 17.7737C7.11099 21.7378 10.3241 24.9509 14.2882 24.9509Z" fill="#25283E"/>
<path d="M34.8341 15.6435L24.3539 26.1668L15.6079 26.3325H12.97C9.55578 26.3325 6.78921 29.0991 6.78921 32.5131C6.78921 59.6534 6.7651 44.0321 6.7651 65.9094L1.26369 78.7934C0.453623 80.6919 1.3348 82.8884 3.23497 83.6994C5.15075 84.5144 7.33824 83.6117 8.14169 81.7299L13.6166 68.9034C14.0292 67.9369 14.2419 66.8968 14.2419 65.8459V58.5594H16.407L19.4583 63.7983L18.0734 75.9177C17.839 77.9677 19.3125 79.8214 21.3643 80.0558C23.3985 80.2942 25.2663 78.8265 25.5023 76.7658L27.029 63.4139C27.1199 62.6128 26.9519 61.8044 26.5442 61.1079L21.7884 52.9377V39.1676L25.418 40.7064C26.8816 41.3261 28.5622 40.7098 29.2826 39.31L35.2496 27.7148C35.8502 26.5494 35.5951 25.1935 34.7477 24.2882L39.1134 19.9041C40.2904 18.7228 40.2863 16.8104 39.1044 15.6334C37.9261 14.4575 36.012 14.4641 34.8341 15.6435ZM25.1962 34.0518L21.7884 32.607V32.5131C21.7884 32.4539 21.7728 32.4006 21.7714 32.3417L25.8197 32.1408C25.963 32.1336 26.0909 32.0693 26.2299 32.0425L25.1962 34.0518Z" fill="#25283E"/>
<path d="M47.8076 14.0201C51.6791 14.0201 54.8176 10.8816 54.8176 7.01004C54.8176 3.1385 51.6791 0 47.8076 0C43.936 0 40.7975 3.1385 40.7975 7.01004C40.7975 10.8816 43.936 14.0201 47.8076 14.0201Z" fill="#25283E"/>
<path d="M61.856 32.5635L45.9076 24.4776C45.2407 24.138 44.4443 24.1716 43.8027 24.5633C43.1637 24.9564 42.7746 25.6517 42.7746 26.4017V72.1116C42.7746 73.3025 43.7408 74.2685 44.9317 74.2685C46.1224 74.2685 47.0886 73.3025 47.0886 72.1116V46.689L58.723 52.5879V80.2602C58.723 81.4511 59.689 82.4172 60.8799 82.4172C62.0705 82.4172 63.0369 81.4511 63.0369 80.2602V34.4872C63.0371 33.6743 62.5807 32.9313 61.856 32.5635ZM47.0888 41.8511V29.9138L58.7232 35.8114V47.7505L47.0888 41.8511Z" fill="#25283E"/>
</svg>
