<svg width="84" height="84" viewBox="0 0 84 84" fill="none" xmlns="http://www.w3.org/2000/svg">
<path d="M19.32 61.32C20.412 60.48 21.756 60.06 23.016 59.724C25.452 59.052 27.804 58.38 30.24 57.624C31.08 57.372 31.92 57.12 32.508 56.616C33.18 56.028 33.516 55.188 33.768 54.348C36.372 46.452 36.372 37.716 33.6 29.82C29.904 29.736 26.04 29.148 23.184 26.88C19.32 23.856 18.144 18.732 17.388 13.86C18.228 14.364 19.152 14.7 20.16 14.784C20.496 14.868 20.832 14.868 21.168 14.868C22.092 14.868 22.932 14.7 23.772 14.448C23.94 15.456 24.108 16.548 24.36 17.556C24.864 19.572 25.872 21.504 27.636 22.512C28.728 23.1 30.072 23.268 31.332 23.352C32.508 23.436 33.768 23.52 34.944 23.52C36.12 24.36 37.632 24.948 39.228 25.2C39.648 25.284 40.068 25.284 40.488 25.284C43.176 25.284 45.528 24.108 47.208 22.26C53.592 21.168 60.06 19.32 66.444 17.64C67.872 17.22 69.3 16.884 70.728 17.22C71.988 17.472 73.164 18.48 73.332 19.656C73.332 19.824 73.416 19.992 73.332 20.16C73.248 22.092 70.896 23.016 69.048 23.436C62.244 25.116 55.356 26.796 48.468 28.392C50.988 36.204 48.384 44.688 49.476 52.752C49.896 56.112 50.988 59.304 50.736 62.664C50.568 65.352 49.56 67.872 48.468 70.392C47.376 72.828 46.284 75.264 45.108 77.7C44.52 78.876 43.932 80.136 43.008 81.06C42 81.984 40.572 82.572 39.312 82.068C37.968 81.648 37.212 80.136 37.128 78.792C37.044 77.364 37.548 76.02 38.136 74.76C39.816 71.232 42.252 67.956 43.092 64.092C44.016 59.976 42.924 55.608 41.916 51.492C40.152 54.684 40.32 58.968 37.8 61.572C36.624 62.748 34.944 63.42 33.348 64.008C30.576 65.016 27.72 65.94 24.864 66.696C23.52 67.032 22.092 67.368 20.748 67.2C19.404 66.948 17.976 66.024 17.724 64.68C17.472 63.504 18.228 62.16 19.32 61.32V61.32Z" fill="#25283E"/>
<path d="M39.48 23.436C35.616 22.932 32.928 19.488 33.432 15.54C33.936 11.676 37.464 8.904 41.328 9.408C45.192 9.912 48.048 13.524 47.544 17.388C46.956 21.336 43.428 24.024 39.48 23.436V23.436Z" fill="#25283E"/>
<path d="M20.412 13.02C17.304 12.6 15.204 9.828 15.624 6.636C15.96 3.528 18.816 1.344 21.84 1.764C25.032 2.1 27.3 5.04 26.88 8.148C26.46 11.256 23.604 13.44 20.412 13.02Z" fill="#25283E"/>
</svg>
