<svg width="59" height="82" viewBox="0 0 59 82" fill="none" xmlns="http://www.w3.org/2000/svg">
<path d="M4.32005 60.32C5.41205 59.48 6.75605 59.06 8.01605 58.724C10.452 58.052 12.8041 57.38 15.2401 56.624C16.0801 56.372 16.9201 56.12 17.508 55.616C18.18 55.028 18.5161 54.188 18.7681 53.348C21.3721 45.452 21.3721 36.716 18.6001 28.82C14.904 28.736 11.04 28.148 8.18405 25.88C4.32005 22.856 3.14405 17.732 2.38805 12.86C3.22805 13.364 4.15205 13.7 5.16005 13.784C5.49605 13.868 5.83205 13.868 6.16805 13.868C7.09205 13.868 7.93205 13.7 8.77205 13.448C8.94005 14.456 9.10805 15.548 9.36005 16.556C9.86405 18.572 10.8721 20.504 12.6361 21.512C13.7281 22.1 15.072 22.268 16.3321 22.352C17.508 22.436 18.768 22.52 19.944 22.52C21.12 23.36 22.632 23.948 24.2281 24.2C24.6481 24.284 25.0681 24.284 25.4881 24.284C28.1761 24.284 30.5281 23.108 32.2081 21.26C38.5921 20.168 45.0601 18.32 51.4441 16.64C52.8721 16.22 54.3001 15.884 55.7281 16.22C56.9881 16.472 58.1641 17.48 58.3321 18.656C58.3321 18.824 58.4161 18.992 58.3321 19.16C58.2481 21.092 55.8961 22.016 54.0481 22.436C47.2441 24.116 40.3561 25.796 33.4681 27.392C35.9881 35.204 33.3841 43.688 34.4761 51.752C34.8961 55.112 35.9881 58.304 35.7361 61.664C35.5681 64.352 34.5601 66.872 33.4681 69.392C32.3761 71.828 31.2841 74.264 30.1081 76.7C29.5201 77.876 28.9321 79.136 28.0081 80.06C27.0001 80.984 25.572 81.572 24.312 81.068C22.968 80.648 22.2121 79.136 22.1281 77.792C22.0441 76.364 22.548 75.02 23.1361 73.76C24.8161 70.232 27.2521 66.956 28.0921 63.092C29.0161 58.976 27.9241 54.608 26.9161 50.492C25.1521 53.684 25.32 57.968 22.8 60.572C21.6241 61.748 19.944 62.42 18.348 63.008C15.576 64.016 12.72 64.94 9.86405 65.696C8.52005 66.032 7.09205 66.368 5.74805 66.2C4.40405 65.948 2.97605 65.024 2.72405 63.68C2.47205 62.504 3.22805 61.16 4.32005 60.32Z" fill="#25283E"/>
<path d="M24.4801 22.436C20.6161 21.932 17.9281 18.488 18.4321 14.54C18.9361 10.676 22.4641 7.904 26.3281 8.408C30.1921 8.912 33.0481 12.524 32.5441 16.388C31.9561 20.336 28.4281 23.024 24.4801 22.436Z" fill="#25283E"/>
<path d="M5.41209 12.02C2.3041 11.6 0.204097 8.828 0.624096 5.636C0.960095 2.528 3.81609 0.344004 6.84009 0.764004C10.0321 1.1 12.3001 4.04 11.8801 7.148C11.4601 10.256 8.60409 12.44 5.41209 12.02Z" fill="#25283E"/>
</svg>
