<svg width="62" height="84" viewBox="0 0 62 84" fill="none" xmlns="http://www.w3.org/2000/svg">
<path d="M23.1698 34.2722C27.3217 34.2722 30.6864 30.9087 30.6864 26.7555C30.6864 22.6058 27.3217 19.2414 23.1698 19.2414C19.0162 19.2414 15.6557 22.6058 15.6557 26.7555C15.6555 30.9087 19.0162 34.2722 23.1698 34.2722Z" fill="#25283E"/>
<path d="M59.4142 66.1629L44.2459 54.7257C41.8809 52.9426 39.9696 54.2967 37.4005 55.5895C39.7164 55.9802 40.5622 57.2308 41.659 59.0222L46.3531 66.6764L54.4338 72.7697C56.2525 74.14 58.8463 73.7887 60.2274 71.9564C61.6017 70.1326 61.2381 67.5388 59.4142 66.1629Z" fill="#25283E"/>
<path d="M39.3077 60.4636C38.4428 59.0522 36.8232 58.303 35.172 58.5347L20.7925 60.6719L32.2829 56.6724V40.7752L38.9712 32.023C39.3703 31.5012 39.5978 30.8681 39.6224 30.214L39.9711 20.7195C43.1082 19.4948 45.3451 16.4597 45.3451 12.8962C45.3451 8.99471 42.6629 5.73366 39.0528 4.78661V2.0692C39.0528 0.926511 38.1266 0 36.9851 0C35.8434 0 34.9173 0.926511 34.9173 2.0692V4.75277C31.253 5.66143 28.5177 8.95397 28.5177 12.8962C28.5177 16.3617 30.6262 19.3422 33.6273 20.6297L33.3192 28.9732L28.1647 35.7186H18.1754L13.0182 28.9732L12.7117 20.6009C15.6814 19.3001 17.7668 16.3401 17.7668 12.8964C17.7668 8.97451 15.0576 5.69847 11.4216 4.77078V2.0692C11.4216 0.926511 10.4955 0 9.35244 0C8.21093 0 7.28458 0.926511 7.28458 2.0692V4.77061C3.64892 5.6983 0.939423 8.97434 0.939423 12.8962C0.939423 16.48 3.20342 19.5259 6.36784 20.7356L6.71652 30.214C6.74093 30.8693 6.96856 31.5012 7.36624 32.023L14.0601 40.7794V64.4875C14.0601 67.5878 16.9645 69.5972 19.3823 69.2472C24.3012 68.5157 28.7614 67.8535 33.6842 67.1208L42.8247 82.0263C44.025 83.9811 46.5733 84.5788 48.5146 83.3897C50.4614 82.195 51.0729 79.6476 49.8782 77.7011L39.3077 60.4636ZM32.6548 12.8962C32.6548 10.5383 34.5741 8.61892 36.9307 8.61892C39.2887 8.61892 41.208 10.5383 41.208 12.8962C41.208 13.9642 40.8008 14.9301 40.1497 15.6818C40.1931 13.9463 38.8392 12.4928 37.1021 12.4275C35.3816 12.3703 33.879 13.7296 33.8153 15.4813L33.8046 15.7908C33.0961 15.0281 32.6548 14.0159 32.6548 12.8962ZM5.07648 12.8962C5.07648 10.5383 6.99449 8.61892 9.35244 8.61892C11.7104 8.61892 13.6297 10.5383 13.6297 12.8962C13.6297 13.9859 13.2077 14.9722 12.532 15.7283L12.5224 15.4815C12.4584 13.7298 11.0049 12.3718 9.23526 12.4277C7.48628 12.493 6.12 13.9642 6.18264 15.716L6.18382 15.7406C5.50295 14.9831 5.07648 13.9916 5.07648 12.8962Z" fill="#25283E"/>
</svg>
