<svg width="84" height="84" viewBox="0 0 84 84" fill="none" xmlns="http://www.w3.org/2000/svg">
<g clip-path="url(#clip0_691_3904)">
<path d="M34.1698 34.2722C38.3216 34.2722 41.6864 30.9087 41.6864 26.7555C41.6864 22.6058 38.3216 19.2414 34.1698 19.2414C30.0162 19.2414 26.6557 22.6058 26.6557 26.7555C26.6555 30.9087 30.0162 34.2722 34.1698 34.2722Z" fill="#25283E"/>
<path d="M70.4141 66.1629L55.2458 54.7258C52.8808 52.9426 50.9695 54.2968 48.4005 55.5895C50.7163 55.9802 51.5622 57.2309 52.6589 59.0223L57.3531 66.6764L65.4337 72.7697C67.2524 74.1401 69.8462 73.7887 71.2273 71.9564C72.6017 70.1326 72.238 67.5388 70.4141 66.1629Z" fill="#25283E"/>
<path d="M50.3077 60.4636C49.4428 59.0522 47.8231 58.303 46.172 58.5347L31.7925 60.6719L43.2829 56.6724V40.7752L49.9711 32.023C50.3703 31.5012 50.5978 30.8681 50.6224 30.214L50.9711 20.7195C54.1082 19.4948 56.3451 16.4597 56.3451 12.8962C56.3451 8.99471 53.6629 5.73366 50.0528 4.78661V2.0692C50.0528 0.926511 49.1266 0 47.9851 0C46.8434 0 45.9173 0.926511 45.9173 2.0692V4.75277C42.253 5.66143 39.5177 8.95397 39.5177 12.8962C39.5177 16.3617 41.6261 19.3422 44.6272 20.6297L44.3191 28.9732L39.1647 35.7186H29.1754L24.0182 28.9732L23.7116 20.6009C26.6814 19.3001 28.7668 16.3401 28.7668 12.8964C28.7668 8.97451 26.0576 5.69847 22.4216 4.77078V2.0692C22.4216 0.926511 21.4955 0 20.3524 0C19.2109 0 18.2846 0.926511 18.2846 2.0692V4.77061C14.6489 5.6983 11.9394 8.97434 11.9394 12.8962C11.9394 16.48 14.2034 19.5259 17.3678 20.7356L17.7165 30.214C17.7409 30.8693 17.9685 31.5012 18.3662 32.023L25.0601 40.7794V64.4875C25.0601 67.5878 27.9645 69.5972 30.3822 69.2472C35.3012 68.5157 39.7613 67.8535 44.6842 67.1208L53.8247 82.0263C55.0249 83.9811 57.5733 84.5788 59.5146 83.3897C61.4614 82.195 62.0729 79.6476 60.8781 77.7011L50.3077 60.4636ZM43.6548 12.8962C43.6548 10.5383 45.5741 8.61892 47.9307 8.61892C50.2887 8.61892 52.208 10.5383 52.208 12.8962C52.208 13.9642 51.8008 14.9301 51.1497 15.6818C51.1931 13.9463 49.8391 12.4928 48.1021 12.4275C46.3816 12.3703 44.8789 13.7296 44.8153 15.4813L44.8045 15.7908C44.0961 15.0281 43.6548 14.0159 43.6548 12.8962ZM16.0765 12.8962C16.0765 10.5383 17.9945 8.61892 20.3524 8.61892C22.7104 8.61892 24.6297 10.5383 24.6297 12.8962C24.6297 13.9859 24.2076 14.9722 23.532 15.7283L23.5224 15.4815C23.4584 13.7298 22.0049 12.3718 20.2352 12.4277C18.4863 12.493 17.12 13.9642 17.1826 15.716L17.1838 15.7406C16.5029 14.9831 16.0765 13.9916 16.0765 12.8962Z" fill="#25283E"/>
</g>
<defs>
<clipPath id="clip0_691_3904">
<rect width="84" height="84" fill="white"/>
</clipPath>
</defs>
</svg>
