<svg width="56" height="84" viewBox="0 0 56 84" fill="none" xmlns="http://www.w3.org/2000/svg">
<path d="M26.0501 12.6674C22.5976 12.7992 19.9024 15.7043 20.0342 19.1566C20.1615 22.6123 23.0679 25.3075 26.5207 25.1769C29.9746 25.0496 32.6724 22.143 32.5421 18.6904C32.4121 15.2353 29.507 12.5415 26.0501 12.6674Z" fill="#25283E"/>
<path d="M55.0146 29.6446C54.4826 27.7377 52.5072 26.6193 50.6002 27.1539L46.9756 28.1634C43.9249 31.2142 40.1334 34.0004 36.1475 36.6857L39.2908 37.3339C39.8716 37.4529 40.4486 37.4248 40.9779 37.2766L52.524 34.0592C54.4308 33.5283 55.5465 31.5514 55.0146 29.6446Z" fill="#25283E"/>
<path d="M45.4618 62.9242C43.2664 64.1058 41.0893 65.0271 38.9501 65.7593L38.3285 60.2878C38.2658 59.725 38.0907 59.1786 37.8147 58.6848L32.9328 49.9005L32.5281 39.0796C28.0058 42.028 23.6657 44.8799 19.7694 47.9264L19.8799 50.8986C19.4907 51.7946 17.8748 62.5513 17.7208 63.5159L16.51 66.0194C13.7239 64.9105 11.5635 63.4012 10.3107 61.7058C8.50718 59.2669 8.45113 56.4893 10.0277 53.6526C17.8374 39.6322 55.1866 29.9733 50.4826 10.5656C50.0683 8.85608 49.2912 7.35972 48.1906 6.06015C43.7453 0.813218 33.798 -1.08104 18.9336 0.590385C9.63721 1.63504 2.62987 9.4668 2.63263 18.8094L2.63556 24.8621C0.743896 25.9835 0.394295 28.2517 1.41326 29.8562L2.63849 31.7827V33.59C2.63849 34.7775 3.60158 35.739 4.78904 35.739C4.78904 35.739 4.78904 35.739 4.79042 35.739C4.90356 35.739 5.0017 35.6914 5.11087 35.6749L7.62119 39.6257C8.60825 41.1755 10.3273 41.7956 12.7174 40.6966C18.4772 36.075 25.0686 32.0582 30.6968 28.2403C29.6553 28.0247 28.4639 27.9114 27.7343 27.9028C26.6188 27.8483 25.3025 27.8902 24.4147 27.9237C23.8785 27.9435 23.0274 28.0722 21.8442 28.607L11.9935 33.139L7.46442 26.0115C7.32161 25.7873 7.11568 25.6429 6.93648 25.4611L6.93355 18.8067C6.93079 11.6579 12.2957 5.66277 19.4124 4.86337C27.0972 3.99946 39.3182 3.53033 44.2843 8.22484C45.2546 9.14049 45.9756 10.2324 46.3019 11.5796C49.9448 26.6006 15.5354 36.4488 6.63518 50.9729C3.8758 55.4729 3.86873 60.2247 6.85094 64.261C8.60497 66.6368 11.296 68.5718 14.617 69.9339L10.8016 77.8249C9.76846 79.9626 10.6632 82.5345 12.8024 83.5694C14.9447 84.6039 17.5109 83.7106 18.5469 81.5685L23.1883 71.9712C25.7769 72.2188 28.0534 72.2147 30.9909 71.8984L31.9331 80.1824C32.206 82.582 34.3845 84.2439 36.6918 83.9695C39.0526 83.7022 40.748 81.5713 40.4791 79.2108L39.4458 70.1228C42.1257 69.2744 44.8274 68.149 47.4988 66.7125C48.5461 66.1496 48.9381 64.8462 48.3752 63.799C47.8114 62.7546 46.5094 62.3681 45.4618 62.9242ZM25.2029 67.8046C25.6032 66.9761 25.987 66.3122 26.117 65.4947L27.373 57.6024L29.8792 62.112L30.5078 67.6492C28.6637 67.8453 26.8902 67.8886 25.2029 67.8046Z" fill="#25283E"/>
</svg>
