<svg width="84" height="84" viewBox="0 0 84 84" fill="none" xmlns="http://www.w3.org/2000/svg">
<g clip-path="url(#clip0_691_3897)">
<path d="M40.0501 12.6674C36.5976 12.7991 33.9024 15.7042 34.0342 19.1566C34.1614 22.6122 37.0679 25.3074 40.5206 25.1769C43.9745 25.0496 46.6723 22.1429 46.5421 18.6904C46.4121 15.2353 43.507 12.5415 40.0501 12.6674Z" fill="#25283E"/>
<path d="M69.0146 29.6446C68.4826 27.7377 66.5072 26.6193 64.6002 27.1539L60.9756 28.1634C57.9249 31.2142 54.1335 34.0004 50.1475 36.6857L53.2908 37.3339C53.8716 37.4529 54.4486 37.4248 54.9779 37.2766L66.524 34.0592C68.4308 33.5283 69.5465 31.5514 69.0146 29.6446Z" fill="#25283E"/>
<path d="M59.4618 62.9242C57.2664 64.1058 55.0893 65.0271 52.9501 65.7593L52.3285 60.2878C52.2658 59.725 52.0907 59.1786 51.8147 58.6848L46.9328 49.9005L46.5282 39.0796C42.0058 42.028 37.6657 44.8799 33.7694 47.9264L33.88 50.8986C33.4907 51.7946 31.8748 62.5513 31.7208 63.5159L30.51 66.0194C27.7239 64.9105 25.5636 63.4012 24.3107 61.7058C22.5072 59.2669 22.4511 56.4893 24.0277 53.6526C31.8374 39.6322 69.1866 29.9733 64.4826 10.5656C64.0683 8.85608 63.2912 7.35972 62.1906 6.06015C57.7453 0.813218 47.7981 -1.08104 32.9336 0.590385C23.6372 1.63504 16.6299 9.4668 16.6326 18.8094L16.6356 24.8621C14.7439 25.9835 14.3943 28.2517 15.4133 29.8562L16.6385 31.7827V33.5901C16.6385 34.7775 17.6016 35.739 18.789 35.739C18.789 35.739 18.789 35.739 18.7904 35.739C18.9036 35.739 19.0017 35.6914 19.1109 35.6749L21.6212 39.6257C22.6083 41.1755 24.3273 41.7956 26.7174 40.6966C32.4772 36.075 39.0686 32.0582 44.6968 28.2403C43.6553 28.0247 42.4639 27.9114 41.7343 27.9028C40.6188 27.8483 39.3025 27.8902 38.4147 27.9237C37.8785 27.9435 37.0274 28.0722 35.8442 28.607L25.9935 33.139L21.4644 26.0115C21.3216 25.7873 21.1157 25.6429 20.9365 25.4611L20.9336 18.8067C20.9308 11.6579 26.2957 5.66277 33.4124 4.86337C41.0972 3.99946 53.3182 3.53033 58.2843 8.22484C59.2546 9.14049 59.9756 10.2324 60.3019 11.5796C63.9448 26.6006 29.5354 36.4488 20.6352 50.9729C17.8758 55.4729 17.8687 60.2247 20.8509 64.261C22.605 66.6368 25.296 68.5718 28.617 69.9339L24.8016 77.8249C23.7685 79.9626 24.6632 82.5345 26.8024 83.5694C28.9447 84.6039 31.5109 83.7106 32.5469 81.5685L37.1883 71.9712C39.7769 72.2188 42.0534 72.2147 44.9909 71.8984L45.9331 80.1824C46.206 82.582 48.3845 84.2439 50.6918 83.9695C53.0526 83.7022 54.748 81.5713 54.4791 79.2108L53.4458 70.1228C56.1257 69.2744 58.8274 68.149 61.4988 66.7125C62.5461 66.1496 62.9381 64.8462 62.3752 63.799C61.8114 62.7546 60.5094 62.3681 59.4618 62.9242ZM39.2029 67.8046C39.6032 66.9761 39.987 66.3122 40.117 65.4947L41.373 57.6024L43.8792 62.112L44.5078 67.6492C42.6638 67.8453 40.8902 67.8886 39.2029 67.8046Z" fill="#25283E"/>
</g>
<defs>
<clipPath id="clip0_691_3897">
<rect width="84" height="84" fill="white"/>
</clipPath>
</defs>
</svg>
