<svg width="84" height="84" viewBox="0 0 84 84" fill="none" xmlns="http://www.w3.org/2000/svg">
<path d="M80.8763 8.49945C79.6432 6.64323 77.1456 6.14349 75.2955 7.37333L64.8933 14.2828C63.5375 14.4338 52.323 15.5157 51.181 16.1071C49.6083 16.3511 46.6953 17.422 45.0834 18.9224L35.9607 27.3484L23.7586 18.6078C23.4457 18.383 23.0934 18.2774 22.7476 18.1535C21.59 15.6008 19.0308 13.8138 16.0503 13.8138C15.0562 13.8138 14.1092 14.0167 13.2428 14.3753C12.0959 12.9487 10.6038 12.0554 8.95069 12.0554C5.35971 12.0554 2.45 16.1416 2.45 21.1842C2.45156 26.2234 5.36282 30.3097 8.95224 30.3097C10.6048 30.3097 12.0959 29.4167 13.2443 27.9899C14.1092 28.3483 15.0562 28.5511 16.0503 28.5511C17.9816 28.5511 19.7278 27.7886 21.0425 26.5679L33.9381 35.8048C35.4935 36.9201 37.6152 36.7834 39.0153 35.4904L45.5928 29.4165L50.7216 43.3799L48.7839 60.209L41.0299 77.1566C39.9209 79.5835 40.9875 82.4508 43.4144 83.5608C45.8442 84.6699 48.707 83.605 49.8188 81.1766L57.8904 63.5328C58.1015 63.0717 58.238 62.5796 58.2965 62.0745L59.77 49.2811L65.8348 58.4097L65.8051 79.0063C65.8018 81.6737 67.9614 83.8409 70.6321 83.844C70.6321 83.844 70.6352 83.844 70.6368 83.844C73.3028 83.844 75.4653 81.6846 75.4686 79.0189L75.5 56.961C75.5016 56.0082 75.2201 55.0755 74.693 54.2812L65.0469 39.7625L58.9129 23.0525L66.755 22.1766C67.392 22.1056 68.0023 21.8841 68.5353 21.5284L79.75 14.0795C81.603 12.8497 82.1079 10.3507 80.8763 8.49945ZM14.8094 25.0787C15.2088 23.8942 15.451 22.5842 15.451 21.1843C15.451 19.7845 15.2088 18.4727 14.8077 17.2867C15.206 17.1596 15.6098 17.0351 16.0505 17.0351C17.3261 17.0351 18.427 17.6486 19.1883 18.559C18.7982 18.8204 18.4299 19.1304 18.1409 19.536C17.0336 21.0836 17.2427 23.1049 18.4398 24.4792C17.7554 24.9763 16.9594 25.3304 16.0505 25.3304C15.61 25.3303 15.2075 25.2059 14.8094 25.0787Z" fill="#25283E"/>
<path d="M48.8847 13.6328C52.5309 12.2928 54.4023 8.2539 53.0621 4.60822C51.7221 0.962374 47.6832 -0.906106 44.0344 0.433823C40.3915 1.7741 38.5228 5.81304 39.8629 9.45578C41.2001 13.1046 45.2423 14.9732 48.8847 13.6328Z" fill="#25283E"/>
</svg>
