<svg width="80" height="84" viewBox="0 0 80 84" fill="none" xmlns="http://www.w3.org/2000/svg">
<path d="M78.8763 8.49939C77.6432 6.64316 75.1456 6.14343 73.2956 7.37327L62.8933 14.2827C61.5375 14.4337 50.323 15.5157 49.181 16.107C47.6083 16.351 44.6953 17.422 43.0834 18.9224L33.9607 27.3483L21.7586 18.6078C21.4457 18.3829 21.0934 18.2773 20.7476 18.1534C19.59 15.6008 17.0308 13.8137 14.0503 13.8137C13.0562 13.8137 12.1092 14.0167 11.2428 14.3752C10.0959 12.9487 8.60382 12.0553 6.95069 12.0553C3.35972 12.0553 0.450012 16.1416 0.450012 21.1841C0.451565 26.2234 3.36283 30.3096 6.95225 30.3096C8.60486 30.3096 10.0959 29.4166 11.2443 27.9899C12.1092 28.3483 13.0562 28.551 14.0503 28.551C15.9816 28.551 17.7278 27.7885 19.0425 26.5678L31.9381 35.8048C33.4935 36.92 35.6152 36.7834 37.0153 35.4904L43.5928 29.4164L48.7216 43.3798L46.7839 60.2089L39.03 77.1566C37.9209 79.5834 38.9875 82.4507 41.4144 83.5608C43.8442 84.6698 46.707 83.6049 47.8188 81.1765L55.8905 63.5328C56.1015 63.0717 56.238 62.5795 56.2965 62.0745L57.77 49.281L63.8348 58.4096L63.8051 79.0062C63.8018 81.6737 65.9614 83.8408 68.6321 83.8439C68.6321 83.8439 68.6352 83.8439 68.6368 83.8439C71.3028 83.8439 73.4653 81.6845 73.4686 79.0188L73.5 56.961C73.5016 56.0081 73.2201 55.0754 72.693 54.2811L63.0469 39.7624L56.9129 23.0524L64.755 22.1765C65.392 22.1056 66.0023 21.884 66.5353 21.5284L77.75 14.0795C79.603 12.8496 80.1079 10.3506 78.8763 8.49939ZM12.8095 25.0786C13.2088 23.8942 13.451 22.5841 13.451 21.1843C13.451 19.7845 13.2088 18.4727 12.8077 17.2867C13.206 17.1595 13.6098 17.0351 14.0505 17.0351C15.3261 17.0351 16.427 17.6485 17.1883 18.559C16.7982 18.8204 16.4299 19.1303 16.1409 19.536C15.0336 21.0835 15.2427 23.1049 16.4398 24.4791C15.7554 24.9763 14.9594 25.3304 14.0505 25.3304C13.61 25.3302 13.2076 25.2058 12.8095 25.0786Z" fill="#25283E"/>
<path d="M46.8847 13.6327C50.5309 12.2928 52.4023 8.25387 51.062 4.60819C49.7221 0.962344 45.6832 -0.906136 42.0344 0.433792C38.3915 1.77407 36.5228 5.81301 37.8629 9.45575C39.2001 13.1045 43.2423 14.9732 46.8847 13.6327Z" fill="#25283E"/>
</svg>
