<svg width="46" height="84" viewBox="0 0 46 84" fill="none" xmlns="http://www.w3.org/2000/svg">
<path d="M33.2619 25.4901C32.1012 25.0657 29.7664 24.0914 28.5126 24.1815L17.363 25.1162L10.9688 17.5563C9.96559 16.3725 8.19757 16.2275 7.0136 17.2264C5.83115 18.2283 5.68337 19.9965 6.68371 21.1816L14.0126 29.8448C14.549 30.4784 15.332 30.8386 16.1543 30.8386C16.4529 30.8386 28.3282 29.8655 29.2477 29.6969C28.6058 29.949 17.2713 33.1664 16.6005 33.3595C15.6482 33.6316 14.6917 33.4825 13.8675 33.0734L16.5924 36.4896C17.1398 37.178 17.9539 37.5488 18.7876 37.5488C19.3816 37.5488 19.7646 37.3927 20.2424 37.1463L17.7886 43.8154C17.3369 45.0459 15.4155 61.9411 15.4155 61.9411L11.8422 79.8448C11.4135 81.9882 13.0491 84 15.2514 84C16.8745 84 18.3237 82.8569 18.6535 81.2053L22.261 63.1083L23.4025 55.0803L27.3097 63.319L26.4627 80.3541C26.3642 82.3167 27.9255 83.9986 29.9335 83.9986C31.7741 83.9986 33.3084 82.5546 33.4014 80.6975L34.2908 62.7921C34.3197 62.2215 34.2063 61.6494 33.9611 61.1324L29.6307 51.9969L36.6682 32.8611C37.7644 29.8844 36.2386 26.5848 33.2619 25.4901Z" fill="#25283E"/>
<path d="M1.43683 22.5954C0.502093 23.1881 0.224108 24.4253 0.815418 25.3614C1.19875 25.9635 1.84856 26.2934 2.51123 26.2934C2.87917 26.2934 3.25016 26.1918 3.58276 25.9825L6.08327 24.3977L3.4693 21.3074L1.43683 22.5954Z" fill="#25283E"/>
<path d="M44.4582 3.45027L38.6569 0.246344C38.0176 -0.10249 37.2347 -0.0793248 36.6146 0.306709L12.5823 15.5335L15.1962 18.625L37.7589 4.32887L42.5218 6.95924C43.4907 7.49712 44.7114 7.1427 45.245 6.17246C45.7804 5.20476 45.4286 3.98545 44.4582 3.45027Z" fill="#25283E"/>
<path d="M37.3376 10.9474C33.8763 9.67599 30.0456 11.447 28.7757 14.9039C27.5043 18.361 29.2752 22.1917 32.7308 23.4645C36.1878 24.7359 40.0199 22.9664 41.2928 19.5079C42.5654 16.0521 40.7947 12.2189 37.3376 10.9474Z" fill="#25283E"/>
</svg>
