<svg width="84" height="84" viewBox="0 0 84 84" fill="none" xmlns="http://www.w3.org/2000/svg">
<g clip-path="url(#clip0_691_3889)">
<path d="M52.2618 25.4901C51.1012 25.0657 48.7664 24.0914 47.5126 24.1815L36.3629 25.1162L29.9688 17.5564C28.9656 16.3726 27.1975 16.2275 26.0136 17.2265C24.8311 18.2283 24.6833 19.9965 25.6837 21.1817L33.0126 29.8448C33.5489 30.4784 34.332 30.8386 35.1543 30.8386C35.4529 30.8386 47.3281 29.8655 48.2476 29.6969C47.6058 29.949 36.2713 33.1665 35.6005 33.3596C34.6482 33.6316 33.6916 33.4825 32.8675 33.0735L35.5924 36.4896C36.1397 37.178 36.9539 37.5488 37.7875 37.5488C38.3815 37.5488 38.7645 37.3927 39.2424 37.1464L36.7885 43.8155C36.3369 45.0459 34.4155 61.9411 34.4155 61.9411L30.8421 79.8448C30.4135 81.9882 32.0491 84 34.2513 84C35.8744 84 37.3237 82.857 37.6534 81.2053L41.261 63.1084L42.4025 55.0803L46.3097 63.319L45.4627 80.3541C45.3641 82.3167 46.9255 83.9987 48.9335 83.9987C50.774 83.9987 52.3083 82.5546 52.4013 80.6975L53.2908 62.7922C53.3197 62.2215 53.2062 61.6494 52.961 61.1324L48.6306 51.9969L55.6682 32.8611C56.7644 29.8844 55.2385 26.5848 52.2618 25.4901Z" fill="#25283E"/>
<path d="M20.4368 22.5954C19.5021 23.1881 19.2241 24.4253 19.8154 25.3614C20.1987 25.9635 20.8485 26.2934 21.5112 26.2934C21.8791 26.2934 22.2501 26.1918 22.5827 25.9825L25.0832 24.3978L22.4693 21.3075L20.4368 22.5954Z" fill="#25283E"/>
<path d="M63.4582 3.4503L57.6569 0.246374C57.0175 -0.10246 56.2347 -0.0792943 55.6146 0.30674L31.5822 15.5335L34.1962 18.625L56.7588 4.3289L61.5218 6.95927C62.4907 7.49715 63.7113 7.14274 64.245 6.17249C64.7803 5.20479 64.4286 3.98548 63.4582 3.4503Z" fill="#25283E"/>
<path d="M56.3376 10.9474C52.8763 9.67605 49.0456 11.4471 47.7757 14.904C46.5043 18.3611 48.2752 22.1918 51.7307 23.4646C55.1878 24.7359 59.0199 22.9664 60.2928 19.508C61.5654 16.0521 59.7947 12.219 56.3376 10.9474Z" fill="#25283E"/>
</g>
<defs>
<clipPath id="clip0_691_3889">
<rect width="84" height="84" fill="white"/>
</clipPath>
</defs>
</svg>
