<svg width="84" height="78" viewBox="0 0 84 78" fill="none" xmlns="http://www.w3.org/2000/svg">
<path d="M78.7823 20.4564C82.7939 18.4878 84.4523 13.6422 82.4838 9.63222C80.5201 5.6189 75.673 3.96208 71.6612 5.92898C67.6512 7.89437 65.9941 12.7403 67.9596 16.7503C69.9252 20.7619 74.7706 22.4203 78.7823 20.4564Z" fill="#25283E"/>
<path d="M56.8317 30.8833C56.1861 34.0295 56.4693 36.8463 59.604 37.7089C59.604 37.7089 74.024 41.6696 74.03 41.6713L74.0382 41.673C76.3803 42.3141 78.7777 40.9356 79.4153 38.6124C80.0532 36.286 78.6891 33.8807 76.3627 33.2383C76.3598 33.2366 76.3581 33.2366 76.3549 33.2349L69.001 31.2154L66.0939 29.2754C66.9739 24.9948 66.6606 26.5141 67.4439 22.7078C67.8568 20.703 66.3201 18.1395 65.4198 16.3006C63.7249 12.8461 59.5534 11.4185 56.1005 13.1118L51.271 15.4795L58.9743 20.624C58.7972 21.2349 58.3794 23.349 58.2403 24.0297L24.2194 1.31629C22.7352 0.319054 20.7205 0.721164 19.7253 2.2117C18.7313 3.69918 19.1319 5.71228 20.6207 6.70596L56.8317 30.8833Z" fill="#25283E"/>
<path d="M83.5394 68.8809C82.6232 67.346 80.637 66.8475 79.094 67.7654L74.6316 70.435L45.1117 60.2755L59.0313 48.549C61.6771 46.3226 61.5411 42.1841 58.7354 40.1382L50.9465 34.4616L53.7428 33.0913L54.0656 32.9328L37.8086 22.0786L37.8054 22.0801C35.0913 23.4109 33.3647 25.9337 32.912 28.7058C32.3504 32.1274 33.7809 35.1041 37.0154 37.5426L46.9237 44.7635L33.4329 56.2557L4.29724 46.2275C2.60083 45.6403 0.758769 46.5422 0.177849 48.2357C-0.406116 49.9291 0.494361 51.7726 2.18603 52.3564L73.9459 77.0545C74.2895 77.1733 74.6473 77.2318 75.0017 77.2318C75.5809 77.2318 76.1569 77.0767 76.6666 76.7712L82.4237 73.3261C83.9588 72.4082 84.4588 70.4174 83.5394 68.8809Z" fill="#25283E"/>
</svg>
