<svg width="84" height="84" viewBox="0 0 84 84" fill="none" xmlns="http://www.w3.org/2000/svg">
<g clip-path="url(#clip0_691_3911)">
<path d="M78.7822 23.4564C82.7938 21.4878 84.4522 16.6422 82.4838 12.6322C80.5201 8.6189 75.6729 6.96208 71.6611 8.92899C67.6512 10.8944 65.994 15.7403 67.9596 19.7503C69.9251 23.7619 74.7706 25.4203 78.7822 23.4564Z" fill="#25283E"/>
<path d="M56.8316 33.8833C56.186 37.0295 56.4692 39.8463 59.6039 40.7089C59.6039 40.7089 74.0239 44.6696 74.03 44.6713L74.0381 44.673C76.3802 45.3141 78.7776 43.9356 79.4152 41.6124C80.0531 39.286 78.689 36.8807 76.3626 36.2383C76.3597 36.2366 76.358 36.2366 76.3548 36.2349L69.0009 34.2154L66.0938 32.2754C66.9738 27.9948 66.6605 29.5141 67.4438 25.7078C67.8567 23.703 66.32 21.1395 65.4197 19.3006C63.7248 15.8461 59.5533 14.4185 56.1004 16.1118L51.2709 18.4795L58.9742 23.624C58.7971 24.2349 58.3793 26.349 58.2402 27.0297L24.2193 4.31629C22.7351 3.31905 20.7204 3.72116 19.7252 5.2117C18.7312 6.69918 19.1318 8.71227 20.6206 9.70596L56.8316 33.8833Z" fill="#25283E"/>
<path d="M83.5393 71.8808C82.6231 70.346 80.6369 69.8475 79.094 70.7654L74.6315 73.435L45.1117 63.2755L59.0312 51.549C61.677 49.3226 61.541 45.184 58.7354 43.1381L50.9464 37.4616L53.7427 36.0913L54.0655 35.9328L37.8085 25.0785L37.8053 25.08C35.0912 26.4109 33.3647 28.9337 32.912 31.7058C32.3503 35.1274 33.7808 38.1041 37.0153 40.5426L46.9236 47.7635L33.4329 59.2557L4.29718 49.2275C2.60077 48.6403 0.758708 49.5421 0.177788 51.2357C-0.406177 52.929 0.4943 54.7726 2.18597 55.3564L73.9459 80.0545C74.2894 80.1732 74.6472 80.2318 75.0016 80.2318C75.5809 80.2318 76.1569 80.0766 76.6666 79.7711L82.4237 76.326C83.9587 75.4081 84.4588 73.4174 83.5393 71.8808Z" fill="#25283E"/>
</g>
<defs>
<clipPath id="clip0_691_3911">
<rect width="84" height="84" fill="white"/>
</clipPath>
</defs>
</svg>
