<svg width="85" height="84" viewBox="0 0 85 84" fill="none" xmlns="http://www.w3.org/2000/svg">
<g clip-path="url(#clip0_691_3879)">
<path d="M47.5163 25.1597C52.432 25.1597 55.8718 20.2412 54.1488 15.6112C53.0882 12.761 50.3868 10.9998 47.5144 11C42.5986 11.0002 39.1589 15.9186 40.8818 20.5485C41.9426 23.3987 44.6438 25.1597 47.5163 25.1597Z" fill="#25283E"/>
<path d="M13.6682 61.9067C15.2019 61.073 17.2624 60.3176 20.1651 60.3176C24.5012 60.3176 26.9597 62.0026 28.5864 63.1179C29.8063 63.9538 30.3113 64.3001 31.7855 64.3001C33.2594 64.3001 33.7643 63.9538 34.9841 63.1179C36.5046 62.0756 38.7521 60.5358 42.5799 60.339L31.693 52.4796H31.4752L31.5733 52.3932L27.1325 49.1874L26.2041 49.6979C24.7436 50.501 23.1008 50.6504 21.6098 50.2467L20.2551 51.4398C19.9076 51.746 19.6281 52.0992 19.4101 52.4798H9.9255C7.69802 52.4798 6.35586 54.9779 7.61482 56.8155C8.88834 58.6742 10.961 60.3938 13.6682 61.9067V61.9067Z" fill="#25283E"/>
<path d="M74.3047 75.932L65.5926 69.6426C64.8315 69.7913 64.3228 70.1377 63.4477 70.7375C63.1166 70.9644 62.7502 71.2151 62.3414 71.4702L72.3234 78.6764C73.0828 79.2248 74.1404 79.051 74.6863 78.2949C75.2335 77.537 75.0626 76.479 74.3047 75.932V75.932Z" fill="#25283E"/>
<path d="M29.5971 47.8319L47.846 61.0059C49.6091 61.5977 50.8639 62.4575 51.8271 63.1176C53.047 63.9536 53.552 64.2998 55.0262 64.2998C56.0981 64.2998 56.6584 64.1157 57.3529 63.6942L32.8797 46.0269L29.5971 47.8319Z" fill="#25283E"/>
<path d="M89.8897 63.0119C86.3881 63.0119 84.5046 64.3029 82.9911 65.3402C81.6427 66.2643 80.5776 66.9944 78.2684 66.9944C75.9592 66.9944 74.8941 66.2645 73.5457 65.3402C72.0322 64.3029 70.1485 63.0119 66.6471 63.0119C63.1457 63.0119 61.2622 64.3029 59.7487 65.3402C58.4003 66.2643 57.3353 66.9944 55.0262 66.9944C52.7172 66.9944 51.6522 66.2645 50.3038 65.3404C48.7905 64.3031 46.9068 63.0121 43.4056 63.0121C39.9044 63.0121 38.0209 64.3031 36.5076 65.3404C35.1594 66.2645 34.0944 66.9944 31.7856 66.9944C29.4767 66.9944 28.4117 66.2645 27.0633 65.3404C25.55 64.3031 23.6665 63.0121 20.1651 63.0121C16.6637 63.0121 14.7802 64.3031 13.2667 65.3404C11.9183 66.2645 10.8533 66.9944 8.54435 66.9944C6.23556 66.9944 5.1706 66.2645 3.82239 65.3404C2.30891 64.3031 0.425569 63.0121 -3.07563 63.0121C-4.13832 63.0119 -5 63.8734 -5 64.9363C-5 65.9992 -4.13832 66.8609 -3.07544 66.8609C-0.766645 66.8609 0.298123 67.5908 1.64653 68.5151C3.16 69.5524 5.04334 70.8433 8.54473 70.8433C12.0461 70.8433 13.9296 69.5524 15.4429 68.5151C16.7913 67.5908 17.8563 66.8609 20.1653 66.8609C22.4741 66.8609 23.539 67.5908 24.8874 68.5151C26.4009 69.5524 28.2844 70.8433 31.7858 70.8433C35.287 70.8433 37.1705 69.5524 38.6838 68.5151C40.0321 67.591 41.097 66.8609 43.4058 66.8609C45.7148 66.8609 46.7797 67.5908 48.1281 68.5151C49.6416 69.5524 51.5252 70.8433 55.0264 70.8433C58.5277 70.8433 60.4113 69.5524 61.9247 68.5151C63.2731 67.5908 64.3381 66.8609 66.6473 66.8609C68.9564 66.8609 70.0214 67.5908 71.37 68.5151C72.8835 69.5522 74.7672 70.8433 78.2688 70.8433C81.7703 70.8433 83.6541 69.5524 85.1675 68.5151C86.5159 67.5908 87.5811 66.8609 89.8903 66.8609C90.9531 66.8609 91.8148 65.9992 91.8148 64.9363C91.8148 63.8734 90.9526 63.0119 89.8897 63.0119V63.0119Z" fill="#25283E"/>
<path d="M25.1011 47.1859L53.2296 34.8368L46.5418 38.9625L48.8287 45.1076L42.7954 40.8196L35.3443 44.6717L59.6292 62.2031C61.2094 61.261 63.4025 60.3176 66.6471 60.3176C70.1859 60.3176 72.4739 61.4399 74.0802 62.4587C77.2964 60.8174 79.7367 58.9042 81.1679 56.8153C82.4268 54.9777 81.0847 52.4797 78.8572 52.4797H67.5615C68.7053 50.133 68.9562 47.3268 67.9406 44.5976L62.2184 29.3484C60.943 25.9499 57.3932 24.1838 54.0629 24.922C52.3282 25.3068 48.5874 27.7608 48.5874 27.7608C47.9778 28.1227 47.4408 28.5648 46.982 29.0661L50.4836 28.583L22.3559 40.9317C20.6287 41.69 19.8434 43.7045 20.6017 45.4315C21.3558 47.1503 23.3658 47.9477 25.1011 47.1859V47.1859Z" fill="#25283E"/>
</g>
<defs>
<clipPath id="clip0_691_3879">
<rect width="84" height="84" fill="white" transform="translate(0.5)"/>
</clipPath>
</defs>
</svg>
