<svg width="85" height="68" viewBox="0 0 85 68" fill="none" xmlns="http://www.w3.org/2000/svg">
<path d="M47.5162 14.1597C52.432 14.1597 55.8717 9.24122 54.1487 4.61116C53.0881 1.761 50.3868 -0.000189075 47.5143 1.52248e-08C42.5985 0.000189106 39.1588 4.91862 40.8818 9.5485C41.9426 12.3987 44.6437 14.1597 47.5162 14.1597Z" fill="#25283E"/>
<path d="M13.6682 50.9067C15.2019 50.073 17.2624 49.3176 20.1651 49.3176C24.5012 49.3176 26.9597 51.0026 28.5864 52.1179C29.8063 52.9538 30.3113 53.3 31.7855 53.3C33.2594 53.3 33.7643 52.9538 34.9841 52.1179C36.5046 51.0756 38.7521 49.5358 42.5799 49.339L31.693 41.4796H31.4752L31.5733 41.3932L27.1325 38.1874L26.2041 38.6979C24.7436 39.501 23.1008 39.6504 21.6098 39.2467L20.2551 40.4398C19.9076 40.746 19.6281 41.0992 19.4101 41.4798H9.9255C7.69802 41.4798 6.35586 43.9779 7.61482 45.8155C8.88834 47.6742 10.961 49.3938 13.6682 50.9067Z" fill="#25283E"/>
<path d="M74.3047 64.932L65.5925 58.6426C64.8314 58.7913 64.3228 59.1377 63.4477 59.7375C63.1166 59.9644 62.7501 60.2151 62.3413 60.4702L72.3234 67.6764C73.0828 68.2248 74.1403 68.051 74.6862 67.2949C75.2335 66.537 75.0625 65.479 74.3047 64.932Z" fill="#25283E"/>
<path d="M29.5972 36.8319L47.8461 50.0058C49.6092 50.5977 50.864 51.4575 51.8272 52.1176C53.047 52.9536 53.5521 53.2998 55.0262 53.2998C56.0982 53.2998 56.6585 53.1156 57.353 52.6941L32.8798 35.0269L29.5972 36.8319Z" fill="#25283E"/>
<path d="M89.8897 52.012C86.3881 52.012 84.5046 53.3029 82.9911 54.3402C81.6427 55.2643 80.5776 55.9944 78.2684 55.9944C75.9592 55.9944 74.8941 55.2645 73.5457 54.3402C72.0322 53.3029 70.1485 52.012 66.6471 52.012C63.1457 52.012 61.2622 53.3029 59.7487 54.3402C58.4003 55.2643 57.3353 55.9944 55.0262 55.9944C52.7172 55.9944 51.6522 55.2645 50.3038 54.3404C48.7905 53.3031 46.9068 52.0122 43.4056 52.0122C39.9044 52.0122 38.0209 53.3031 36.5076 54.3404C35.1594 55.2645 34.0944 55.9944 31.7856 55.9944C29.4767 55.9944 28.4117 55.2645 27.0633 54.3404C25.55 53.3031 23.6665 52.0122 20.1651 52.0122C16.6637 52.0122 14.7802 53.3031 13.2667 54.3404C11.9183 55.2645 10.8533 55.9944 8.54435 55.9944C6.23556 55.9944 5.1706 55.2645 3.82239 54.3404C2.30891 53.3031 0.42557 52.0122 -3.07563 52.0122C-4.13832 52.012 -5 52.8735 -5 53.9363C-5 54.9992 -4.13832 55.8609 -3.07544 55.8609C-0.766645 55.8609 0.298122 56.5908 1.64653 57.5151C3.16 58.5524 5.04334 59.8434 8.54473 59.8434C12.0461 59.8434 13.9296 58.5524 15.4429 57.5151C16.7913 56.5908 17.8563 55.8609 20.1653 55.8609C22.4741 55.8609 23.539 56.5908 24.8874 57.5151C26.4009 58.5524 28.2844 59.8434 31.7858 59.8434C35.287 59.8434 37.1705 58.5524 38.6838 57.5151C40.0321 56.591 41.097 55.8609 43.4058 55.8609C45.7148 55.8609 46.7797 56.5908 48.1281 57.5151C49.6416 58.5524 51.5252 59.8434 55.0264 59.8434C58.5277 59.8434 60.4113 58.5524 61.9247 57.5151C63.2731 56.5908 64.3381 55.8609 66.6473 55.8609C68.9564 55.8609 70.0214 56.5908 71.37 57.5151C72.8835 58.5522 74.7672 59.8434 78.2688 59.8434C81.7703 59.8434 83.6541 58.5524 85.1675 57.5151C86.5159 56.5908 87.5811 55.8609 89.8903 55.8609C90.9531 55.8609 91.8148 54.9992 91.8148 53.9363C91.8148 52.8735 90.9526 52.012 89.8897 52.012Z" fill="#25283E"/>
<path d="M25.1011 36.1859L53.2297 23.8368L46.5419 27.9626L48.8288 34.1076L42.7955 29.8196L35.3444 33.6718L59.6292 51.2031C61.2095 50.261 63.4025 49.3177 66.6471 49.3177C70.186 49.3177 72.4739 50.4399 74.0803 51.4587C77.2965 49.8174 79.7367 47.9042 81.1679 45.8153C82.4269 43.9778 81.0847 41.4797 78.8573 41.4797H67.5616C68.7054 39.1331 68.9563 36.3268 67.9407 33.5976L62.2184 18.3484C60.943 14.9499 57.3932 13.1838 54.063 13.922C52.3283 14.3068 48.5875 16.7608 48.5875 16.7608C47.9779 17.1228 47.4408 17.5649 46.9821 18.0661L50.4837 17.583L22.3559 29.9317C20.6288 30.69 19.8435 32.7046 20.6017 34.4315C21.3558 36.1504 23.3659 36.9477 25.1011 36.1859Z" fill="#25283E"/>
</svg>
