<svg width="84" height="84" viewBox="0 0 84 84" fill="none" xmlns="http://www.w3.org/2000/svg">
<g clip-path="url(#clip0_691_3870)">
<path d="M8.22846 29.6463C12.2722 29.6463 15.5509 26.3705 15.5509 22.3238C15.5509 18.2799 12.272 15 8.22846 15C4.18454 15 0.902893 18.2799 0.902893 22.3238C0.902893 26.3707 4.18454 29.6463 8.22846 29.6463Z" fill="#25283E"/>
<path d="M24.7288 59.7515L31.8251 65.3205C33.6286 66.7394 36.2354 66.405 37.6393 64.6197C39.0516 62.8196 38.738 60.2151 36.9375 58.8031L28.2079 51.9511L24.7288 59.7515Z" fill="#25283E"/>
<path d="M52.5517 29.6463C56.5958 29.6463 59.874 26.3705 59.874 22.3238C59.874 18.2799 56.5956 15 52.5517 15C48.505 15 45.2265 18.2799 45.2265 22.3238C45.2265 26.3707 48.505 29.6463 52.5517 29.6463Z" fill="#25283E"/>
<path d="M69.0521 59.7515L76.149 65.3205C77.9546 66.7394 80.559 66.405 81.9629 64.6197C83.3752 62.8196 83.0613 60.2151 81.2583 58.8031L72.5316 51.9511L69.0521 59.7515Z" fill="#25283E"/>
<path d="M83.1906 70.9831C82.1115 69.9042 80.3637 69.9052 79.2875 70.9818C78.0073 72.2604 75.7858 72.2592 74.5081 70.9831C71.9727 68.4451 68.0091 67.8269 64.7742 69.1208C63.7357 69.5348 62.6801 70.1445 61.8626 70.9563L76.5593 37.8268L76.6609 37.8143C78.5521 37.558 79.8737 35.8196 79.6205 33.9312C79.3645 32.0429 77.6244 30.7147 75.7361 30.9706L72.6942 31.3807L58.2942 33.3217C57.1134 32.1516 55.522 31.4896 53.8596 31.4896H51.2388C47.7563 31.4896 44.9323 34.3141 44.9323 37.7965V56.6506C44.9323 58.9532 46.0743 61.1032 47.9795 62.3959C49.8815 63.6898 52.3011 63.9525 54.4402 63.1035L59.3567 61.1474L59.3682 61.1283L64.0369 50.6564L60.0092 52.099L60.1417 40.0388C70.9217 38.5852 68.6147 38.8976 71.7366 38.4765L57.9695 69.3235L57.2072 71.0318C57.1851 71.0108 57.1577 71.0057 57.1383 70.985C53.67 67.515 48.0236 67.5121 44.5383 70.9902C43.2805 72.2512 41.0425 72.254 39.7708 70.985C36.4095 67.6224 30.6531 67.5136 27.0717 71.0936C25.8523 72.3105 23.727 72.312 22.513 71.095C21.8634 70.4799 21.3265 70.0519 20.2007 69.5164C19.5922 69.2302 18.9593 69.0056 18.3066 68.8638L32.2308 37.8287L32.3382 37.8148C34.2264 37.5585 35.5506 35.8201 35.2974 33.9318C35.0413 32.0434 33.3096 30.7152 31.4157 30.9712L28.3713 31.3812L13.9432 33.3259C12.7622 32.153 11.1712 31.4896 9.50588 31.4896H6.88209C3.40009 31.4896 0.578197 34.3141 0.578197 37.7965V56.6506C0.578197 58.9532 1.71797 61.1032 3.62295 62.3959C5.525 63.6898 7.9448 63.9525 10.0839 63.1035L15.0444 61.1311L15.0473 61.1283L19.7133 50.6564L15.6527 52.1111L15.7847 40.0441C26.6066 38.5838 24.2968 38.8964 27.3966 38.4791L13.6819 69.0411C13.6158 69.0617 13.547 69.0799 13.4783 69.1031C12.2363 69.5038 11.072 70.145 10.131 71.0879C8.6359 72.5785 6.21056 72.5839 4.71337 71.0879C3.63646 70.0126 1.88594 70.0112 0.809372 71.0891C-0.269791 72.1683 -0.269791 73.9178 0.809372 74.9966C2.63176 76.8178 5.02663 77.7288 7.42167 77.7288C9.81394 77.7288 12.2114 76.8162 14.0397 74.9938C15.1684 73.8584 17.1639 73.6203 18.8213 75.2059C22.1383 78.3127 27.6357 78.3385 31.0852 74.8894C32.3654 73.6135 34.584 73.6135 35.864 74.8894C39.2061 78.2327 45.1105 78.2355 48.4555 74.8866C49.7716 73.5695 51.9131 73.5721 53.2347 74.8894C56.5932 78.2519 62.4592 78.2535 65.8262 74.888C67.1031 73.6094 69.3248 73.6094 70.605 74.888C73.9635 78.2493 79.8243 78.2535 83.1908 74.8894C84.2698 73.8116 84.2698 72.0621 83.1906 70.9831Z" fill="#25283E"/>
</g>
<defs>
<clipPath id="clip0_691_3870">
<rect width="84" height="84" fill="white"/>
</clipPath>
</defs>
</svg>
