<svg width="84" height="84" viewBox="0 0 84 84" fill="none" xmlns="http://www.w3.org/2000/svg">
<path d="M33.9406 36.1625C37.1929 36.1625 39.8295 33.526 39.8295 30.2736C39.8295 27.0213 37.1929 24.3848 33.9406 24.3848C30.6883 24.3848 28.0518 27.0213 28.0518 30.2736C28.0518 33.526 30.6883 36.1625 33.9406 36.1625Z" fill="#25283E"/>
<path d="M75.9144 29.8277C72.2897 28.6207 68.7831 28.847 67.0161 30.2126L26.7229 16.7936C26.8966 15.8212 26.4694 14.7891 25.5401 14.2526C24.4301 13.6119 23.0067 13.9857 22.2819 15.0424L22.1298 15.2641L16.9707 13.5462C16.3754 11.3937 13.7047 9.1099 10.08 7.90289C5.43657 6.35628 0.986046 7.16232 0.139975 9.70332C-0.706095 12.2442 2.37221 15.5576 7.01584 17.104C10.6405 18.311 14.1471 18.0848 15.9141 16.7191L20.162 18.1338L13.5859 27.7216C12.9642 28.6278 13.0268 29.8381 13.7385 30.6754L23.355 41.9923L22.113 59.0891H10.6205C9.51927 59.0891 8.77836 60.2172 9.21575 61.2278L11.6304 66.8063C16.8543 62.8609 24.3395 63.2643 29.097 68.0221C30.0834 69.0085 31.6579 68.9904 32.6263 68.0221C37.8347 62.8133 46.2799 62.8077 51.4943 68.0221C52.47 68.9981 54.0614 69.0052 55.0443 68.0221C59.4668 63.5997 66.246 62.9395 71.3749 66.0365L73.4684 61.2002C73.9002 60.2027 73.169 59.0894 72.0819 59.0894H37.2055L38.2806 44.289L48.6447 40.7551C48.8772 40.6759 49.0961 40.562 49.2944 40.4171L61.0082 31.7371L65.9596 33.3861C66.5548 35.5386 69.2256 37.8223 72.8502 39.0293C77.4938 40.5758 81.9442 39.7697 82.7904 37.2289C83.6365 34.6877 80.558 31.3743 75.9144 29.8277ZM46.7229 36.2654L36.8417 39.6344L26.7394 38.4551L18.6546 28.9408L24.9689 19.7346L55.4592 29.8886L46.7229 36.2654Z" fill="#25283E"/>
<path d="M83.2068 69.9366C82.1494 68.8792 80.4346 68.8792 79.3774 69.9366C77.3383 71.9757 74.0375 71.9762 71.9977 69.9366C67.8518 65.7907 61.1053 65.7902 56.9592 69.9366C54.9232 71.9726 51.6393 71.9752 49.6005 69.9366C45.4517 65.7874 38.6971 65.7802 34.5412 69.9366C32.5052 71.9726 29.2214 71.9752 27.1825 69.9366C23.0562 65.8102 16.3026 65.7781 12.1441 69.9366C10.105 71.9757 6.80434 71.9762 4.76455 69.9366C3.70717 68.8789 1.99239 68.8792 0.935005 69.9366C-0.122377 70.994 -0.122542 72.7086 0.935005 73.7661C5.09038 77.922 11.8174 77.9225 15.9733 73.7661C17.9588 71.7806 21.2499 71.684 23.332 73.7661C27.4811 77.9153 34.2351 77.9225 38.3915 73.7661C40.4275 71.7301 43.7114 71.7275 45.75 73.7661C50.3667 78.3828 57.6097 77.4565 60.9378 73.6244C62.9818 71.7339 66.1823 71.7803 68.1682 73.7661C72.3235 77.922 79.0503 77.9225 83.2066 73.7661C84.2643 72.7087 84.2643 70.994 83.2068 69.9366Z" fill="#25283E"/>
</svg>
