<svg width="84" height="84" viewBox="0 0 84 84" fill="none" xmlns="http://www.w3.org/2000/svg">
<g clip-path="url(#clip0_691_3963)">
<path d="M20.2671 13.2293C23.6078 11.1017 24.592 6.66318 22.4659 3.32101C20.334 -0.0228619 15.8998 -1.00402 12.553 1.12497C9.21221 3.25567 8.22833 7.69108 10.357 11.0317C12.486 14.3754 16.9202 15.3598 20.2671 13.2293Z" fill="#25283E"/>
<path d="M75.4407 10.3865C74.1499 8.15581 71.289 7.40139 69.0662 8.68862L48.5903 20.5546C48.1711 20.7974 47.7917 21.1041 47.4668 21.4655L38.9659 30.882L33.1349 21.7297L38.559 19.2471C38.9355 19.0739 39.2847 18.84 39.5915 18.5561L48.7513 10.0219C50.3212 8.5581 50.4064 6.09797 48.9458 4.52805C47.4788 2.96087 45.0248 2.8713 43.4485 4.33356L34.7507 12.4396L28.1116 15.4779C26.2288 14.5213 24.1583 14.5854 22.0012 15.7512C20.5573 16.5315 18.4703 17.5216 16.8927 19.874C14.7624 23.0509 8.55947 32.7057 8.55947 32.7057C7.49933 34.3334 7.80608 36.4931 9.27585 37.7624L17.5125 44.8855C19.1374 46.293 21.5941 46.1093 22.9941 44.4891C24.4004 42.8645 24.2211 40.4106 22.5964 39.006L16.9233 34.098L20.109 29.1934L28.9921 43.1379C29.1838 43.8575 34.213 56.5872 34.4864 57.2797L35.7375 79.5974C35.8805 82.1319 38.0366 84.1285 40.6574 83.9935C43.2302 83.8492 45.1981 81.6475 45.0551 79.075L43.7616 56.0102C43.7309 55.5155 43.6248 55.0279 43.4456 54.5662L39.4154 44.3043L53.9021 28.2595L73.7434 16.7612C75.9723 15.4688 76.7313 12.6156 75.4407 10.3865Z" fill="#25283E"/>
</g>
<defs>
<clipPath id="clip0_691_3963">
<rect width="84" height="84" fill="white"/>
</clipPath>
</defs>
</svg>
