<svg width="84" height="84" viewBox="0 0 84 84" fill="none" xmlns="http://www.w3.org/2000/svg">
<path d="M62.1999 30.6808C61.2309 29.6065 59.7548 29.1429 58.3459 29.4702L48.2276 31.8199L41.7069 20.0037C51.8561 21.9546 51.1709 21.8446 51.5683 21.8446C52.6009 21.8446 53.5776 21.3072 54.1239 20.3997C54.7692 19.3276 54.6772 17.9671 53.8934 16.9918L44.2867 5.03684C43.3826 3.91168 41.8295 3.61527 40.5948 4.25274C41.1275 6.11716 41.0726 8.06519 40.5005 9.8517L44.1531 14.3972L38.5326 13.3168L31.5062 27.7427L36.1057 13.8192C36.6227 12.2545 35.7731 10.5671 34.2086 10.0502C32.6434 9.53287 30.9564 10.3828 30.4395 11.9473L26.9709 22.4471L27.8094 15.9106C27.805 15.909 27.8006 15.9069 27.7962 15.9053L23.2272 18.427C22.1753 19.0119 20.4809 20.0393 20.8197 21.8576L23.0903 35.2989C23.3187 36.6508 24.4391 37.673 25.8062 37.777C27.1784 37.8803 28.4366 37.0363 28.8654 35.7377L29.1777 34.7924L33.3863 42.9361V80.0216C33.3863 82.2187 35.1675 83.9998 37.3645 83.9998C39.5615 83.9998 41.3427 82.2187 41.3427 80.0216V41.64C41.3427 41.64 44.2281 40.9169 53.1479 38.8456L47.8055 54.3857C47.0912 56.4635 48.1965 58.7271 50.2743 59.4413C52.3519 60.1558 54.6156 59.0505 55.3299 56.9725L63.0079 34.6388C63.4783 33.2707 63.169 31.7551 62.1999 30.6808Z" fill="#25283E"/>
<path d="M28.375 13.1537L28.7401 11.3732C29.2739 8.76991 31.8172 7.09219 34.4205 7.62601C35.7814 7.90495 36.8884 8.73371 37.5596 9.8324C38.4619 7.90054 38.4614 5.57948 37.3524 3.56971C36.0938 1.28889 33.7343 0 31.3012 0C30.1729 0 29.0292 0.276925 27.9715 0.860728C24.6329 2.7031 23.4199 6.9031 25.2623 10.2418C25.9946 11.5684 27.1003 12.5566 28.375 13.1537Z" fill="#25283E"/>
</svg>
