<svg width="84" height="84" viewBox="0 0 84 84" fill="none" xmlns="http://www.w3.org/2000/svg">
<g clip-path="url(#clip0_691_3954)">
<path d="M2.98549 49.6762C1.33539 49.6762 0 51.0111 0 52.6615C0 54.3114 1.33539 55.647 2.98549 55.647H22.5333L17.143 49.6762H2.98549V49.6762Z" fill="#25283E"/>
<path d="M83.8767 52.6673L81.2236 38.8366C80.3171 34.1253 76.9993 30.5012 72.725 29.0263L68.9002 21.4548C68.3373 20.347 67.1715 19.6909 65.9147 19.8341C64.6785 19.968 63.6551 20.8512 63.3433 22.0553L61.1537 30.5451C58.2793 32.5012 57.3868 34.4342 55.6465 37.4197C57.7892 38.2739 59.2761 40.1252 59.7224 42.2827C62.0985 38.2038 63.3752 34.6705 67.8358 34.2797C71.4481 33.9792 74.6757 36.4079 75.3575 39.9616L78.0105 53.7928C78.0864 54.1891 77.8417 54.568 77.4423 54.6614C77.1596 54.714 76.8796 54.6234 76.6991 54.3991L71.4163 47.8336C70.3842 46.554 68.5007 46.3411 67.2178 47.3786C65.9322 48.4136 65.7313 50.2913 66.7633 51.5771C71.7338 57.7516 73.6726 61.6585 78.7861 60.4776C82.3258 59.6645 84.562 56.2328 83.8767 52.6673Z" fill="#25283E"/>
<path d="M51.3201 50.0842L48.7022 49.335L48.5041 49.6762H41.2792L43.2297 51.8366C44.224 52.9384 44.9003 54.2535 45.2533 55.647H50.2183C51.2793 55.647 52.2615 55.0812 52.7981 54.166L55.2123 50.0232C53.9908 50.4136 52.6463 50.463 51.3201 50.0842Z" fill="#25283E"/>
<path d="M51.0928 18.9391C53.8188 16.2799 53.8713 11.9156 51.2154 9.19254C48.5594 6.46671 44.2008 6.41115 41.4777 9.06724C38.7548 11.7231 38.6936 16.0815 41.3526 18.8046C43.9998 21.5335 48.3671 21.589 51.0928 18.9391Z" fill="#25283E"/>
<path d="M54.201 40.0404L44.2357 37.1836L41.3613 27.8715L43.0406 30.6207C43.871 28.5159 43.4632 26.0261 41.7811 24.2974L40.0143 22.4841C38.9148 21.3553 37.4168 20.7114 35.8423 20.6911C34.2681 20.6706 32.752 21.2771 31.6238 22.3731L19.6035 34.0847C16.3991 37.2009 16.2507 42.4227 19.4516 45.7112C22.3615 48.6967 20.0581 46.2211 31.6238 59.0291L28.3205 71.2416C27.6761 73.6293 29.087 76.0868 31.4749 76.7341C33.8508 77.3726 36.3173 75.9823 36.9678 73.5799L40.9062 59.0084C41.3027 57.539 40.9268 55.9677 39.9064 54.839L30.0903 43.9707C33.8888 40.2739 32.9325 41.204 34.7083 39.4724L34.23 30.0703L37.6992 41.3119C38.0695 42.516 39.0257 43.4521 40.2358 43.7989L52.1424 47.2129C52.4863 47.3121 52.833 47.3586 53.1744 47.3586C54.7954 47.3586 56.2881 46.2919 56.7575 44.656C57.3258 42.6733 56.1802 40.6062 54.201 40.0404Z" fill="#25283E"/>
</g>
<defs>
<clipPath id="clip0_691_3954">
<rect width="84" height="84" fill="white"/>
</clipPath>
</defs>
</svg>
