<svg width="84" height="84" viewBox="0 0 84 84" fill="none" xmlns="http://www.w3.org/2000/svg">
<g clip-path="url(#clip0_691_3969)">
<path d="M70.8696 17.8835C74.1996 14.7036 74.3202 9.42807 71.1418 6.09801C67.9619 2.7683 62.6864 2.64555 59.3581 5.82408C56.0278 9.00396 55.9056 14.278 59.0841 17.6078C62.2621 20.9381 67.5394 21.0618 70.8696 17.8835Z" fill="#25283E"/>
<path d="M79.3509 27.4365L65.2224 29.051C65.1992 29.0215 58.5637 20.173 58.5637 20.173L56.4487 17.9568C55.0298 16.4679 40.485 11.1482 38.569 10.3997C37.4749 9.96764 36.2566 10.0196 35.2017 10.5434L21.8621 17.1235C19.7956 18.1444 18.946 20.6475 19.9653 22.7136C20.9682 24.7473 23.4504 25.6473 25.5555 24.612L37.2448 18.8455L42.8349 21.0307L27.6444 35.5313C27.007 36.1396 26.6694 36.9077 26.4737 37.7053L22.2615 47.7246L12.0562 41.5457L14.0081 38.9934C14.848 37.896 14.6394 36.3238 13.5401 35.4825C12.4458 34.6409 10.8721 34.8497 10.0289 35.9505L0.515364 48.3837C-0.00507883 49.064 -0.141877 49.9621 0.15339 50.766L2.02522 55.877C2.39702 56.8928 3.35596 57.5207 4.37686 57.5207C4.66401 57.5207 4.95419 57.472 5.23795 57.3675C6.53753 56.8913 7.20459 55.4532 6.72851 54.155L5.32937 50.3356L5.93108 49.5497L22.0347 59.3015C24.644 60.8833 28.0653 59.7711 29.2477 56.958L33.0068 48.0183L41.0835 57.6821L32.8856 75.4721H31.3007C29.9178 75.4721 28.7957 76.5941 28.7957 77.9771C28.7957 79.36 29.9178 80.4818 31.3007 80.4818H46.956C47.8123 80.4818 48.6097 80.0449 49.0694 79.3223L51.9918 74.7301C52.734 73.5625 52.3898 72.0149 51.224 71.2713C50.0595 70.5276 48.5104 70.8702 47.7649 72.0395L45.5814 75.4719H43.9523L51.5109 58.9818C52.3148 57.2253 52.0393 55.164 50.8 53.6818L43.2809 44.6864L56.8142 31.7661L59.9862 35.9798C60.9043 37.2011 62.3913 37.7901 63.7972 37.6171L80.3007 35.7304C82.5904 35.4697 84.2355 33.3997 83.9729 31.1087C83.7102 28.818 81.6374 27.1627 79.3509 27.4365Z" fill="#25283E"/>
</g>
<defs>
<clipPath id="clip0_691_3969">
<rect width="84" height="84" fill="white"/>
</clipPath>
</defs>
</svg>
