<svg width="84" height="84" viewBox="0 0 84 84" fill="none" xmlns="http://www.w3.org/2000/svg">
<g clip-path="url(#clip0_691_3988)">
<path d="M29.3232 42.7108L4.41775 56.0924C3.1305 56.7838 2.32742 58.1268 2.32742 59.5891V80.0301C2.32742 82.223 4.10458 84.0002 6.29744 84.0002C8.49014 84.0002 10.2675 82.223 10.2675 80.0301V61.9636L32.8684 49.8197L31.8295 45.6278L29.3232 42.7108Z" fill="#25283E"/>
<path d="M75.8234 17.7261L50.9876 31.0703L51.4109 31.5635L57.9848 36.3244L73.7329 27.8634V45.8881C73.7329 48.0808 75.5102 49.8581 77.7029 49.8581C79.8954 49.8581 81.6727 48.0808 81.6727 45.8881V21.2233C81.6727 18.2236 78.4641 16.3055 75.8234 17.7261Z" fill="#25283E"/>
<path d="M62.0817 45.1733L53.3228 38.8304L48.1618 35.0931L46.6905 33.3795L36.7264 21.7798C42.1514 19.0349 40.954 19.6395 43.6695 18.2638C44.2338 17.9786 44.7224 17.5612 45.093 17.0498L52.878 6.29676C54.1635 4.52112 53.765 2.03814 51.9893 0.752585C50.2152 -0.529917 47.7325 -0.134558 46.4453 1.64108L39.225 11.6144C33.9136 14.3031 36.3219 13.0845 28.3259 17.1335C27.867 17.366 25.0164 19.7432 24.2864 20.3699C23.8319 20.7593 23.1666 21.4819 22.5307 22.7348C18.1298 31.4503 19.2524 29.2281 17.1169 33.4584L8.27424 30.4049C6.20882 29.6918 3.94309 30.7911 3.22659 32.8629C2.51162 34.9346 3.61128 37.1943 5.68433 37.9108C6.73432 38.2736 18.0301 42.3117 19.0989 42.3117C20.5611 42.3117 21.9523 41.5005 22.6424 40.1314C24.7265 36.0017 23.8364 37.7652 26.6199 32.2517L36.1805 43.3832L40.0311 58.9219L34.5135 74.2452C33.6218 76.72 34.9057 79.4496 37.3808 80.3413C39.8652 81.2376 42.5881 79.9381 43.4768 77.4739L49.4845 60.7921C49.8041 59.9066 49.8536 58.9453 49.6273 58.0319L46.5738 45.7063L54.2996 51.3018L52.9088 66.724C52.6728 69.3448 54.6067 71.6602 57.2259 71.8972C59.9258 72.1269 62.1685 70.134 62.3993 67.58L64.0324 49.4592C64.1833 47.7863 63.4419 46.1579 62.0817 45.1733Z" fill="#25283E"/>
<path d="M24.215 16.5383C27.0683 14.0913 27.4826 9.6979 24.958 6.76194C22.4626 3.8575 18.0877 3.52739 15.1787 6.02071C12.2771 8.51606 11.9469 12.8937 14.4407 15.7954C16.9837 18.7588 21.4607 18.9064 24.215 16.5383Z" fill="#25283E"/>
</g>
<defs>
<clipPath id="clip0_691_3988">
<rect width="84" height="84" fill="white"/>
</clipPath>
</defs>
</svg>
