<svg width="84" height="84" viewBox="0 0 84 84" fill="none" xmlns="http://www.w3.org/2000/svg">
<g clip-path="url(#clip0_691_3975)">
<path d="M67.8961 23.0528C67.556 21.6634 66.6774 20.4668 65.4557 19.7243C64.2329 18.9817 62.7645 18.7576 61.3751 19.0965L59.7386 19.4972L62.815 22.3694L50.4996 14.72C49.9311 14.3672 49.2755 14.1796 48.6071 14.1796H35.1863C33.2054 14.1796 31.5999 15.7846 31.5999 17.7659C31.5999 19.7468 33.2054 21.3523 35.1863 21.3523H47.5843L59.0298 28.4602L47.7805 24.2213H41.6557C40.6877 24.9216 40.6682 25.3054 40.4354 25.8909C39.9926 26.4402 32.1577 41.6765 31.8326 42.304L22.2448 55.0215C20.8146 56.9209 21.1927 59.6194 23.0909 61.051C24.9988 62.4828 27.6913 62.0933 29.1175 60.2047L38.9241 47.1962C39.0695 47.0025 39.1972 46.7981 39.3079 46.5851L44.4155 36.7312L64.4891 31.8114C67.3805 31.1023 69.1513 28.1857 68.4437 25.2912L67.8961 23.0528Z" fill="#25283E"/>
<path d="M83.8187 19.5055C82.9966 16.1433 79.6065 14.0925 76.2511 14.9163C72.8877 15.7344 70.8323 19.1246 71.6549 22.4869C72.4771 25.8432 75.8714 27.9057 79.2265 27.0762C82.5889 26.2582 84.6412 22.8679 83.8187 19.5055Z" fill="#25283E"/>
<path d="M62.3641 57.4089L56.9623 64.0825H2.86913C1.28446 64.0825 0 65.3658 0 66.9515C0 68.5373 1.28446 69.8204 2.86913 69.8204H58.3307C59.1966 69.8204 60.0161 69.4281 60.5612 68.7558L66.8245 61.0173C67.8218 59.7874 67.6313 57.98 66.3985 56.9827C65.1672 55.988 63.3614 56.1785 62.3641 57.4089Z" fill="#25283E"/>
</g>
<defs>
<clipPath id="clip0_691_3975">
<rect width="84" height="84" fill="white"/>
</clipPath>
</defs>
</svg>
