<svg width="84" height="84" viewBox="0 0 84 84" fill="none" xmlns="http://www.w3.org/2000/svg">
<g clip-path="url(#clip0_691_4002)">
<path fill-rule="evenodd" clip-rule="evenodd" d="M43.2795 68.4412L46.0801 54.8531C46.0801 54.8531 47.6018 50.6313 45.5174 47.1333L40.7035 36.3013L44.4359 29.9216L46.0621 32.8771C47.1761 34.9022 48.4147 36.203 50.2637 36.8557C53.1254 37.8656 64.8112 39.2536 65.4826 36.0434C66.6199 30.6062 63.2178 31.1232 59.1983 30.5901L53.2213 29.7972C51.8988 25.4332 50.1982 13.4901 45.0822 13.2949C37.0041 12.9866 24.3484 32.2324 28.2022 36.6625L36.9244 51.3785C35.9273 57.3115 29.0808 73.4067 35.3504 75.5435C39.9774 77.1156 53.3358 81.6313 55.4147 75.5318C57.3121 69.9645 47.2375 69.786 43.2795 68.4412V68.4412Z" fill="#25283E"/>
<path d="M53.9309 37.3905C54.9265 37.5203 55.839 36.8184 55.9689 35.8228C56.0989 34.827 55.3968 33.9145 54.4012 33.7847L9.04757 27.7688C8.05195 27.6389 7.13947 28.341 7.00964 29.3366C6.87981 30.3322 7.58166 31.2447 8.57728 31.3745L53.9309 37.3905Z" fill="#25283E"/>
<path d="M12.5 71.5001C8.49997 71 8.00003 75.5 11.7383 76.2042C15.4767 76.9084 11.7374 76.2106 11.7374 76.2106C11.8025 76.2193 11.8672 76.2251 11.9317 76.2284L70.7989 83.9285L70.7979 83.9362C70.8847 83.9475 70.9711 83.9537 71.0566 83.9552C72.5235 84.0874 79.9743 84.4007 78.8064 76.9303C78.6146 75.6905 77.4541 74.841 76.2143 75.0328C74.9747 75.2247 74.1252 76.3854 74.3171 77.625C74.6219 79.5749 72.1756 79.4922 71.5317 79.4373C71.4848 79.4282 71.4374 79.4203 71.3893 79.4139L71.3883 79.4226L71.3876 79.4215C71.3876 79.4215 16.5 72.0002 12.5 71.5001Z" fill="#25283E"/>
<path d="M49.2762 11.9645C52.5664 12.4005 55.5871 10.0868 56.0231 6.79657C56.4592 3.50637 54.1455 0.485653 50.8553 0.0496023C47.5651 -0.386448 44.5443 1.9273 44.1083 5.21749C43.6722 8.50769 45.986 11.5284 49.2762 11.9645Z" fill="#25283E"/>
</g>
<defs>
<clipPath id="clip0_691_4002">
<rect width="84" height="84" fill="white"/>
</clipPath>
</defs>
</svg>
