<svg width="84" height="84" viewBox="0 0 84 84" fill="none" xmlns="http://www.w3.org/2000/svg">
<g clip-path="url(#clip0_691_3939)">
<path d="M13.5418 38.3565C17.4416 37.2944 19.7417 33.2938 18.6753 29.4173C17.6085 25.5432 13.5774 23.2612 9.67459 24.322C5.77752 25.383 3.48024 29.3834 4.54677 33.2587C5.61312 37.1339 9.64188 39.4159 13.5418 38.3565Z" fill="#25283E"/>
<path d="M83.1939 75.2994C82.1134 74.2278 80.3659 74.2292 79.2885 75.298C78.0058 76.5696 75.7823 76.5683 74.5078 75.2994C71.1496 71.9592 65.2806 71.9592 61.9192 75.2994C60.6392 76.5696 58.4159 76.5709 57.1384 75.3008C53.6707 71.852 48.0257 71.8494 44.5388 75.3063C43.2753 76.56 41.038 76.5628 39.7693 75.3008C36.4109 71.9606 30.6488 71.8508 27.0711 75.4081C25.8487 76.6172 23.7372 76.6265 22.5064 75.4026C19.1945 72.1206 13.4322 72.1249 10.1314 75.4026C8.63511 76.8871 6.20368 76.8844 4.7132 75.4026C3.63303 74.3348 1.88826 74.3338 0.807914 75.4054C-0.26963 76.4759 -0.26963 78.2145 0.807914 79.2847C2.63227 81.0953 5.02767 82 7.42079 82C9.81671 82 12.2153 81.0939 14.0393 79.2821C15.2454 78.081 17.3924 78.0772 18.6041 79.2859C21.9102 82.5691 27.5608 82.6817 31.086 79.1799C32.3633 77.9129 34.5838 77.9129 35.8639 79.1799C39.2056 82.5 45.113 82.5026 48.4554 79.1775C49.7733 77.868 51.9121 77.8706 53.2329 79.1799C56.5939 82.5201 62.4604 82.5215 65.8243 79.1789C67.1014 77.9087 69.3225 77.9087 70.6048 79.1789C73.9608 82.5177 79.8242 82.5215 83.1938 79.1799C84.2685 78.1069 84.2685 76.3698 83.1939 75.2994Z" fill="#25283E"/>
<path d="M12.7349 40.4701C9.291 40.9991 7.39634 44.8305 8.31507 48.1665L13.29 66.2338C13.8971 68.4385 15.5653 70.2002 17.7424 70.9391C19.9222 71.6767 22.3259 71.2976 24.1638 69.9203L34.8407 63.6718L45.63 69.7478C46.2752 70.1117 46.9781 70.2843 47.67 70.2843C49.1115 70.2843 50.5145 69.5332 51.2747 68.1979C52.4041 66.2215 51.7042 63.7086 49.713 62.588L45.8869 60.4351L70.3205 57.2388C71.5864 57.0746 72.574 56.0666 72.705 54.8032C72.8313 53.6312 75.5877 25.8231 64.1779 1.58047C63.5324 0.211273 61.8995 -0.383418 60.5078 0.258876C59.1265 0.899955 58.5303 2.53271 59.1729 3.90729C62.6407 11.2724 64.7029 19.0883 65.9146 26.316H42.9228L45.7778 3.07597C45.9637 1.57109 44.8837 0.204671 43.3709 0.0212082C41.8396 -0.152699 40.4805 0.90812 40.2997 2.41179L36.8237 30.6913L26.379 38.6252C26.379 38.6254 16.6007 39.8763 12.7349 40.4701ZM26.8388 58.7197L24.8558 51.1902L28.2174 51.8259C28.7968 51.9347 29.4041 51.9008 29.9975 51.6958L34.4334 50.1634L33.8458 54.9569C33.4849 55.044 33.1316 55.1771 32.8007 55.3629L26.8388 58.7197ZM66.6968 31.8011C67.7663 40.9427 67.5721 48.5508 67.3699 52.0919L39.3097 55.7624C39.3097 55.7568 42.2499 31.8024 42.2499 31.8024L66.6968 31.8011ZM29.5382 44.1675L35.7488 39.45L35.3635 42.5768L28.6027 44.9186L27.9601 44.7951H27.9655C28.5373 44.7311 29.0815 44.5138 29.5382 44.1675Z" fill="#25283E"/>
</g>
<defs>
<clipPath id="clip0_691_3939">
<rect width="84" height="84" fill="white"/>
</clipPath>
</defs>
</svg>
