<svg width="84" height="84" viewBox="0 0 84 84" fill="none" xmlns="http://www.w3.org/2000/svg">
<path d="M42 27.8256C46.2281 27.8256 49.6531 24.401 49.6531 20.1724C49.6531 15.9467 46.2282 12.5203 42 12.5203C37.7716 12.5203 34.3491 15.9467 34.3491 20.1724C34.3493 24.4008 37.7716 27.8256 42 27.8256Z" fill="#25283E"/>
<path d="M78.6792 2.89702C77.6066 2.89702 76.6993 3.45494 76.1123 4.26257V3.22868C76.1123 1.44494 74.6645 0 72.8818 0C71.0996 0 69.6516 1.44494 69.6516 3.22885V8.00565H14.3481V3.22885C14.3481 1.44494 12.9006 0 11.1179 0C9.33552 0 7.88769 1.44494 7.88769 3.22885V4.26274C7.3007 3.45511 6.39311 2.89719 5.32097 2.89719C3.53859 2.89719 2.09076 4.34213 2.09076 6.12604V14.0958C2.09076 15.8796 3.53859 17.3247 5.32097 17.3247C6.39311 17.3247 7.3007 16.7667 7.88769 15.9605V16.9944C7.88769 18.7781 9.33552 20.2232 11.1179 20.2232C12.9004 20.2232 14.3481 18.7781 14.3481 16.9944V12.2176H16.3884C16.4431 12.5152 22.7966 25.0536 22.7966 25.0536C22.9666 25.3854 23.1942 25.6844 23.4682 25.9392L32.7259 34.5495V57.3422L25.218 64.554C24.472 65.2683 24.0527 66.2556 24.0527 67.2882V80.209C24.0527 82.3026 25.7499 84 27.8423 84C29.9348 84 31.632 82.3026 31.632 80.209V68.9033L37.0913 63.659H46.9082L52.3708 68.9033V80.209C52.3708 82.3026 54.068 84 56.1603 84C58.2525 84 59.9499 82.3026 59.9499 80.209V67.2882C59.9499 66.2556 59.5304 65.2685 58.7846 64.554L51.2796 57.3448V34.5468L60.5316 25.9379C60.8057 25.6844 61.0333 25.3852 61.2033 25.0536C61.2033 25.0536 67.5567 12.5152 67.6118 12.2176H69.6517V16.9944C69.6517 18.7781 71.0997 20.2232 72.8819 20.2232C74.6645 20.2232 76.1125 18.7781 76.1125 16.9944V15.9591C76.6993 16.7667 77.6066 17.3247 78.6794 17.3247C80.4614 17.3247 81.9093 15.8796 81.9093 14.0958V6.12587C81.9091 4.34196 80.4613 2.89702 78.6792 2.89702ZM55.7188 21.5942L47.4403 29.2983H36.565L28.2809 21.5942L23.4494 12.2174H60.5505L55.7188 21.5942Z" fill="#25283E"/>
</svg>
