<svg width="84" height="84" viewBox="0 0 84 84" fill="none" xmlns="http://www.w3.org/2000/svg">
<g clip-path="url(#clip0_691_4012)">
<path d="M64.8609 33.5969C67.6127 30.9687 67.7143 26.6048 65.0846 23.8534C62.4566 21.0988 58.0941 20.9986 55.3423 23.6256C52.5879 26.2537 52.4877 30.616 55.1147 33.3679C57.7442 36.1221 62.1064 36.2238 64.8609 33.5969Z" fill="#25283E"/>
<path d="M27.9082 38.1059L37.7919 33.228L42.7576 35.169L26.4554 50.733L26.5445 50.8249C31.439 47.7714 37.8015 48.1953 42.1609 52.0897C44.1101 50.3477 46.5589 49.3545 49.0982 49.0294L54.0638 44.29L56.8129 47.9417C57.3644 48.6742 58.2245 49.0966 59.13 49.0966C59.3865 49.0966 72.827 47.5492 73.1054 47.5178C74.6968 47.3365 75.8366 45.8989 75.657 44.3076C75.4759 42.7149 74.0438 41.5724 72.447 41.759L60.4482 43.1293L55.4427 36.4776C54.9416 35.811 55.0406 35.9165 54.5344 35.3322L52.9365 33.6586C52.599 33.3046 51.418 32.3281 50.8774 32.1155L38.7125 27.3609C37.9566 27.0702 37.1046 27.1046 36.3737 27.4623L25.3433 32.9015C23.9071 33.6121 23.3171 35.3499 24.0251 36.7863C24.7287 38.2114 26.4554 38.8164 27.9082 38.1059Z" fill="#25283E"/>
<path d="M83.1906 55.5289C82.1098 54.4491 80.362 54.4465 79.2865 55.5314C78.0134 56.8074 75.7873 56.8058 74.5086 55.5301C71.1435 52.1667 65.2766 52.1667 61.9172 55.533C60.6414 56.8087 58.4204 56.8117 57.138 55.5275C53.7756 52.1667 47.918 52.1667 44.5546 55.5275L44.5022 55.5767C43.1854 56.8457 41.0771 56.8347 39.7709 55.5289C36.2964 52.0581 30.6503 52.061 27.0697 55.6398C25.864 56.8457 23.7214 56.8512 22.5087 55.6345C19.2029 52.3285 13.4385 52.3269 10.1273 55.6356C8.68407 57.0815 6.1573 57.0815 4.71409 55.6356C3.63584 54.5575 1.88685 54.5589 0.808764 55.6345C-0.269494 56.7125 -0.269494 58.4616 0.807225 59.5399C2.57417 61.3066 4.92273 62.2806 7.4206 62.2806C9.92017 62.2806 12.2699 61.3066 14.0338 59.5412C15.2562 58.3202 17.3823 58.3202 18.6032 59.5383C21.8942 62.8321 27.591 62.9335 31.0876 59.4356C32.4073 58.1145 34.5511 58.1186 35.8722 59.4395C39.3374 62.906 44.9782 62.9046 48.4517 59.4409L48.4996 59.3916C49.7642 58.1721 51.9919 58.1926 53.2321 59.4313C56.5958 62.8003 62.4615 62.8046 65.8252 59.4354C67.1022 58.1569 69.3246 58.1569 70.6031 59.4354C73.9678 62.8001 79.8322 62.7948 83.193 59.4326C84.27 58.3532 84.2687 56.6056 83.1906 55.5289Z" fill="#25283E"/>
</g>
<defs>
<clipPath id="clip0_691_4012">
<rect width="84" height="84" fill="white"/>
</clipPath>
</defs>
</svg>
