<svg width="84" height="85" viewBox="0 0 84 85" fill="none" xmlns="http://www.w3.org/2000/svg">
<g clip-path="url(#clip0_691_4043)">
<path d="M21.8055 39C25.9483 39 29.3054 35.6436 29.3054 31.5013C29.3054 27.3579 25.9483 24 21.8055 24C17.6641 24 14.3054 27.3579 14.3054 31.5013C14.3054 35.6436 17.6641 39 21.8055 39Z" fill="#25283E"/>
<path d="M6.92499 44.6499L13.9935 48.1494C13.9935 48.1733 13.9868 48.196 13.9868 48.2199V63.8752C17.8249 62.9121 21.9847 63.8752 25.151 66.8192C26.2439 65.7855 27.4583 65.0065 28.7353 64.4251L28.8213 56.0042L29.5967 56.93C30.0862 57.5128 30.7392 57.8977 31.4519 58.0221L42.4363 59.9413C44.1956 60.2485 45.8339 58.9285 46.1109 57.0108C46.3889 55.0859 45.1947 53.2775 43.4448 52.9721L33.5603 51.2446C27.469 43.9848 32.4465 49.8992 26.346 42.6455C25.8009 41.9969 25.0308 41.4336 22.7244 41.4336H20.1609C19.193 41.4336 18.2895 41.7003 17.4745 42.1346L10.745 38.8026L6.19278 26.2259C5.53861 24.4179 3.67549 23.5279 2.02347 24.2531C0.377049 24.9721 -0.427117 27.0246 0.228236 28.8357L5.26062 42.7385C5.56858 43.5892 6.16434 44.2736 6.92499 44.6499Z" fill="#25283E"/>
<path d="M59.655 39C63.7983 39 67.1558 35.6436 67.1558 31.5013C67.1558 27.3579 63.7983 24 59.655 24C55.5148 24 52.1558 27.3579 52.1558 31.5013C52.1559 35.6436 55.515 39 59.655 39Z" fill="#25283E"/>
<path d="M43.1097 42.7382C43.4175 43.589 44.0133 44.2736 44.7739 44.6496L51.841 48.1492C51.841 48.173 51.834 48.1958 51.834 48.2196V63.5335C54.5015 63.7834 57.1048 64.8399 59.1614 66.8037C61.2468 64.8144 63.8897 63.7564 66.5928 63.5244L66.6689 56.0022L67.4472 56.9297C67.9366 57.5125 68.5895 57.8974 69.3024 58.0218C69.7085 58.0924 80.3834 59.9858 80.7937 59.9858C82.3446 59.9858 83.709 58.7468 83.9597 57.0106C84.2379 55.0857 83.044 53.2773 81.2939 52.9718L71.4106 51.2443C54.8353 31.4843 80.8959 62.5522 64.1967 42.6452C63.6487 41.992 62.8743 41.4333 60.5737 41.4333H58.0087C57.0408 41.4333 56.1383 41.7001 55.3233 42.1344L48.5942 38.8023L44.0416 26.2257C43.3876 24.4174 41.5258 23.5276 39.8724 24.2526C38.2258 24.9716 37.4218 27.0242 38.0774 28.8353L43.1097 42.7382Z" fill="#25283E"/>
<path d="M78.437 69.8372C77.1803 71.2216 75.144 71.2172 73.8861 69.8343C70.5603 66.1759 64.7621 66.1759 61.4364 69.8372C60.2205 71.1737 58.1026 71.1706 56.884 69.8343C53.5871 66.2071 47.737 66.2061 44.437 69.8328L44.3883 69.8869C43.126 71.2245 41.1252 71.2006 39.8794 69.8343C36.54 66.1609 30.9954 65.9107 27.3235 69.9525C26.1771 71.2095 24.1287 71.2141 22.9795 69.9483C19.6051 66.2388 14.1149 66.2388 10.7343 69.9512C9.3566 71.4687 6.94122 71.4702 5.56059 69.9496C4.47031 68.7509 2.70233 68.7525 1.61222 69.9483C0.521603 71.1466 0.521603 73.0896 1.6107 74.2881C3.35667 76.2072 5.67775 77.2647 8.14764 77.2647C10.6185 77.2647 12.94 76.207 14.6832 74.2895C15.8827 72.9713 17.833 72.9713 19.035 74.2895C22.2764 77.8581 27.9164 77.9808 31.3784 74.1727C32.6432 72.7825 34.6824 72.7991 35.9376 74.1788C39.2865 77.8597 44.8598 78.0469 48.3792 74.1788L48.4266 74.1262C49.633 72.8498 51.7526 72.8722 52.9353 74.1711C56.2639 77.8295 62.0593 77.8295 65.3848 74.1742C66.6036 72.8351 68.7203 72.8335 69.9388 74.1727C73.3748 77.9496 78.9522 77.9614 82.3896 74.1699C83.4789 72.9697 83.476 71.0265 82.3844 69.8313C81.2912 68.6329 79.5248 68.6358 78.437 69.8372Z" fill="#25283E"/>
</g>
<defs>
<clipPath id="clip0_691_4043">
<rect width="84" height="85" fill="white"/>
</clipPath>
</defs>
</svg>
