<svg width="84" height="84" viewBox="0 0 84 84" fill="none" xmlns="http://www.w3.org/2000/svg">
<path d="M51.7874 34.6474L50.7648 36.6428C50.2704 37.6084 50.6519 38.7924 51.6173 39.2871C52.5851 39.7822 53.7676 39.3986 54.2616 38.4345L56.9045 33.2764L51.7874 34.6474Z" fill="#25283E"/>
<path d="M71.7348 15.8336C69.4839 15.7649 67.2478 15.3868 65.0725 14.6976L65.33 14.1947C65.8244 13.2291 65.4429 12.0451 64.4774 11.5504C63.5114 11.0561 62.3277 11.4378 61.8332 12.403L61.4169 13.2155L60.1144 12.595C59.7443 12.4188 59.3012 12.5757 59.1251 12.9458L57.4726 16.4147C57.2963 16.7848 57.4533 17.2278 57.8234 17.404L58.987 17.9582L55.7704 24.2365C57.0932 24.465 58.3145 25.0943 59.2671 26.0284L62.4396 19.8363C64.3518 21.0769 66.1313 22.6168 67.6596 24.3874C68.0095 24.7926 68.6614 24.7051 68.8916 24.2217L72.3821 16.8949C72.6125 16.4118 72.27 15.8498 71.7348 15.8336Z" fill="#25283E"/>
<path d="M71.9066 52.5651C71.6796 52.3515 71.361 52.2544 71.0493 52.3041C70.737 52.3535 70.4673 52.5433 70.3225 52.8157C69.8242 53.7528 69.1914 54.6139 68.4468 55.3752C68.521 54.8253 68.5584 54.2721 68.5584 53.7174C68.5584 52.6531 68.4111 51.5578 68.1203 50.4617C67.1645 46.8612 64.6579 43.8164 61.2437 42.1079C60.9464 41.9592 60.5922 41.9645 60.2998 42.1219C60.0073 42.2793 59.8158 42.568 59.7896 42.8909C59.5234 46.1628 57.7826 49.1395 55.0109 51.0597C54.9742 51.0853 54.9378 51.1112 54.9014 51.137C54.826 51.1904 54.7549 51.241 54.6884 51.2834C54.6781 51.2901 54.6677 51.2969 54.6576 51.3039C52.9144 52.5122 51.4761 54.1229 50.4979 55.9624C49.504 57.8334 49 59.8412 49 61.9298C49 62.9938 49.1473 64.089 49.4379 65.1854C50.9715 70.9641 56.3429 75 62.5004 75C69.9441 75 76 69.1367 76 61.9298C76 58.3758 74.5463 55.05 71.9066 52.5651V52.5651Z" fill="#25283E"/>
<path d="M56.5562 27.1092C55.6118 25.2658 53.4679 24.6016 51.7678 25.6258L46.1808 28.9912L42.4981 22.8842C42.3891 22.8884 42.2804 22.8933 42.1705 22.8933C38.4611 22.8933 35.2663 20.4662 33.861 17.0008C29.5425 17.0005 22.2549 17 22.2549 17C20.9714 17 19.7896 17.7572 19.1704 18.9762L14.71 27.7579C13.7719 29.605 14.3923 31.927 16.0958 32.9442C16.6344 33.2658 17.2169 33.4185 17.7913 33.4185C19.0333 33.4185 20.2376 32.7046 20.879 31.4416L24.3357 24.6361H30.9862L20.8323 43.854H8.52142C6.57668 43.854 5 45.5634 5 47.6721C5 49.7807 6.57658 51.4903 8.52142 51.4903H22.8418C24.0872 51.4903 25.2399 50.7772 25.8735 49.6145L28.403 44.9731L34.7892 50.4287L30.9604 60.7569C30.2351 62.7134 31.1098 64.9371 32.9143 65.7235C33.3449 65.9111 33.7893 66 34.2265 66C35.6219 66 36.9427 65.0947 37.495 63.6048L42.3075 50.6232C42.8906 49.0505 42.4476 47.2492 41.2196 46.2002L34.1386 40.1511L39.0344 31.0942L42.0793 36.1436C42.7517 37.2584 43.8762 37.8727 45.0293 37.8727C45.6092 37.8727 46.1965 37.7171 46.7368 37.3918L55.1882 32.3009C56.8881 31.277 57.5007 28.9525 56.5562 27.1092Z" fill="#25283E"/>
<path d="M41 20C44.3137 20 47 17.3137 47 14C47 10.6863 44.3137 8 41 8C37.6863 8 35 10.6863 35 14C35 17.3137 37.6863 20 41 20Z" fill="#25283E"/>
</svg>
