<svg width="84" height="84" viewBox="0 0 84 84" fill="none" xmlns="http://www.w3.org/2000/svg">
<g clip-path="url(#clip0_691_4027)">
<path d="M83.1638 69.4579C82.05 68.3467 80.2493 68.3495 79.1407 69.465C77.8265 70.7818 75.7462 70.7063 74.5019 69.4622C71.1117 66.0694 65.2016 66.0694 61.8114 69.465C60.5724 70.7039 58.414 70.701 57.1711 69.4622C53.8128 66.0979 47.8489 66.0954 44.4845 69.4593L44.4353 69.51C43.1485 70.7504 41.1095 70.7282 39.8391 69.4622C36.4502 66.0745 30.6483 65.9636 27.0403 69.573C25.8756 70.7365 23.7857 70.7419 22.6142 69.5676C19.1746 66.1268 13.5779 66.1268 10.133 69.5703C8.72848 70.9791 6.26606 70.9777 4.85862 69.5691C3.74728 68.4564 1.94528 68.4591 0.834104 69.5676C-0.277414 70.6789 -0.277414 72.4796 0.832576 73.5924C2.61267 75.3708 4.97798 76.3523 7.49506 76.3523C10.0154 76.3523 12.3805 75.3708 14.1579 73.5935C15.3801 72.3699 17.3685 72.3699 18.5934 73.5935C21.9222 76.9275 27.6311 77.0345 31.1734 73.4855C32.4162 72.2453 34.5732 72.241 35.8215 73.4908C39.235 76.9029 44.9152 77.0771 48.5027 73.4908L48.5518 73.4403C49.7796 72.2592 51.942 72.2797 53.1466 73.4828C56.5395 76.8756 62.4472 76.8756 65.8359 73.4857C67.079 72.2439 69.2358 72.2427 70.4788 73.4857C73.98 76.9866 79.6656 76.9976 83.1695 73.4814C84.2793 72.3685 84.2764 70.5665 83.1638 69.4579Z" fill="#25283E"/>
<path d="M48.1557 37.3466C45.3468 39.6381 44.9286 43.7765 47.2172 46.5856C49.5124 49.3949 53.6494 49.81 56.4587 47.5187C59.2695 45.2247 59.6858 41.0892 57.3933 38.2812C55.1003 35.4749 50.965 35.0528 48.1557 37.3466Z" fill="#25283E"/>
<path d="M27.6895 57.2372C27.3197 59.5655 28.9039 61.754 31.2307 62.1267C33.5656 62.4941 35.747 60.9084 36.1202 58.5843L39.6416 36.5411C39.6953 36.2069 39.7089 35.8684 39.6802 35.5311L39.4761 32.9551L30.6619 38.6391L27.6895 57.2372Z" fill="#25283E"/>
<path d="M28.5105 36.811L37.9233 30.739H45.4328L41.3233 32.0627L41.4533 32.2215C43.4281 34.6404 46.9881 35.0009 49.4081 33.0262L51.2799 31.4996C52.4406 30.5512 53.1795 29.1796 53.3287 27.6873C53.4809 26.1951 53.0327 24.7053 52.0843 23.5434L40.9915 9.95901C38.7977 7.2691 34.8333 6.86911 32.1433 9.0643C30.0356 10.7855 28.9752 13.3533 29.6013 16.3395L30.3111 25.3233L33.9603 22.9692C35.0648 22.2567 35.7694 21.6564 37.0437 22.0606L45.4328 24.7643H37.0437C36.4711 24.7643 35.9078 24.9301 35.4239 25.2412L25.271 31.7901C23.8845 32.685 23.4855 34.5336 24.3802 35.9204C25.2737 37.3044 27.1223 37.7071 28.5105 36.811Z" fill="#25283E"/>
</g>
<defs>
<clipPath id="clip0_691_4027">
<rect width="84" height="84" fill="white"/>
</clipPath>
</defs>
</svg>
