<svg width="84" height="85" viewBox="0 0 84 85" fill="none" xmlns="http://www.w3.org/2000/svg">
<path d="M80.7026 1.77085C77.6165 -0.888765 72.9918 -0.507082 70.3718 2.61028C67.7386 5.73176 68.1124 10.4132 71.197 13.0733C74.2797 15.729 78.9162 15.3538 81.5328 12.2294C84.1642 9.11174 83.7884 4.43013 80.7026 1.77085Z" fill="#25283E"/>
<path d="M73.75 70.2912L67.4233 78.1999H33.3841C33.7694 77.8585 34.1239 77.4698 34.401 76.9982L53.0648 45.2764C54.5312 45.2394 55.9786 44.6154 57.004 43.3935L70.7917 27.0013C73.0523 24.3152 72.7323 20.2842 70.0781 17.9931L68.0208 16.2236C65.363 13.9292 61.3749 14.2645 59.1155 16.9438L55.2467 21.5461L62.7592 19.3711C62.7657 19.3675 62.7724 19.3711 62.7789 19.3711C62.7726 19.3711 62.7657 19.3711 62.7592 19.3747L48.4073 26.1446C48.0624 26.3073 47.7392 26.5165 47.4508 26.7689L36.0403 36.6602C34.2783 38.1871 34.0735 40.8702 35.5827 42.6534C37.0903 44.4327 39.7462 44.6415 41.5037 43.1144L52.4775 33.6021L66.3095 27.0774C66.3163 27.0741 66.3194 27.0678 66.3261 27.0642C66.3195 27.0712 66.3165 27.0774 66.3095 27.081L54.5548 35.1594L43.1442 45.0502C42.3993 45.694 41.5526 46.1362 40.6699 46.3983L25.7388 71.7785C24.4804 73.917 24.9531 76.6097 26.7299 78.1998H4.07446C2.21897 78.1998 0.714432 79.7208 0.714432 81.6C0.714432 83.4794 2.21897 84.9998 4.07446 84.9998H69.0264C70.0403 84.9998 71.0001 84.5354 71.6381 83.7388L78.9734 74.568C80.1416 73.1104 79.9183 70.9689 78.4747 69.7866C77.0307 68.6111 74.9178 68.8304 73.75 70.2912Z" fill="#25283E"/>
</svg>
