<svg width="84" height="84" viewBox="0 0 84 84" fill="none" xmlns="http://www.w3.org/2000/svg">
<g clip-path="url(#clip0_691_4035)">
<path d="M47.457 14.7812C50.6237 12.9776 51.7239 8.94795 49.9199 5.78113C48.1162 2.61702 44.0893 1.51117 40.9224 3.31824C37.7557 5.1248 36.6499 9.15137 38.4539 12.3209C40.2635 15.4848 44.2956 16.5881 47.457 14.7812Z" fill="#25283E"/>
<path d="M39.2496 70.1906C39.8361 70.5062 40.4935 70.7076 41.2045 70.7187C41.2282 70.7187 41.252 70.7187 41.2758 70.7187C41.9781 70.7187 42.6315 70.5339 43.2181 70.2328L42.7682 67.0799L39.2496 70.1906Z" fill="#25283E"/>
<path d="M82.8298 63.483L71.8747 51.883C71.2574 50.6264 65.1659 37.8089 64.1671 36.9122L59.1241 28.0657L61.3916 28.8504L72.5715 38.3031C74.0754 39.579 76.329 39.3951 77.6093 37.8843C78.8838 36.3761 78.6955 34.1197 77.1879 32.8463L65.4981 22.9611C65.1615 22.6758 64.7747 22.4551 64.3587 22.3103C57.0998 19.8024 51.428 17.4709 49.406 17.6129C47.4291 17.7667 44.4745 19.6069 43.4916 20.7155L44.9298 20.777L35.3372 22.9326L24.9589 20.6989C23.0375 20.2827 21.1301 21.5087 20.7116 23.4385C20.2966 25.371 21.5241 27.2698 23.4536 27.6855L34.6014 30.0874C35.1265 30.1992 35.6473 30.1934 36.1388 30.0818L46.5004 27.7527L36.7657 32.8716C35.8678 33.3436 35.2616 33.1565 34.3194 32.9525C33.3308 33.4524 24.3247 37.8563 23.5889 38.6774C22.6508 39.2164 20.5216 40.9979 19.8385 42.2016C13.0011 48.5658 14.4 47.2644 12.6268 48.9121L2.93003 50.6908C0.989156 51.0451 -0.296744 52.9079 0.0592841 54.8511C0.42937 56.8789 2.48203 58.0345 4.22017 57.7222L14.9435 55.7563C16.1022 55.5439 16.8898 54.7116 17.6986 53.9577L21.8886 50.0595L29.8933 59.3784L25.1503 63.5701L11.7697 59.853C9.56939 59.2385 7.12885 60.523 6.48912 62.838C5.85515 65.1199 7.19136 67.4847 9.47437 68.1188L25.0984 72.4586C26.457 72.8383 27.9734 72.5228 29.0864 71.5395C38.5277 63.1956 35.9476 65.4742 41.608 60.473C46.2662 60.9842 44.8376 60.8277 47.6972 61.1429L50.0863 77.8674C50.4159 80.1711 52.5324 81.8359 54.9382 81.509C57.2839 81.1736 58.9131 79.0014 58.5781 76.6554L55.7183 56.6384C55.4423 54.7006 53.8881 53.1955 51.9429 52.9804L40.512 51.7211L32.1987 42.0396L37.4527 39.3782C38.402 38.8975 39.1126 38.638 39.7288 37.7806L44.7941 30.7798L50.7311 41.1903L43.0866 45.9404L43.3812 46.2841L52.5715 47.2951C53.6885 47.4179 54.7468 47.7277 55.7214 48.1857L59.3504 45.9293C59.3602 45.924 59.3685 45.9154 59.3782 45.9071L64.4622 56.2505C64.6522 56.6358 64.8978 56.9903 65.1924 57.3033L76.5917 69.3753C78.2197 71.0988 80.9311 71.1739 82.6557 69.5485C84.3782 67.9207 84.4553 65.2059 82.8298 63.483Z" fill="#25283E"/>
<path d="M15.3597 38.6295C17.2545 39.1012 19.339 38.691 20.9308 37.3202C22.3215 36.1277 23.0364 34.4551 23.0839 32.7574C23.1049 31.9695 22.9802 31.1849 22.7036 30.4338C20.5817 29.9226 18.9508 28.4175 18.2109 26.513C16.3593 26.1025 14.3473 26.5181 12.7946 27.8508C10.1822 30.0957 9.8846 34.0386 12.1302 36.6527C13.0067 37.6746 14.1449 38.3311 15.3597 38.6295Z" fill="#25283E"/>
</g>
<defs>
<clipPath id="clip0_691_4035">
<rect width="84" height="84" fill="white"/>
</clipPath>
</defs>
</svg>
