<svg width="84" height="84" viewBox="0 0 84 84" fill="none" xmlns="http://www.w3.org/2000/svg">
<path d="M72.3242 42.418C70.6911 38.0524 65.7809 24.9554 65.7809 24.9554C64.7024 22.0812 61.5004 20.623 58.6251 21.7011L53.9633 23.448L46.5567 24.7729L38.8664 17.3923C38.2513 16.7971 37.4346 16.5807 36.6445 16.6652L29.0087 1.01584C28.6765 0.325501 27.8461 0.0367749 27.1464 0.37442C26.4547 0.712064 26.1663 1.5466 26.5039 2.23814L34.3678 18.3531C33.949 19.3797 34.156 20.5996 35.0056 21.4139L36.6117 22.9539L46.8069 43.8516L44.3341 51.6952L40.8271 49.2949C39.6018 48.4565 38.7686 47.1589 38.5178 45.6966L35.8112 29.9927C35.7108 29.4033 35.5119 28.8356 35.2283 28.3114L29.9678 18.5903L25.3003 1.62186C25.0358 0.664685 24.165 0 23.1706 0H13.4663C12.2488 0 11.26 0.988646 11.26 2.20718V81.4444C11.26 82.6631 12.2488 83.6512 13.4661 83.6512H59.6754C60.4654 83.6512 61.2008 83.2265 61.5925 82.5376C61.9847 81.85 61.9792 81.0031 61.576 80.3211L53.6467 66.8993C53.4724 66.6051 53.328 66.2949 53.2112 65.975L50.1207 57.4273C51.0057 56.9222 51.7139 56.1065 52.046 55.0594L52.1328 54.7764L66.0095 83.2168C66.2487 83.7126 66.7442 83.9997 67.2616 83.9997C67.466 83.9997 67.6757 83.9548 67.8719 83.8582C68.5634 83.5206 68.852 82.686 68.5143 81.9945L61.5439 67.7079C61.5978 67.7106 61.6498 67.7352 61.7072 67.7352C62.023 67.7352 62.3497 67.6986 62.6709 67.6222C64.9202 67.0914 66.3118 64.8381 65.7807 62.5902L63.4336 52.6579L70.9271 48.1296C72.3979 47.2391 73.3197 45.0795 72.3242 42.418ZM42.444 28.5537L43.7187 29.7791C44.2414 30.2828 44.9386 30.5565 45.6522 30.5565C45.8155 30.5565 45.9789 30.5415 46.1422 30.5127L55.3354 28.8666L58.8449 38.2327L52.9011 37.006C50.7988 36.5731 48.7129 37.7998 48.0677 39.846L48.0212 39.9888L42.444 28.5537ZM53.3527 50.9124L54.9104 45.9621L57.4672 46.4903L56.5008 47.0756C54.9432 48.015 54.175 49.8491 54.5919 51.6162L55.4331 55.1849L53.3527 50.9124Z" fill="#25283E"/>
<path d="M55.1851 20.8556C58.6407 20.8556 61.4428 18.0539 61.4428 14.5969C61.4428 11.1412 58.6407 8.33952 55.1851 8.33952C51.7301 8.33952 48.9251 11.1412 48.9251 14.5969C48.9253 18.0539 51.7301 20.8556 55.1851 20.8556Z" fill="#25283E"/>
</svg>
