<svg width="84" height="84" viewBox="0 0 84 84" fill="none" xmlns="http://www.w3.org/2000/svg">
<path d="M32.7487 51.1693L43.0943 46.6085L37.3095 40.8237L32.7487 51.1693Z" fill="#25283E"/>
<path d="M46.5819 43.1358L51.2167 32.7013L40.7822 37.336L46.5819 43.1358Z" fill="#25283E"/>
<path d="M71.6986 12.3014C63.7657 4.36882 53.2186 0 42 0C30.7814 0 20.2343 4.36882 12.3014 12.3014C4.36882 20.2343 0 30.7814 0 42C0 53.2186 4.36882 63.7657 12.3014 71.6986C20.2343 79.6312 30.7814 84 42 84C53.2186 84 63.7657 79.6312 71.6986 71.6986C79.6312 63.7657 84 53.2186 84 42C84 30.7814 79.6312 20.2343 71.6986 12.3014V12.3014ZM64.7379 64.7381C58.6643 70.8115 50.5892 74.1562 42 74.1562C33.4108 74.1562 25.3357 70.8113 19.2619 64.7379C13.1885 58.6643 9.84375 50.5892 9.84375 42C9.84375 33.4108 13.1887 25.3357 19.2621 19.2619C25.3357 13.1885 33.4107 9.84375 42 9.84375C50.5893 9.84375 58.6643 13.1887 64.7381 19.2621C70.8115 25.3357 74.1562 33.4107 74.1562 42C74.1562 50.5893 70.8113 58.6643 64.7379 64.7381Z" fill="#25283E"/>
<path d="M61.2578 22.7423C56.1136 17.5985 49.2745 14.7656 42 14.7656C34.7255 14.7656 27.8864 17.5985 22.7423 22.7422C17.5985 27.8864 14.7656 34.7255 14.7656 42C14.7656 49.2745 17.5985 56.1136 22.7422 61.2577C27.8864 66.4015 34.7255 69.2344 42 69.2344C49.2745 69.2344 56.1136 66.4015 61.2577 61.2578C66.4015 56.1136 69.2344 49.2745 69.2344 42C69.2344 34.7255 66.4015 27.8864 61.2578 22.7423V22.7423ZM58.3103 28.8558L49.6253 48.4093C49.3812 48.9625 48.9225 49.4196 48.3689 49.6622L28.9314 58.2312C28.0109 58.6384 26.919 58.4412 26.1986 57.7195C25.4805 57.0014 25.2773 55.9159 25.6869 54.9867L34.2558 35.5492C34.5004 34.995 34.9558 34.5401 35.5087 34.2928L55.0622 25.608C55.9926 25.1948 57.0816 25.3972 57.8012 26.1169C58.5211 26.8365 58.7235 27.9254 58.3103 28.8558V28.8558Z" fill="#25283E"/>
</svg>
