<svg width="84" height="84" viewBox="0 0 84 84" fill="none" xmlns="http://www.w3.org/2000/svg">
<g clip-path="url(#clip0_691_4052)">
<path d="M34.5682 21.1677C38.5752 21.1677 41.8207 17.9213 41.8207 13.9154C41.8207 9.91109 38.5752 6.66444 34.5682 6.66444C30.5637 6.66444 27.3157 9.91109 27.3157 13.9154C27.3157 17.9213 30.5639 21.1677 34.5682 21.1677Z" fill="#25283E"/>
<path d="M58.9657 1.19144C58.4238 0.120403 57.112 -0.308759 56.0339 0.23723C54.961 0.785775 54.5348 2.09761 55.0823 3.16899C55.2036 3.40401 55.3052 3.64601 55.4205 3.88256C55.0218 4.09714 39.238 22.5307 38.9437 22.8745C40.1372 22.602 41.353 22.7824 42.3982 23.3129C43.4433 23.8395 44.3233 24.7003 44.8154 25.8582C45.2582 26.8909 45.327 27.9827 45.0988 29.0017H60.4393C60.104 34.531 58.8445 40.0081 56.691 45.2036L44.3064 30.8086C43.4127 32.107 42.054 32.8631 40.5633 33.0104L27.5272 34.2219L40.063 31.0385C41.6935 30.6231 42.681 28.9635 42.2686 27.3312C41.8503 25.6947 40.1892 24.7157 38.5582 25.124L26.0229 28.3089C35.5028 24.2494 32.3263 25.6108 38.0607 23.1521C38.3249 23.0406 38.5916 22.968 38.861 22.9018H37.8378C37.2247 22.6998 36.5808 22.5635 35.9016 22.5635H33.234C31.7299 22.5635 30.3682 23.1164 29.2927 24.0033C28.4788 24.5466 20.6982 29.6691 20.063 30.2796C19.1778 31.1419 18.9628 32.3973 19.1939 33.1908C19.4853 34.4186 20.7066 35.4762 22.1283 35.4887C22.1364 35.4887 22.142 35.4912 22.1473 35.4912C22.1473 35.4912 22.1473 35.4912 22.1504 35.4912C22.7359 35.4912 26.361 34.5176 26.9909 34.3582C26.9909 54.559 26.9689 74.63 26.9689 80.2239C26.9689 82.3087 28.66 84.0002 30.7449 84.0002C32.8294 84.0002 34.5212 82.3087 34.5212 80.2239V55.1237H37.2825V80.2237C37.2825 81.368 36.9604 82.4268 36.4463 83.3632C37.0292 83.7316 37.6782 84 38.4209 84C40.5056 84 42.1969 82.3086 42.1969 80.2237C42.1969 49.2162 42.1446 32.8139 42.1446 32.7505C42.4695 33.1272 54.9885 47.7765 55.4231 48.0129C55.3074 48.2521 55.2058 48.4955 55.082 48.735C54.5344 49.8063 54.9607 51.118 56.0336 51.6652C56.3497 51.8259 56.6879 51.9033 57.0209 51.9033C57.8158 51.9033 58.5801 51.4687 58.9654 50.7123C66.8672 35.208 66.8672 16.6959 58.9657 1.19144ZM42.7531 22.9018L56.6913 6.70021C58.8448 11.8939 60.1043 17.3726 60.4397 22.9018H42.7531Z" fill="#25283E"/>
</g>
<defs>
<clipPath id="clip0_691_4052">
<rect width="84" height="84" fill="white"/>
</clipPath>
</defs>
</svg>
