<svg width="84" height="84" viewBox="0 0 84 84" fill="none" xmlns="http://www.w3.org/2000/svg">
<path d="M35.7734 35.4919C33.4961 37.3984 30.2414 37.4693 27.893 35.6724C25.9081 34.156 25.1006 31.698 25.5627 29.4047L19.8947 29.9319L33.5114 26.4737C35.284 26.0237 36.3562 24.2211 35.9065 22.447C35.4567 20.6703 33.6535 19.6025 31.8782 20.0506L18.2612 23.5088L24.4349 20.8644C23.7383 20.0908 23.2267 19.1537 22.9799 18.1058L12.2141 25.2409C10.9104 26.0872 10.294 27.9886 11.1968 29.613C11.9367 30.8827 13.3791 31.5856 14.8711 31.2077L19.3123 30.0798C19.3123 33.6952 19.2875 52.2495 19.2875 79.8976C19.2875 82.1626 21.1245 83.9998 23.3899 83.9998C25.6553 83.9998 27.4924 82.1626 27.4924 79.8976V52.6347H30.4912V79.8976C30.4912 81.1411 30.1428 82.2906 29.582 83.3078C30.2168 83.7086 30.9224 84 31.7271 84C33.9925 84 35.8293 82.1628 35.8293 79.8977C35.8292 58.3028 35.7734 37.7296 35.7734 35.4919Z" fill="#25283E"/>
<path d="M23.214 14.4476C24.1111 12.0544 26.401 10.3421 29.1068 10.3421H34.9878C35.2464 9.56232 35.4193 8.74258 35.4193 7.87627C35.4193 3.52597 31.8931 0 27.5411 0C23.1924 0 19.6667 3.52597 19.6667 7.87644C19.6667 10.6255 21.0783 13.0392 23.214 14.4476Z" fill="#25283E"/>
<path d="M39.1887 31.2973C39.2194 31.2973 39.2534 31.3101 39.284 31.3101C39.879 31.3101 40.4706 31.1511 40.9978 30.8322L52.6545 23.785C53.0149 23.5676 53.3016 23.281 53.5448 22.9666H45.5591L39.1887 31.2973Z" fill="#25283E"/>
<path d="M71.6523 15.0763C66.9644 15.0763 63.0597 15.0763 58.1498 15.0763C57.6012 14.1501 56.6334 13.4983 55.4775 13.4983C38.8218 13.4983 54.023 13.4983 43.8706 13.4983C43.8706 4.05144 43.8706 19.7411 43.8706 9.35595C43.8706 8.48351 43.1644 7.77801 42.2925 7.77801C41.4202 7.77801 40.7144 8.48351 40.7144 9.35595C40.7144 12.7956 40.7144 7.29861 40.7144 13.4983C35.441 13.4983 34.1432 13.4983 29.107 13.4983C27.3628 13.4983 25.9511 14.9115 25.9511 16.6544C25.9511 17.8933 26.6816 18.9412 27.7205 19.4558L31.3357 17.9086C34.2604 16.6557 37.5247 18.1643 38.6742 20.8474C40.1475 24.2792 37.9035 28.2336 34.0543 28.6157L29.0548 29.0797C28.26 30.4359 28.5309 32.1864 29.8099 33.1665C31.2031 34.2314 33.1819 33.9539 34.233 32.5762L44 19.8103C58.4859 19.8103 38.1472 19.8103 55.4779 19.8103C56.6337 19.8103 57.6013 19.1585 58.1501 18.2322C62.9579 18.2322 67.0421 18.2322 71.6527 18.2322C72.5251 18.2322 73.231 17.5265 73.231 16.6542C73.2306 15.7821 72.5246 15.0763 71.6523 15.0763Z" fill="#25283E"/>
</svg>
