<svg width="84" height="84" viewBox="0 0 84 84" fill="none" xmlns="http://www.w3.org/2000/svg">
<g clip-path="url(#clip0_691_4147)">
<path d="M82.062 78.5174L73.1508 65.6801L78.3206 56.1446C78.8468 55.1743 79.0839 54.0727 79.0032 52.971L77.4471 31.7102C77.301 29.7062 75.5585 28.1995 73.5545 28.345L62.6418 29.0557L68.6416 31.2564L59.2176 30.2118L50.9959 21.578C49.834 20.3578 47.9037 20.311 46.6828 21.4729C45.4633 22.6348 45.4158 24.5658 46.5777 25.786L55.5666 35.2247C56.062 35.7451 56.7253 36.0739 57.4398 36.1533L67.9693 37.3204L62.3258 38.0625L63.4332 53.3081L55.6178 63.0295C55.4301 63.2627 55.2731 63.5204 55.1513 63.794L48.3273 79.0858C47.5416 80.8463 48.3318 82.9105 50.0929 83.6962C51.854 84.4819 53.9183 83.6911 54.7033 81.9306L61.3434 67.0522L70.2322 56.4131L65.9884 64.2414C65.3597 65.4 65.4379 66.8138 66.1896 67.8962L76.3263 82.4991C77.4273 84.0852 79.603 84.4742 81.1847 83.3758C82.7683 82.2761 83.1611 80.101 82.062 78.5174V78.5174Z" fill="#25283E"/>
<path d="M64.4137 26.6217C64.5618 26.6217 64.7105 26.6159 64.8604 26.605C68.2102 26.3621 70.7282 23.4494 70.4853 20.0995C70.2527 16.8997 67.5841 14.4586 64.4265 14.4586C64.2785 14.4586 64.1292 14.4637 63.9792 14.4746C60.63 14.7182 58.1114 17.6309 58.355 20.9807C58.587 24.18 61.2555 26.6217 64.4137 26.6217Z" fill="#25283E"/>
<path d="M37.214 49.4559C55.7076 51.3484 54.6995 51.2689 55.0513 51.2689C56.8977 51.2689 58.4774 49.8526 58.6325 47.9639C58.7946 45.9984 57.2918 44.2847 55.3295 44.0835L37.7216 42.2749C37.5703 42.2589 37.4178 42.2538 37.2666 42.257L25.3451 41.6757L26.6371 33.2028L32.8741 37.3729C33.1451 37.5543 33.4444 37.6902 33.7597 37.7748L45.2012 40.8599C46.8347 41.3008 48.4965 40.3049 48.8945 38.6739C49.2829 37.0807 48.269 35.4772 46.6854 35.0504L35.7971 32.114L27.8208 26.3365C26.755 25.5643 25.5111 25.0734 24.2057 24.9099L15.7968 23.8564L9.93927 14.9649L9.06705 2.78393C8.94913 1.13241 7.51807 -0.110237 5.8627 0.0076833C4.21118 0.126244 2.96854 1.56051 3.08646 3.21203L4.01444 16.1743C4.05161 16.6863 4.21887 17.1804 4.5015 17.6092L11.6677 28.4886C11.685 28.5148 11.7042 28.5398 11.7222 28.5655L9.12537 47.3487L1.97135 57.5475C0.316623 59.9072 1.94828 63.1916 4.9751 63.2115L24.2627 63.3377H24.287C26.2628 63.3377 27.8708 61.7426 27.8842 59.7636C27.8971 57.7769 26.2968 56.1555 24.3101 56.1427L11.8036 56.0607L16.6671 49.1258L37.214 49.4559Z" fill="#25283E"/>
<path d="M20.991 10.1443C17.6925 9.68866 14.6484 11.9926 14.1927 15.2918C13.737 18.5903 16.0416 21.6338 19.3402 22.0895C22.6387 22.5451 25.6822 20.2406 26.1379 16.942C26.5942 13.6435 24.2896 10.6 20.991 10.1443Z" fill="#25283E"/>
</g>
<defs>
<clipPath id="clip0_691_4147">
<rect width="84" height="84" fill="white"/>
</clipPath>
</defs>
</svg>
