<svg width="84" height="84" viewBox="0 0 84 84" fill="none" xmlns="http://www.w3.org/2000/svg">
<g clip-path="url(#clip0_691_4160)">
<path d="M41.6586 27.4271C40.9321 26.0729 39.283 25.5849 37.9752 26.3373L33.6776 28.8099L30.8447 24.3231C30.7609 24.3262 30.6772 24.3297 30.5927 24.3297C27.7393 24.3297 25.2817 22.5466 24.2007 20.0006C20.8789 20.0003 15.273 20 15.273 20C14.2857 20 13.3766 20.5563 12.9003 21.4519L9.46922 27.9037C8.74759 29.2608 9.22482 30.9668 10.5352 31.7141C10.9496 31.9504 11.3976 32.0626 11.8395 32.0626C12.7949 32.0626 13.7212 31.5381 14.2146 30.6102L16.8736 25.6102H21.9894L14.1787 39.7295H4.70878C3.21283 39.7295 2 40.9854 2 42.5346C2 44.0838 3.21275 45.3398 4.70878 45.3398H15.7245C16.6824 45.3398 17.5692 44.8159 18.0565 43.9617L20.0023 40.5517L24.9148 44.5599L21.9695 52.148C21.4116 53.5854 22.0845 55.2191 23.4725 55.7969C23.8038 55.9347 24.1456 56 24.482 56C25.5553 56 26.5713 55.3349 26.9961 54.2403L30.6981 44.7028C31.1466 43.5473 30.8058 42.2239 29.8612 41.4532L24.4143 37.009L28.1803 30.3549L30.5225 34.0647C31.0398 34.8837 31.9048 35.3351 32.7917 35.3351C33.2378 35.3351 33.6896 35.2208 34.1052 34.9817L40.6063 31.2415C41.914 30.4892 42.3852 28.7814 41.6586 27.4271Z" fill="#25283E"/>
<path d="M31 22C33.7614 22 36 20.1038 36 17.7647C36 15.4256 33.7614 13 31 13C28.2386 13 26 15.4256 26 17.7647C26 20.1038 28.2386 22 31 22Z" fill="#25283E"/>
<path d="M39.9978 73.133C38.8382 74.0345 37.405 74.5924 35.8324 74.5924C32.0426 74.5924 28.9587 71.4746 28.9587 67.643C28.9587 63.8106 32.0426 60.6926 35.8324 60.6926C38.6927 60.6926 41.1458 62.4707 42.1801 64.9887L44.3326 62.7316C42.6375 59.7405 39.4864 57.7014 35.8324 57.7014C30.4013 57.7014 26 62.1522 26 67.643C26 73.133 30.4013 77.5837 35.8324 77.5837C38.3876 77.5837 40.6931 76.574 42.4421 74.9576C41.7709 74.7299 41.1342 74.3686 40.5901 73.8389C40.3657 73.6197 40.172 73.3802 39.9978 73.133Z" fill="#25283E"/>
<path d="M54.9278 57.7772L49.7213 54.7197C52.0432 53.2505 51.1822 53.7946 53.5042 52.3253L53.4311 53.0731C53.3058 54.3459 54.2335 55.5106 55.4015 55.7499C55.4295 55.7557 64.5414 57.3215 64.8737 57.3215C66.0574 57.3215 67.1025 56.4568 67.3026 55.2368C67.526 53.8784 66.6179 52.5949 65.2744 52.3702L58.5662 51.2435L58.8852 48.007C59.2068 45.9388 59.3464 45.2903 58.5826 44.0565L57.6224 42.5044C56.3819 40.5014 53.7662 39.8889 51.7802 41.146L41.2709 47.7984C38.6897 49.4323 37.4309 52.8775 39.5382 55.4118C40.3615 56.4022 48.3658 61.3751 48.3658 61.3751L41.8832 68.1736C40.7487 69.3624 40.7824 71.2564 41.9593 72.4025C42.5333 72.9622 43.273 73.2407 44.0126 73.2407C44.788 73.2407 45.5623 72.9351 46.1421 72.3254L55.571 62.4394C56.9012 61.0479 56.5892 58.7527 54.9278 57.7772Z" fill="#25283E"/>
<path d="M65.9727 44.1976C68.2775 42.738 68.9758 39.6668 67.5329 37.3377C66.0903 35.0065 63.0525 34.3006 60.748 35.7593C58.4441 37.218 57.7459 40.2881 59.1878 42.6172C60.6302 44.9484 63.6681 45.6553 65.9727 44.1976Z" fill="#25283E"/>
<path d="M65.1675 57.7014C59.6798 57.7014 55.3351 62.2789 55.3351 67.643C55.3351 73.133 59.7365 77.5837 65.1675 77.5837C70.5974 77.5837 75 73.133 75 67.643C75 62.1522 70.5974 57.7014 65.1675 57.7014ZM65.1675 74.5924C61.3776 74.5924 58.2938 71.4746 58.2938 67.643C58.2938 63.8106 61.3777 60.6926 65.1675 60.6926C68.9574 60.6926 72.0413 63.8106 72.0413 67.643C72.0414 71.4746 68.9574 74.5924 65.1675 74.5924Z" fill="#25283E"/>
<path d="M85.1285 5.94297C85.1285 5.94297 80.6903 4.76394 78.2563 7.19308C77.1711 8.27617 75.2494 8.27857 74.1596 7.18828C71.275 4.30254 66.3256 4.20769 63.2526 7.28104C62.2027 8.32555 60.389 8.33365 59.3318 7.27623C56.4872 4.44078 51.5376 4.44453 48.7024 7.27623C47.4172 8.5588 45.3288 8.55639 44.0486 7.27623C43.1208 6.35375 41.6221 6.35284 40.6942 7.27863C39.7686 8.20352 39.7686 9.70552 40.6942 10.6301C42.2612 12.1944 44.3187 12.9759 46.3742 12.9759C48.4322 12.9759 50.4924 12.1932 52.0591 10.6279C53.095 9.59025 54.9392 9.58695 55.98 10.6312C58.8197 13.4677 63.6732 13.5649 66.7012 10.5396C67.7983 9.44496 69.7056 9.44496 70.8051 10.5396C73.6755 13.4079 78.7495 13.4102 81.6205 10.5375C82.7524 9.40623 84.5979 9.89341 86.4483 11.2177C88.2987 12.542 89.8297 9.85864 88.07 7.90081C86.3102 5.94297 85.1285 5.94297 85.1285 5.94297Z" fill="#25283E"/>
<path d="M85.1285 13.8551C85.1285 13.8551 80.6903 12.6761 78.2563 15.1052C77.1711 16.1883 75.2494 16.1907 74.1596 15.1004C71.275 12.2147 66.3256 12.1198 63.2526 15.1931C62.2027 16.2377 60.389 16.2458 59.3318 15.1883C56.4872 12.3529 51.5376 12.3566 48.7024 15.1883C47.4172 16.4709 45.3288 16.4685 44.0486 15.1883C43.1208 14.2659 41.6221 14.265 40.6942 15.1907C39.7686 16.1156 39.7686 17.6176 40.6942 18.5422C42.2612 20.1065 44.3187 20.8881 46.3742 20.8881C48.4322 20.8881 50.4924 20.1053 52.0591 18.54C53.095 17.5024 54.9392 17.4991 55.98 18.5433C58.8197 21.3798 63.6732 21.477 66.7012 18.4517C67.7983 17.3571 69.7056 17.3571 70.8051 18.4517C73.6755 21.32 78.7495 21.3223 81.6205 18.4496C82.7524 17.3183 84.5979 17.8055 86.4483 19.1298C88.2987 20.4541 89.8297 17.7708 88.07 15.8129C86.3102 13.8551 85.1285 13.8551 85.1285 13.8551Z" fill="#25283E"/>
</g>
<defs>
<clipPath id="clip0_691_4160">
<rect width="84" height="84" fill="white"/>
</clipPath>
</defs>
</svg>
