<svg width="84" height="84" viewBox="0 0 84 84" fill="none" xmlns="http://www.w3.org/2000/svg">
<g clip-path="url(#clip0_691_4141)">
<path d="M44.7497 22.6035C47.9311 21.4371 49.5638 17.9105 48.3945 14.7308C47.2254 11.5501 43.7012 9.92092 40.5181 11.0873C37.3392 12.2567 35.7092 15.782 36.8785 18.9602C38.0445 22.1423 41.5717 23.7728 44.7497 22.6035Z" fill="#25283E"/>
<path d="M72.6622 18.1233C71.5885 16.5065 69.4015 16.0717 67.7928 17.1418L58.7168 23.1729L47.9719 24.3711C47.5105 24.4218 46.0586 24.9075 45.7429 25.0242L43.6214 25.8024C43.1277 25.9834 42.3178 26.3951 41.4339 27.2186L33.6258 34.4299L27.2421 29.1616C27.0416 28.9971 26.8059 28.9228 26.5831 28.809L23.0209 17.8761C25.3427 15.7941 26.1827 11.6388 24.816 7.44653C23.128 2.26778 18.759 -0.953083 15.0617 0.253251C11.3596 1.46197 9.72925 6.63578 11.4171 11.8132C12.7838 16.0055 15.907 18.8682 19.0139 19.1825L22.3924 29.5556C22.3649 29.5873 22.3237 29.6009 22.2967 29.634C21.0614 31.131 21.2727 33.3445 22.7685 34.5796L24.4949 36.0041L25.0439 37.6892C25.3318 38.5786 26.1584 39.144 27.0472 39.144C27.2639 39.144 27.4836 39.1109 27.7003 39.0395C27.8076 39.0051 27.8841 38.9313 27.9802 38.8818L31.5179 41.8021C32.8659 42.9148 34.8446 42.8695 36.1371 41.6742L41.8761 36.373L46.3524 48.5602L44.6619 63.2425L37.8962 78.0287C36.9275 80.1461 37.8605 82.6478 39.9767 83.6168C42.1008 84.5869 44.5985 83.651 45.5645 81.5363L52.6069 66.1421C52.7908 65.7399 52.909 65.3103 52.961 64.8701L54.2454 53.7066L59.5369 61.6714L59.5119 79.6441C59.5095 81.9714 61.3922 83.8624 63.7224 83.8651C63.7253 83.8651 63.7253 83.8651 63.7279 83.8651C66.0524 83.8651 67.9409 81.9809 67.9432 79.6551L67.971 60.4077C67.971 59.576 67.7268 58.7621 67.2654 58.0692L58.8507 45.4031L53.4959 30.824L60.3414 30.0609C60.8951 29.9992 61.4309 29.8058 61.8946 29.4954L71.6788 22.9938C73.2957 21.92 73.7352 19.7396 72.6622 18.1233Z" fill="#25283E"/>
</g>
<defs>
<clipPath id="clip0_691_4141">
<rect width="84" height="84" fill="white"/>
</clipPath>
</defs>
</svg>
