<svg width="84" height="84" viewBox="0 0 84 84" fill="none" xmlns="http://www.w3.org/2000/svg">
<g clip-path="url(#clip0_691_4134)">
<path d="M22.4014 35.6542C23.1801 40.9581 21.4031 46.3423 17.6119 50.1298L3.67879 64.0659C0.75694 66.9878 0.75694 71.7219 3.68216 74.6472C6.5993 77.5678 11.342 77.5624 14.2541 74.6472L28.1903 60.711C31.9857 56.9141 37.3564 55.1398 42.6676 55.9203C45.1031 56.279 47.6156 56.2615 50.134 55.9469L22.3748 28.1874C22.0587 30.7059 22.0439 33.2183 22.4014 35.6542Z" fill="#25283E"/>
<path d="M71.332 6.98659C61.0891 -3.25631 43.3321 -2.10214 31.6669 9.56423C29.0162 12.2136 26.9328 15.1857 25.3793 18.3066L60.0152 52.9387C63.1355 51.3877 66.1078 49.3025 68.7584 46.6535C80.4224 34.9897 81.575 17.2298 71.332 6.98659Z" fill="#25283E"/>
<path d="M73.1355 65.2467C67.956 65.2467 63.7588 69.4441 63.7588 74.6234C63.7588 79.8028 67.956 84 73.1355 84C78.3133 84 82.5122 79.8026 82.5122 74.6234C82.5122 69.4441 78.3133 65.2467 73.1355 65.2467Z" fill="#25283E"/>
</g>
<defs>
<clipPath id="clip0_691_4134">
<rect width="84" height="84" fill="white"/>
</clipPath>
</defs>
</svg>
