<svg width="84" height="84" viewBox="0 0 84 84" fill="none" xmlns="http://www.w3.org/2000/svg">
<path d="M61.2091 24.9096L61.4937 20.8688C61.6986 20.9098 61.8873 20.9808 62.1112 20.9808C64.7497 20.9808 66.051 18.1263 66.5049 14.9606C67.4676 14.455 68.159 13.4921 68.1892 12.3246C68.2191 11.0997 67.522 10.0447 66.5049 9.51404C66.0481 6.35641 64.7443 3.51026 62.1112 3.51026C60.1456 3.51026 58.9317 5.11253 58.2483 7.22851C56.9469 7.25595 55.8397 7.89008 55.1559 8.88532L33.188 8.31691L32.8438 7.7866C31.9551 6.41671 30.3475 5.80408 28.8411 6.09947C28.0758 2.75028 26.4324 0 23.4741 0C19.9142 0 18.2469 3.95893 17.7437 8.18293C16.6392 8.63685 15.8435 9.7056 15.8108 10.98C15.778 12.3006 16.5871 13.4349 17.741 13.911C18.2413 18.1483 19.9061 22.1264 23.4741 22.1264C26.4625 22.1264 28.1083 19.3213 28.8658 15.923C37.3112 28.9696 34.1534 23.9284 42.7244 38.0384L43.1429 53.5159C42.8176 54.2242 40.3105 65.1928 40.1327 65.9555L27.8543 75.6971C25.8391 77.2937 25.4976 80.2216 27.0997 82.2339C28.6937 84.2519 31.6245 84.5906 33.6367 82.9888L47.1894 72.2413C48.0148 71.5905 48.592 70.68 48.8325 69.6548L51.5472 59.0821L57.4555 65.6194V79.3439C57.4555 81.914 59.5417 84 62.1114 84C64.6816 84 66.7678 81.914 66.7678 79.3439V63.8231C66.7678 62.6693 66.341 61.5565 65.5646 60.7005L57.2505 51.5086L56.8732 37.5541L60.9933 25.9348C61.1109 25.6042 61.1844 25.26 61.2091 24.9096ZM51.8453 28.7537C49.0319 29.1556 46.3993 29.1447 46.3993 29.1447L37.2757 14.6381C42.3472 14.7638 40.7207 14.7255 45.1442 14.8376C44.1929 16.0407 43.6156 17.5525 43.6622 19.2068C43.7579 22.8839 46.7709 25.7983 50.4236 25.7983C50.4863 25.7983 50.5523 25.7983 50.6148 25.7957C54.358 25.6943 57.308 22.583 57.2068 18.8374C57.1711 17.4512 56.7172 16.1721 55.9709 15.1164L59.5386 15.2092C59.9929 16.3057 60.2769 17.4922 60.3098 18.7554C60.4466 23.8105 56.728 28.0428 51.8453 28.7537Z" fill="#25283E"/>
</svg>
