<svg width="84" height="84" viewBox="0 0 84 84" fill="none" xmlns="http://www.w3.org/2000/svg">
<path d="M78.5026 76.1886L50.5089 44.709L51.7052 27.0904H65.8146C68.4901 27.0904 70.3685 24.4376 69.4708 21.9112L66.4693 13.4632L59.9487 18.2904L60.3181 19.3301H58.5443L33.1508 38.1288C33.9585 40.6668 32.9785 43.4422 30.7207 44.9031L30.7202 44.9103L21.1457 59.4173C20.4092 60.5332 20.1838 61.9102 20.5258 63.2026L25.1063 80.5072C25.7715 83.0201 28.3451 84.5037 30.843 83.8426C33.3482 83.1795 34.8415 80.6112 34.1784 78.1059L30.1357 62.8328L38.1997 50.6148L43.2977 50.7219L71.4896 82.4246C73.2034 84.3519 76.1687 84.5428 78.1141 82.8129C80.0507 81.0911 80.2246 78.1251 78.5026 76.1886V76.1886Z" fill="#25283E"/>
<path d="M59.4618 5.33037C57.587 5.99659 56.5432 7.95675 56.9776 9.84981L62.6907 5.62048C61.7424 5.0776 60.572 4.93617 59.4618 5.33037V5.33037Z" fill="#25283E"/>
<path d="M19.5741 40.0973L5.21081 50.7304C4.22539 51.4601 4.01784 52.8504 4.74737 53.8359C5.4746 54.8182 6.86442 55.031 7.85281 54.2991L22.6207 43.3664L19.5741 40.0973Z" fill="#25283E"/>
<path d="M31.8406 35.8922C31.9605 36.0209 32.0737 36.1537 32.1801 36.2898L75.2159 4.43046C76.2015 3.70093 76.4088 2.31062 75.6793 1.32519C74.9495 0.339603 73.559 0.132059 72.5739 0.861753L29.1519 33.0069L31.8406 35.8922Z" fill="#25283E"/>
<path d="M14.5603 31.7242L24.6706 42.5737C28.3923 46.2102 33.7042 41.1688 30.2847 37.2152L24.0835 30.5606L31.7515 27.459L31.6855 28.5737L44.5444 18.9688H34.4737C33.0101 18.9688 31.5597 19.2475 30.2003 19.7902L15.9441 25.4819C13.4276 26.4997 12.7044 29.7326 14.5603 31.7242V31.7242Z" fill="#25283E"/>
<circle cx="43" cy="8" r="8" fill="#25283E"/>
</svg>
