<svg width="84" height="84" viewBox="0 0 84 84" fill="none" xmlns="http://www.w3.org/2000/svg">
<g clip-path="url(#clip0_691_4107)">
<path d="M82.7488 75.2454L73.1915 65.6877L67.1516 71.7276L76.7092 81.2851C77.5434 82.1192 78.6365 82.5363 79.729 82.5363C80.8218 82.5363 81.9145 82.1192 82.749 81.2851C84.4171 79.6163 84.4171 76.9136 82.7488 75.2454Z" fill="#25283E"/>
<path d="M35.6572 37.013L38.8191 34.2463L4.98582 1.74525C4.59938 1.37539 3.9874 1.36981 3.59538 1.7395C3.19202 2.1234 3.17544 2.76008 3.55663 3.16327L35.6572 37.013Z" fill="#25283E"/>
<path d="M48.3485 43.3977L45.1839 47.0601L50.7594 52.9382C51.2769 52.2569 51.8077 51.584 52.4251 50.967C53.0564 50.3355 53.7345 49.7741 54.43 49.243L48.3485 43.3977Z" fill="#25283E"/>
<path d="M74.3537 54.882C74.2344 53.9979 73.7116 53.2191 72.9355 52.7774C70.8362 51.5788 68.4894 50.978 66.1425 50.978C62.6356 50.978 59.1296 52.3154 56.4543 54.9935C51.9857 59.4617 51.2488 66.244 54.238 71.4745C54.6801 72.2504 55.4614 72.7733 56.3457 72.8898C56.4736 72.9068 56.6018 72.9149 56.7297 72.9149C57.4806 72.9149 58.2088 72.6173 58.7486 72.0782L73.5392 57.2871C74.1701 56.6561 74.4706 55.7662 74.3537 54.882Z" fill="#25283E"/>
<path d="M1.25119 75.2454C-0.417064 76.9135 -0.417064 79.6163 1.25119 81.2851C2.08566 82.1192 3.17849 82.5363 4.27115 82.5363C5.36397 82.5363 6.4568 82.1192 7.29127 81.2851L16.8484 71.7276L10.8087 65.6877L1.25119 75.2454Z" fill="#25283E"/>
<path d="M80.4381 1.77299C80.0542 1.3725 79.4148 1.35863 79.0145 1.74524L29.5701 49.243C30.265 49.7741 30.9436 50.3354 31.5722 50.967C32.1894 51.584 32.7209 52.2569 33.2406 52.9382L80.4434 3.16326C80.8105 2.77699 80.8134 2.16247 80.4381 1.77299Z" fill="#25283E"/>
<path d="M17.8578 50.9778C15.5109 50.9778 13.164 51.5786 11.0646 52.7772C10.2887 53.2189 9.76574 53.9979 9.64629 54.8818C9.52954 55.7662 9.83003 56.656 10.4613 57.287L25.2518 72.0782C25.7913 72.6172 26.5196 72.9149 27.2708 72.9149C27.3985 72.9149 27.5264 72.9066 27.6545 72.8898C28.5389 72.7732 29.3201 72.2504 29.7625 71.4745C32.7517 66.244 32.0147 59.4617 27.5461 54.9934C24.8709 52.3154 21.3644 50.9778 17.8578 50.9778Z" fill="#25283E"/>
</g>
<defs>
<clipPath id="clip0_691_4107">
<rect width="84" height="84" fill="white"/>
</clipPath>
</defs>
</svg>
