<svg width="84" height="84" viewBox="0 0 84 84" fill="none" xmlns="http://www.w3.org/2000/svg">
<g clip-path="url(#clip0_691_4118)">
<path d="M42.8279 16.4471C46.5358 18.5644 51.262 17.2717 53.3793 13.5637C55.4939 9.85064 54.1978 5.1296 50.4896 3.0121C46.7784 0.896144 42.0553 2.18885 39.9409 5.89862C37.8272 9.60993 39.1166 14.331 42.8279 16.4471Z" fill="#25283E"/>
<path d="M74.1718 26.5927C73.684 24.333 71.4587 22.8781 69.1938 23.3821L57.0349 26.0035L47.9238 23.9532C47.3771 23.1823 46.6766 22.5067 45.8031 22.009L42.648 20.2091C41.3975 19.4956 39.8041 19.2241 38.0662 19.692C35.2416 20.7018 45.3285 16.9561 22.926 25.3049C22.4742 25.4736 22.0525 25.721 21.6822 26.0315L7.98548 37.6176C6.2211 39.1134 5.99903 41.756 7.4943 43.5219C8.98033 45.2792 11.6183 45.5165 13.3987 44.0158L26.5357 32.9012L29.2195 31.9014C20.7134 46.8077 24.6408 39.4631 14.2367 59.9057L1.37123 73.527C-0.533611 75.5447 -0.442082 78.7258 1.57413 80.6322C3.6001 82.5468 6.78448 82.4407 8.68282 80.4295L22.046 66.2826C22.3734 65.9341 22.6514 65.5396 22.8706 65.1109L29.0169 53.0326L44.5694 62.7036L43.5811 76.6212C43.3749 79.5229 45.6688 82.0052 48.6012 82.0052C51.2131 82.0052 53.4225 79.9826 53.6089 77.3348L54.8132 60.3932C54.9475 58.5325 54.0378 56.7521 52.4534 55.7672L38.9894 47.3952L47.515 32.4501L56.0965 34.3807C56.7088 34.5169 57.3203 34.5135 57.8997 34.3874L70.9616 31.5714C73.2224 31.0845 74.659 28.8558 74.1718 26.5927Z" fill="#25283E"/>
<path d="M75.1504 64.294C70.2608 64.294 66.3006 68.2559 66.3006 73.1424C66.3006 78.0302 70.2608 81.992 75.1504 81.992C80.0398 81.992 84.0002 78.0304 84.0002 73.1424C84 68.2559 80.0398 64.294 75.1504 64.294Z" fill="#25283E"/>
</g>
<defs>
<clipPath id="clip0_691_4118">
<rect width="84" height="84" fill="white"/>
</clipPath>
</defs>
</svg>
