<svg width="84" height="84" viewBox="0 0 84 84" fill="none" xmlns="http://www.w3.org/2000/svg">
<path d="M65.7469 44.2881L63.6059 42.5269L66.4389 48.242C67.1724 46.9337 66.9465 45.2721 65.7469 44.2881Z" fill="#25283E"/>
<path d="M49.9546 18.6216C53.2483 21.1266 57.9534 20.4842 60.4582 17.1886C62.9633 13.8906 62.3181 9.18865 59.0209 6.68368C55.7241 4.18024 51.0223 4.82244 48.5204 8.11941C46.0153 11.4174 46.6576 16.118 49.9546 18.6216Z" fill="#25283E"/>
<path d="M83.9263 74.5217C83.5684 72.9023 81.9641 71.8906 80.342 72.2439L78.8459 72.5783C76.8927 73.0184 74.9009 72.0634 74.0122 70.2715L64.8872 51.8732C63.8137 53.8136 61.8163 54.9367 59.7131 54.9603L68.6329 72.9419C70.4103 76.522 74.0209 78.691 77.8898 78.691C79.298 78.691 80.2484 78.4197 81.6503 78.1075C83.2696 77.7466 84.2902 76.141 83.9263 74.5217Z" fill="#25283E"/>
<path d="M54.3664 37.4217C53.6505 37.7749 53.1548 38.3823 52.8994 39.0743L60.2968 42.6236L58.39 38.7781C57.657 37.2895 55.8471 36.6841 54.3664 37.4217Z" fill="#25283E"/>
<path d="M62.497 50.3407C63.2506 48.7702 62.5875 46.8869 61.0183 46.133L47.9103 39.8458L47.7079 23.8059C49.4885 34.1776 48.9633 31.118 50.0954 37.7295L50.1953 37.7778C50.7348 36.5019 51.6939 35.396 53.0316 34.7316C53.5391 34.481 54.0671 34.3343 54.595 34.2345C52.0431 24.3204 52.3096 22.8377 49.8577 20.9737L47.661 19.3061C44.8392 17.1607 40.7798 17.6974 38.6177 20.5424L24.9022 38.6019C24.6415 38.9467 24.4654 39.3248 24.3156 39.7093C24.3156 39.7136 24.3125 39.7165 24.3099 39.7209L24.2777 39.7841L14.5014 59.6503L1.54595 70.9403C-0.331153 72.5758 -0.525143 75.4206 1.1085 77.2964C2.74265 79.1679 5.58459 79.3719 7.46494 77.7335L21.1041 65.8484C21.5559 65.4555 21.9224 64.9773 22.1865 64.4407L30.0706 48.4211L39.6798 56.7705L35.1392 73.133C34.4735 75.5307 35.8783 78.0138 38.275 78.6784C40.7124 79.3484 43.1616 77.9142 43.8212 75.5414L49.1217 56.4392C49.5852 54.7658 49.0483 52.9736 47.7371 51.8341C42.3871 47.1836 43.8039 48.4153 39.1079 44.3339C38.8058 43.5712 38.6532 42.75 38.7737 41.9198L41.4017 23.8648L41.6276 41.8831C41.6422 43.0827 42.3342 44.168 43.4166 44.6874L58.2905 51.8208C59.8684 52.5773 61.7518 51.9013 62.497 50.3407Z" fill="#25283E"/>
</svg>
