<svg width="84" height="84" viewBox="0 0 84 84" fill="none" xmlns="http://www.w3.org/2000/svg">
<path d="M26.9314 40.0132C27.0294 39.9712 27.1134 39.9153 27.1974 39.8592C27.2254 39.8313 29.9274 37.9412 32.3074 37.2132C32.6154 37.1292 32.9513 37.1432 33.2734 37.2833C34.4634 37.7732 36.2693 38.3752 38.2294 38.4872C34.4494 42.7572 28.3314 50.8493 27.7853 58.8013H56.7094C56.8494 55.7212 57.2834 51.5493 58.5014 48.5252C58.7533 47.9092 59.0193 47.2932 59.2853 46.6493C60.3914 44.0592 61.5394 41.3712 61.7774 38.5572C62.2814 32.4533 61.6654 27.5673 59.9714 24.1232C59.8033 23.7173 55.7434 14.1272 46.6574 12.5732C46.0974 12.4752 45.5654 12.2092 45.1454 11.8452C43.3814 10.2632 39.5594 7.71528 33.9454 8.56926C33.5254 8.62523 33.1614 8.87722 32.9513 9.22722C32.7414 9.57722 32.6853 10.0112 32.8254 10.4033L34.7714 16.1013C30.4314 16.1993 27.5334 18.3132 26.8334 21.8973C26.8054 21.9952 26.7634 22.1353 26.6654 22.2193L19.9033 27.8612C17.2714 30.0592 16.4173 33.6013 17.8314 36.4572C18.3214 37.4513 19.0074 38.2353 19.8614 38.7813C20.4634 39.2712 23.4173 41.4552 26.9314 40.0132V40.0132Z" fill="#25283E"/>
<path d="M65.4454 68.6013H20.6454C19.8754 68.6013 19.2454 69.2313 19.2454 70.0013V74.2013C19.2454 74.9713 19.8754 75.6013 20.6454 75.6013H65.4454C66.2153 75.6013 66.8454 74.9713 66.8454 74.2013V70.0013C66.8454 69.2313 66.2153 68.6013 65.4454 68.6013Z" fill="#25283E"/>
<path d="M24.8454 61.6013C24.0754 61.6013 23.4454 62.2313 23.4454 63.0013V65.8013H62.6454V63.0013C62.6454 62.2313 62.0153 61.6013 61.2454 61.6013H24.8454Z" fill="#25283E"/>
</svg>
