<svg width="84" height="84" viewBox="0 0 84 84" fill="none" xmlns="http://www.w3.org/2000/svg">
<g clip-path="url(#clip0_691_4176)">
<path d="M68.9063 27.2344C72.9771 27.2344 76.2891 23.9223 76.2891 19.8515C76.2891 15.7807 72.9771 12.4687 68.9063 12.4687C64.8349 12.4687 61.5235 15.7807 61.5235 19.8515C61.5235 23.9223 64.8349 27.2344 68.9063 27.2344Z" fill="#25283E"/>
<path d="M78.9141 32.1563H61.6709L55.125 22.3125H24.6094C21.9023 22.3125 19.6875 24.5273 19.6875 27.2344V34.1744L39.375 53.8619V76.6172H36.9141C35.5541 76.6172 34.4531 77.7182 34.4531 79.0782C34.4531 80.4387 35.5541 81.5391 36.9141 81.5391H56.6016C57.2553 81.5391 57.8801 81.2795 58.3415 80.8181L63.2634 75.8962C64.2247 74.9349 64.2247 73.3776 63.2634 72.4163C62.3021 71.455 60.7448 71.455 59.7835 72.4163L55.5826 76.6172H49.2188V51.8438C49.2188 50.5146 48.7266 49.2841 47.7916 48.3491L31.5487 32.1563H49.8584L54.977 39.7852C55.8633 41.163 57.3886 42 59.0625 42H78.9141C81.6211 42 84 39.7852 84 37.0781C84 34.3711 81.6211 32.1563 78.9141 32.1563V32.1563Z" fill="#25283E"/>
<path d="M27.3164 60.8505C28.6943 59.9649 29.5313 58.4389 29.5313 56.7656V50.9786L19.6875 41.1348V54.1073L8.1211 61.5395C7.91666 61.6728 7.7981 61.8759 7.61994 62.0336L4.43417 57.7558C3.62155 56.6644 2.08346 56.4337 0.99014 57.2533C-0.0986971 58.0653 -0.324283 59.606 0.487699 60.6974L11.485 75.463C11.7856 75.8668 12.2009 76.1667 12.6796 76.3256L20.0624 78.7866C21.3602 79.2191 22.747 78.5135 23.1745 77.2318C23.6045 75.9411 22.9079 74.5472 21.6197 74.1191L14.9694 71.9011L13.3839 69.7714C13.4313 69.742 13.4877 69.7407 13.5352 69.7093L27.3164 60.8505Z" fill="#25283E"/>
<path d="M36.741 12.4687L40.0216 17.3906H51.8527L43.4727 4.81931C42.5595 3.44464 41.0285 2.62497 39.375 2.62497H29.5313C26.8178 2.62497 24.6094 4.83341 24.6094 7.54685C24.6094 10.2603 26.8178 12.4687 29.5313 12.4687H36.741Z" fill="#25283E"/>
</g>
<defs>
<clipPath id="clip0_691_4176">
<rect width="84" height="84" fill="white"/>
</clipPath>
</defs>
</svg>
