<svg width="74" height="71" viewBox="0 0 74 71" fill="none" xmlns="http://www.w3.org/2000/svg">
<path d="M72.7241 33.0306H56.4059V29.7514C56.4051 29.2725 56.1564 28.8311 55.7552 28.5964L38.2759 18.374V13.1699H41.7334V15.148C41.7334 15.8812 42.3047 16.4756 43.0093 16.4756H53.4331C54.1377 16.4753 54.7086 15.8807 54.7085 15.1475C54.7085 14.9938 54.6827 14.8413 54.6324 14.6966L53.5862 11.6033L54.6452 8.57645C54.8847 7.88693 54.5418 7.1259 53.8792 6.87664C53.7403 6.82437 53.5937 6.79765 53.4459 6.79748H48.6997V4.87248C48.6997 4.13932 48.1284 3.5449 47.4238 3.5449H38.2759V1.92524C38.2759 1.19208 37.7046 0.597656 37 0.597656C36.2954 0.597656 35.7241 1.19208 35.7241 1.92524V18.374L18.2448 28.5832C17.8436 28.8178 17.5949 29.2592 17.5941 29.7382V33.0173H1.27586C0.571267 33.0173 0 33.6117 0 34.3449V69.0746C0 69.8077 0.571267 70.4021 1.27586 70.4021H72.7241C73.4287 70.4021 74 69.8077 74 69.0746V34.3582C74 33.625 73.4287 33.0306 72.7241 33.0306ZM48.6997 11.8423L48.6486 11.7892V9.50576H51.5576L51.0345 11.2051C50.93 11.5008 50.93 11.8254 51.0345 12.1211L51.6341 13.8204H44.2852V13.1699H47.4238C48.1284 13.1699 48.6997 12.5755 48.6997 11.8423ZM38.2759 6.20007H46.1479V8.17817V10.5147H38.2759V6.20007ZM17.5941 67.747H2.55172V35.6858H17.5941V67.747ZM35.7241 67.747H29.0259V52.5859H35.7241V67.747ZM44.9741 67.747H38.2759V52.5859H44.9741V67.747ZM53.9052 67.747H47.5259V51.2583C47.5259 50.5252 46.9546 49.9308 46.25 49.9308H27.75C27.0454 49.9308 26.4741 50.5252 26.4741 51.2583V67.747H20.0948V30.5746L37 20.6708L53.8541 30.5215L53.9052 34.3449V67.747ZM71.4483 67.747H56.4059V35.6858H71.4483V67.747Z" fill="#21388F"/>
</svg>
