<svg width="61" height="65" viewBox="0 0 61 65" fill="none" xmlns="http://www.w3.org/2000/svg">
<path d="M59.7431 9.67411C59.7003 9.63389 51.243 1.56834 51.243 1.56834C50.9197 1.25813 50.5853 0.9375 49.9609 0.9375H15.9128C14.9183 0.9375 14.1091 1.74652 14.1091 2.74102V8.27925L2.1089 10.3363C1.14702 10.5051 0.500148 11.4256 0.666789 12.3865L1.27583 15.9375L1.63682 18.0417L5.26087 39.1699L9.43095 63.5025C9.58156 64.3615 10.3366 64.9726 11.1888 64.9726C11.2852 64.9726 11.3831 64.9648 11.4813 64.9486L22.7757 63.0104L31.6013 61.4975L43.5229 59.4541L48.2 58.6524H58.5319C59.5264 58.6524 60.3355 57.8415 60.3355 56.8448V10.8625C60.3357 10.2313 59.9931 9.90924 59.7431 9.67411ZM56.9487 9.92386H51.671L51.5403 9.92442C51.2876 9.92611 50.6959 9.93047 50.5459 9.78141C50.5113 9.74695 50.4708 9.63192 50.4708 9.41831L50.4586 3.73495L56.9487 9.92386ZM58.2263 56.5427H16.2185V35.988C16.2185 35.4055 15.7463 34.9333 15.1638 34.9333C14.5813 34.9333 14.1091 35.4055 14.1091 35.988V56.8445C14.1091 57.8411 14.9183 58.6521 15.9128 58.6521H35.7145L22.4191 60.9311L11.4529 62.8131L7.33987 38.8133L2.80204 12.3575L14.109 10.4193V31.0942C14.109 31.6767 14.5812 32.1489 15.1637 32.1489C15.7461 32.1489 16.2184 31.6767 16.2184 31.0942V3.04673H48.3477L48.3614 9.4207C48.3614 10.1933 48.5964 10.8182 49.0598 11.2784C49.7718 11.9853 50.7782 12.0345 51.403 12.0345C51.4567 12.0345 51.5076 12.0341 51.5553 12.0338L58.2263 12.0334V56.5427Z" fill="#21388F"/>
<path d="M21.3024 17.3145C21.3024 17.8969 21.7746 18.3691 22.3571 18.3691H52.5121C53.0946 18.3691 53.5668 17.8969 53.5668 17.3145C53.5668 16.732 53.0946 16.2598 52.5121 16.2598H22.3571C21.7746 16.2598 21.3024 16.732 21.3024 17.3145Z" fill="#21388F"/>
<path d="M52.5121 23.752H22.3571C21.7746 23.752 21.3024 24.2242 21.3024 24.8066C21.3024 25.3891 21.7746 25.8613 22.3571 25.8613H52.5121C53.0946 25.8613 53.5668 25.3891 53.5668 24.8066C53.5668 24.2242 53.0946 23.752 52.5121 23.752Z" fill="#21388F"/>
<path d="M52.5121 31.2451H22.3571C21.7746 31.2451 21.3024 31.7173 21.3024 32.2998C21.3024 32.8823 21.7746 33.3545 22.3571 33.3545H52.5121C53.0946 33.3545 53.5668 32.8823 53.5668 32.2998C53.5668 31.7173 53.0946 31.2451 52.5121 31.2451Z" fill="#21388F"/>
<path d="M52.5121 38.7373H22.3571C21.7746 38.7373 21.3024 39.2095 21.3024 39.792C21.3024 40.3745 21.7746 40.8467 22.3571 40.8467H52.5121C53.0946 40.8467 53.5668 40.3745 53.5668 39.792C53.5668 39.2095 53.0946 38.7373 52.5121 38.7373Z" fill="#21388F"/>
<path d="M52.5121 46.2305H22.3571C21.7746 46.2305 21.3024 46.7027 21.3024 47.2852C21.3024 47.8676 21.7746 48.3398 22.3571 48.3398H52.5121C53.0946 48.3398 53.5668 47.8676 53.5668 47.2852C53.5668 46.7027 53.0946 46.2305 52.5121 46.2305Z" fill="#21388F"/>
</svg>
