<svg width="74" height="77" viewBox="0 0 74 77" fill="none" xmlns="http://www.w3.org/2000/svg">
<path d="M72.7241 36.0306H56.4059V32.7514C56.4051 32.2725 56.1564 31.8311 55.7552 31.5964L38.2759 21.374V16.1699H41.7334V18.148C41.7334 18.8812 42.3047 19.4756 43.0093 19.4756H53.4331C54.1377 19.4753 54.7086 18.8807 54.7085 18.1475C54.7085 17.9938 54.6827 17.8413 54.6324 17.6966L53.5862 14.6033L54.6452 11.5764C54.8847 10.8869 54.5418 10.1259 53.8792 9.87664C53.7403 9.82437 53.5937 9.79765 53.4459 9.79748H48.6997V7.87248C48.6997 7.13932 48.1284 6.5449 47.4238 6.5449H38.2759V4.92524C38.2759 4.19208 37.7046 3.59766 37 3.59766C36.2954 3.59766 35.7241 4.19208 35.7241 4.92524V21.374L18.2448 31.5832C17.8436 31.8178 17.5949 32.2592 17.5941 32.7382V36.0173H1.27586C0.571267 36.0173 0 36.6117 0 37.3449V72.0746C0 72.8077 0.571267 73.4021 1.27586 73.4021H72.7241C73.4287 73.4021 74 72.8077 74 72.0746V37.3582C74 36.625 73.4287 36.0306 72.7241 36.0306ZM48.6997 14.8423L48.6486 14.7892V12.5058H51.5576L51.0345 14.2051C50.93 14.5008 50.93 14.8254 51.0345 15.1211L51.6341 16.8204H44.2852V16.1699H47.4238C48.1284 16.1699 48.6997 15.5755 48.6997 14.8423ZM38.2759 9.20007H46.1479V11.1782V13.5147H38.2759V9.20007ZM17.5941 70.747H2.55172V38.6858H17.5941V70.747ZM35.7241 70.747H29.0259V55.5859H35.7241V70.747ZM44.9741 70.747H38.2759V55.5859H44.9741V70.747ZM53.9052 70.747H47.5259V54.2583C47.5259 53.5252 46.9546 52.9308 46.25 52.9308H27.75C27.0454 52.9308 26.4741 53.5252 26.4741 54.2583V70.747H20.0948V33.5746L37 23.6708L53.8541 33.5214L53.9052 37.3449V70.747ZM71.4483 70.747H56.4059V38.6858H71.4483V70.747Z" fill="#21388F"/>
<path d="M37 27.7334C34.0454 27.7407 31.6541 30.2349 31.6541 33.3093C31.6612 36.3815 34.0603 38.8659 37.0128 38.8586C39.9653 38.8513 42.3529 36.3549 42.3459 33.2827C42.3389 30.2158 39.9474 27.7334 37 27.7334ZM37 36.2034C35.4569 36.1961 34.2116 34.8884 34.2186 33.2827C34.2256 31.6874 35.4667 30.3959 37 30.3886C38.5452 30.3959 39.7941 31.7014 39.7941 33.3093H39.8069C39.7999 34.915 38.5432 36.2107 37 36.2034Z" fill="#21388F"/>
<path d="M8.17828 41.6064H5.62656V46.9168H8.17828V41.6064Z" fill="#21388F"/>
<path d="M14.4683 41.6064H11.9166V46.9168H14.4683V41.6064Z" fill="#21388F"/>
<path d="M29.0769 41.6064H23.9734V44.2616H29.0769V41.6064Z" fill="#21388F"/>
<path d="M39.5517 41.6064H34.4483V44.2616H39.5517V41.6064Z" fill="#21388F"/>
<path d="M50.0265 41.6064H44.9231V44.2616H50.0265V41.6064Z" fill="#21388F"/>
<path d="M29.0769 47.793H23.9734V50.4481H29.0769V47.793Z" fill="#21388F"/>
<path d="M39.5517 47.793H34.4483V50.4481H39.5517V47.793Z" fill="#21388F"/>
<path d="M50.0265 47.793H44.9231V50.4481H50.0265V47.793Z" fill="#21388F"/>
<path d="M8.17828 52.0547H5.62656V57.365H8.17828V52.0547Z" fill="#21388F"/>
<path d="M14.4683 52.0547H11.9166V57.365H14.4683V52.0547Z" fill="#21388F"/>
<path d="M8.17828 62.5156H5.62656V67.826H8.17828V62.5156Z" fill="#21388F"/>
<path d="M14.4683 62.5156H11.9166V67.826H14.4683V62.5156Z" fill="#21388F"/>
<path d="M62.0835 41.6064H59.5317V46.9168H62.0835V41.6064Z" fill="#21388F"/>
<path d="M68.3734 41.6064H65.8217V46.9168H68.3734V41.6064Z" fill="#21388F"/>
<path d="M62.0835 52.0547H59.5317V57.365H62.0835V52.0547Z" fill="#21388F"/>
<path d="M68.3734 52.0547H65.8217V57.365H68.3734V52.0547Z" fill="#21388F"/>
<path d="M62.0835 62.5156H59.5317V67.826H62.0835V62.5156Z" fill="#21388F"/>
<path d="M68.3734 62.5156H65.8217V67.826H68.3734V62.5156Z" fill="#21388F"/>
</svg>
