<svg width="84" height="84" fill="none" xmlns="http://www.w3.org/2000/svg"><path d="M41.982 54.182l-3.818 8.057-.735 6.77c4.803 1.283 9.075-2.013 9.7-6.376.54-3.753-1.693-7.253-5.147-8.451z" fill="#25283E"/><path d="M81.066 75.655H58.713c-.022-.186.011-.368-.041-.555l-8.6-30.504 2.815-19.6 7.498-10.497 13.91 1.699a4.385 4.385 0 004.904-3.834 4.401 4.401 0 00-3.835-4.904L58.858 5.443a4.36 4.36 0 00-4.117 1.81L46.39 18.945 30.476 16.43 23.82 4.705a4.402 4.402 0 00-7.657 4.344l7.703 13.572a4.397 4.397 0 003.142 2.175l9.542 1.506-3.542 22.83-4.603 9.716c-.175.37-.287.768-.33 1.175l-1.696 15.631H2.935a2.935 2.935 0 000 5.87h78.13a2.935 2.935 0 000-5.87zm-47.31 0L35.3 61.43l4.585-9.678c3.254.469 2.523.363 5.3.762 3.734 2.39 5.428 6.518 4.849 10.535a10.612 10.612 0 01-1.317 3.778l2.488 8.827H33.757z" fill="#25283E"/></svg>