<svg width="84" height="84" fill="none" xmlns="http://www.w3.org/2000/svg"><g clip-path="url(#clip0_691_3824)" fill="#25283E"><path d="M38.025 35.039c3.427-1.188 5.645-4.659 5.108-8.38-.626-4.354-4.876-7.58-9.62-6.324l.728 6.714 3.784 7.99z"/><path d="M80.494 65.69l-23.601-4.745a4.394 4.394 0 00-.861-.085h-7.638l-2.345-16.313 8.53-30.255a3.637 3.637 0 00-2.515-4.489 3.636 3.636 0 00-4.489 2.516l-2.868 10.176a10.56 10.56 0 011.308 3.75c.404 2.81-.31 5.61-2.013 7.884a10.63 10.63 0 01-2.8 2.564c-5.255.756-1.634.239-5.255.756l-4.548-9.599-1.62-14.937c-.22-2.001-2.05-3.428-4.012-3.226a3.642 3.642 0 00-3.226 4.01l1.689 15.55c.045.402.156.798.33 1.165l4.562 9.633 3.138 20.227c1.273.096 6.868.415 7.948.819l-17.157.932a4.387 4.387 0 00-.577.071l-18.92 3.587A4.365 4.365 0 105.18 74.26l18.635-3.534c24.929-1.35 18.43-1.133 31.782-1.133l23.175 4.658a4.37 4.37 0 005.142-3.42 4.368 4.368 0 00-3.42-5.141z"/></g><defs><clipPath id="clip0_691_3824"><path fill="#fff" d="M0 0h84v84H0z"/></clipPath></defs></svg>