<svg width="84" height="84" fill="none" xmlns="http://www.w3.org/2000/svg"><path d="M13.513 20.662a2.01 2.01 0 00-.59 2.625 2 2 0 002.725.752l.593-.336-2.629-3.11-.1.069zm32.364-13.81a3.664 3.664 0 001.188-5.293 3.661 3.661 0 00-5.106-.89L22.353 14.447l3.3 3.901L45.877 6.852zm-5.575 44.051l6.752-18.359c1.011-2.75-.12-6.124-3.657-7.436-.087-.036-1.944-.716-2.027-.747-.71-.262-2.166-.486-2.435-.454l-11.104.927-6.368-7.524a2.79 2.79 0 00-3.937-.33 2.793 2.793 0 00-.33 3.936l7.298 8.63c.616.726 1.539 1.06 2.366.975.872-.071 11.959-.968 12.818-1.129-.546.227-12.038 3.488-12.608 3.652-.947.271-1.9.123-2.718-.284l2.712 3.401c.787.987 2.125 1.422 3.633.654-.439 1.192-2.738 7.794-2.738 7.794s-3.269 16.383-3.446 17.326l-7.721 16.372a3.992 3.992 0 007.22 3.404L31.95 64.88c.14-.304.247-.627.309-.957l1.54-8.115 10.82 25.675a3.99 3.99 0 007.415-2.95l-11.73-27.63zm-1.108-36.234a6.638 6.638 0 003.94 8.522 6.64 6.64 0 104.585-12.462 6.637 6.637 0 00-8.526 3.94zm28.684 7.683a3.46 3.46 0 10-.002 6.918 3.46 3.46 0 00.002-6.918z" fill="#25283E"/></svg>