<svg width="84" height="84" fill="none" xmlns="http://www.w3.org/2000/svg"><g clip-path="url(#clip0_691_3840)" fill="#25283E"><path d="M83.61 70.08l-6.74-14.747s2.834-12.374 2.837-12.557a3.98 3.98 0 00-1.122-2.837L65.266 26.183c.39.62.699 1.301.862 2.059a6.405 6.405 0 01-.929 4.905l1.986 8.268c.564 2.353-.756 4.788-3.052 5.585l-7.984 2.74a4.282 4.282 0 00-2.244 3.57l-.821 18.363a4.292 4.292 0 108.576.383l.71-15.882 6.244-3.225-.437 1.815a4.288 4.288 0 00.27 2.789l7.356 16.096a4.292 4.292 0 107.808-3.569z"/><path d="M57.212 36.75l-.019 2.042-13.286 4.56a3.578 3.578 0 002.322 6.765l15.678-5.38a3.576 3.576 0 002.416-3.349l.069-7.254a6.4 6.4 0 01-3.2 1.758l-3.98.858zM36.569 20.181c2.924 1.67 6.566.833 8.534-1.795a6.575 6.575 0 001.742 3.384 6.606 6.606 0 009.338.146 6.602 6.602 0 10-9.186-9.487 6.768 6.768 0 00-.694.823c-.342-1.846-1.436-3.54-3.193-4.543a6.603 6.603 0 10-6.542 11.472z"/><path d="M44.787 53.754l-11.495-7.148 4.053-7.11 1.671 2.464c.245.36.575.637.923.883a6.41 6.41 0 013.04-2.2l6.465-2.218-.275.06a3.06 3.06 0 01-1.9-.2l-7.349-3.303-5.718-2.571 13.695 3.082a3.58 3.58 0 001.54.006l11.153-2.405a3.574 3.574 0 002.741-4.25 3.569 3.569 0 00-4.25-2.742L48.7 28.341l-12.927-2.91 4.157.085a5.535 5.535 0 00-.822-.586l-2.11-1.204a5.688 5.688 0 00-7.756 2.122L12.136 57.31 1.172 68.918a4.29 4.29 0 00.173 6.067 4.289 4.289 0 006.067-.174l11.41-12.079c.296-.311.542-.667.732-1.053l5.085-10.35.03.024 13.598 8.455.196 12.127a4.294 4.294 0 004.29 4.222h.072a4.294 4.294 0 004.223-4.362l-.235-14.465a4.293 4.293 0 00-2.026-3.576z"/></g><defs><clipPath id="clip0_691_3840"><path fill="#fff" d="M0 0h84v84H0z"/></clipPath></defs></svg>