<svg width="84" height="84" fill="none" xmlns="http://www.w3.org/2000/svg"><path d="M23.996 70.555c-1.988 1.53-4.444 2.475-7.14 2.475-6.497 0-11.784-5.286-11.784-11.783 0-6.498 5.287-11.785 11.784-11.785 4.903 0 9.108 3.015 10.881 7.284l3.69-3.827c-2.905-5.072-8.308-8.53-14.572-8.53C7.545 44.39 0 51.937 0 61.248c0 9.308 7.545 16.855 16.855 16.855 4.381 0 8.333-1.712 11.331-4.453-1.15-.386-2.242-.998-3.174-1.897a8.545 8.545 0 01-1.016-1.197z" fill="#25283E"/><path d="M49.59 44.519l-8.925-5.185c3.98-2.49 2.505-1.568 6.485-4.06l-.125 1.268c-.215 2.158 1.375 4.133 3.378 4.54.048.009 15.668 2.664 16.238 2.664a4.227 4.227 0 00.687-8.396l-11.5-1.91.547-5.488c.551-3.507.79-4.606-.519-6.698l-1.646-2.632a7.268 7.268 0 00-10.015-2.303l-18.016 11.28c-4.425 2.77-6.583 8.612-2.97 12.909 1.41 1.68 15.133 10.111 15.133 10.111L27.228 62.147a5.07 5.07 0 00.13 7.17 5.054 5.054 0 003.52 1.422c1.33 0 2.657-.519 3.651-1.553l16.164-16.762c2.28-2.36 1.746-6.251-1.102-7.905zm18.935-23.026a8.44 8.44 0 002.674-11.632 8.438 8.438 0 10-14.306 8.952 8.44 8.44 0 0011.632 2.68z" fill="#25283E"/><path d="M67.144 44.39c-9.407 0-16.855 7.761-16.855 16.857 0 9.308 7.545 16.855 16.855 16.855C76.453 78.102 84 70.555 84 61.247c0-9.31-7.547-16.857-16.856-16.857zm0 28.64c-6.497 0-11.783-5.286-11.783-11.783 0-6.498 5.287-11.785 11.783-11.785 6.497 0 11.784 5.286 11.784 11.785 0 6.497-5.287 11.783-11.784 11.783z" fill="#25283E"/></svg>