<svg width="84" height="84" fill="none" xmlns="http://www.w3.org/2000/svg"><g clip-path="url(#clip0_691_3918)" fill="#25283E"><path d="M24.288 24.951a7.178 7.178 0 10.001-14.356 7.178 7.178 0 000 14.356z"/><path d="M44.834 15.643l-10.48 10.524-8.746.165H22.97a6.18 6.18 0 00-6.18 6.181c0 27.14-.025 11.519-.025 33.396l-5.501 12.884a3.738 3.738 0 006.878 2.937l5.475-12.827a7.788 7.788 0 00.625-3.057v-7.287h2.165l3.051 5.24-1.385 12.119a3.74 3.74 0 007.43.848l1.526-13.352a3.73 3.73 0 00-.485-2.306l-4.756-8.17v-13.77l3.63 1.538a3.02 3.02 0 003.865-1.396l5.967-11.595c.6-1.166.345-2.521-.502-3.427l4.365-4.384a3.02 3.02 0 10-4.279-4.26zm-9.638 18.409l-3.408-1.445v-.094c0-.06-.015-.112-.017-.171l4.049-.201c.143-.007.27-.072.41-.099l-1.034 2.01zM57.808 14.02a7.01 7.01 0 100-14.02 7.01 7.01 0 000 14.02zm14.048 18.543l-15.948-8.085a2.159 2.159 0 00-3.133 1.924v45.71a2.157 2.157 0 004.314 0V46.689l11.634 5.899V80.26a2.157 2.157 0 004.314 0V34.487c0-.813-.456-1.556-1.181-1.924zm-14.767 9.288V29.914l11.634 5.897v11.94l-11.634-5.9z"/></g><defs><clipPath id="clip0_691_3918"><path fill="#fff" d="M0 0h84v84H0z"/></clipPath></defs></svg>