<svg width="84" height="84" fill="none" xmlns="http://www.w3.org/2000/svg"><g clip-path="url(#clip0_691_3904)" fill="#25283E"><path d="M34.17 34.272a7.515 7.515 0 100-15.03 7.512 7.512 0 00-7.514 7.514 7.512 7.512 0 007.514 7.516zm36.244 31.891L55.246 54.726c-2.365-1.783-4.277-.43-6.846.864 2.316.39 3.162 1.64 4.259 3.432l4.694 7.654 8.08 6.094a4.136 4.136 0 104.981-6.607z"/><path d="M50.308 60.464a4.153 4.153 0 00-4.136-1.93l-14.38 2.138 11.49-4V40.775l6.69-8.752a3.18 3.18 0 00.65-1.809l.35-9.494c3.136-1.225 5.373-4.26 5.373-7.824 0-3.901-2.682-7.162-6.292-8.11V2.07a2.069 2.069 0 10-4.136 0v2.684c-3.664.908-6.4 4.201-6.4 8.143 0 3.466 2.11 6.446 5.11 7.734l-.308 8.343-5.154 6.746h-9.99l-5.157-6.746-.306-8.372c2.97-1.3 5.055-4.26 5.055-7.705 0-3.921-2.71-7.198-6.345-8.125V2.069a2.07 2.07 0 10-4.137 0v2.702c-3.636.927-6.346 4.203-6.346 8.125 0 3.584 2.264 6.63 5.429 7.84l.349 9.478a3.18 3.18 0 00.65 1.809l6.693 8.756v23.708c0 3.1 2.905 5.11 5.322 4.76l14.302-2.126 9.14 14.905a4.137 4.137 0 007.053-4.325l-10.57-17.237zm-6.653-47.568A4.283 4.283 0 0147.93 8.62a4.283 4.283 0 014.277 4.277 4.24 4.24 0 01-1.058 2.786 3.172 3.172 0 00-3.048-3.255c-1.72-.057-3.223 1.303-3.287 3.054l-.01.31a4.24 4.24 0 01-1.15-2.895zm-27.579 0a4.282 4.282 0 014.276-4.277 4.283 4.283 0 014.278 4.277c0 1.09-.422 2.076-1.098 2.832l-.01-.246a3.166 3.166 0 00-3.287-3.054 3.175 3.175 0 00-3.052 3.288v.025a4.243 4.243 0 01-1.107-2.845z"/></g><defs><clipPath id="clip0_691_3904"><path fill="#fff" d="M0 0h84v84H0z"/></clipPath></defs></svg>