<svg width="85" height="84" fill="none" xmlns="http://www.w3.org/2000/svg"><g clip-path="url(#clip0_691_3879)" fill="#25283E"><path d="M47.516 25.16c4.916 0 8.356-4.919 6.633-9.549A7.08 7.08 0 0047.514 11c-4.915 0-8.355 4.919-6.632 9.549a7.08 7.08 0 006.634 4.61zM13.668 61.907c1.534-.834 3.594-1.59 6.497-1.59 4.336 0 6.795 1.686 8.421 2.8 1.22.837 1.725 1.183 3.2 1.183 1.473 0 1.978-.346 3.198-1.182 1.52-1.042 3.768-2.582 7.596-2.779l-10.887-7.86h-.218l.098-.086-4.44-3.206-.929.51a6.161 6.161 0 01-4.594.55l-1.355 1.193c-.347.306-.627.66-.845 1.04H9.925c-2.227 0-3.57 2.498-2.31 4.336 1.273 1.858 3.346 3.578 6.053 5.09zm60.637 14.025l-8.712-6.29c-.761.15-1.27.496-2.145 1.096-.331.226-.698.477-1.107.732l9.982 7.206a1.692 1.692 0 101.982-2.744zm-44.708-28.1l18.249 13.174c1.763.592 3.018 1.452 3.981 2.112 1.22.836 1.725 1.182 3.2 1.182 1.071 0 1.631-.184 2.326-.606L32.88 46.027l-3.283 1.805z"/><path d="M89.89 63.012c-3.502 0-5.385 1.29-6.899 2.328-1.348.924-2.413 1.654-4.723 1.654-2.309 0-3.374-.73-4.722-1.654-1.514-1.037-3.398-2.328-6.899-2.328s-5.385 1.29-6.898 2.328c-1.349.924-2.414 1.654-4.723 1.654-2.309 0-3.374-.73-4.722-1.654-1.514-1.037-3.397-2.328-6.898-2.328-3.502 0-5.385 1.291-6.898 2.328-1.349.924-2.414 1.654-4.722 1.654-2.31 0-3.374-.73-4.723-1.654-1.513-1.037-3.396-2.328-6.898-2.328-3.501 0-5.385 1.291-6.898 2.328-1.349.924-2.414 1.654-4.723 1.654-2.308 0-3.373-.73-4.722-1.654-1.513-1.037-3.396-2.328-6.898-2.328a1.924 1.924 0 100 3.849c2.31 0 3.374.73 4.723 1.654 1.513 1.037 3.396 2.328 6.898 2.328 3.501 0 5.385-1.29 6.898-2.328 1.348-.924 2.413-1.654 4.722-1.654 2.31 0 3.374.73 4.722 1.654 1.514 1.037 3.397 2.328 6.899 2.328 3.501 0 5.384-1.29 6.898-2.328 1.348-.924 2.413-1.654 4.722-1.654 2.309 0 3.374.73 4.722 1.654 1.514 1.037 3.397 2.328 6.898 2.328 3.502 0 5.385-1.29 6.899-2.328 1.348-.924 2.413-1.654 4.722-1.654 2.31 0 3.374.73 4.723 1.654 1.513 1.037 3.397 2.328 6.899 2.328 3.501 0 5.385-1.29 6.898-2.328 1.349-.924 2.414-1.654 4.723-1.654a1.925 1.925 0 100-3.85zM25.101 47.186l28.129-12.35-6.688 4.127 2.287 6.145-6.034-4.288-7.45 3.852 24.284 17.531c1.58-.942 3.774-1.885 7.018-1.885 3.539 0 5.827 1.122 7.433 2.14 3.216-1.64 5.657-3.554 7.088-5.643 1.259-1.837-.083-4.335-2.31-4.335H67.56a9.944 9.944 0 00.38-7.882l-5.723-15.25c-1.275-3.398-4.825-5.164-8.155-4.426-1.735.385-5.476 2.839-5.476 2.839a7.057 7.057 0 00-1.605 1.305l3.502-.483-28.128 12.349a3.415 3.415 0 102.745 6.254z"/></g><defs><clipPath id="clip0_691_3879"><path fill="#fff" transform="translate(.5)" d="M0 0h84v84H0z"/></clipPath></defs></svg>