<svg width="84" height="84" fill="none" xmlns="http://www.w3.org/2000/svg"><g clip-path="url(#clip0_691_3963)" fill="#25283E"><path d="M20.267 13.23a7.181 7.181 0 002.199-9.909 7.177 7.177 0 10-2.199 9.908zm55.173-2.844a4.668 4.668 0 00-6.374-1.697L48.59 20.555a4.63 4.63 0 00-1.123.91l-8.501 9.417-5.831-9.152 5.424-2.483a3.96 3.96 0 001.033-.69l9.16-8.535a3.89 3.89 0 00.194-5.494 3.896 3.896 0 00-5.497-.194L34.75 12.44l-6.64 3.038c-1.882-.957-3.953-.893-6.11.273-1.444.78-3.53 1.77-5.108 4.123-2.13 3.177-8.334 12.832-8.334 12.832a3.882 3.882 0 00.717 5.056l8.236 7.123a3.886 3.886 0 105.084-5.879l-5.673-4.908 3.186-4.905 8.883 13.945c.192.72 5.221 13.45 5.494 14.142l1.252 22.317a4.667 4.667 0 009.317-.522L43.762 56.01a4.816 4.816 0 00-.316-1.444l-4.03-10.262L53.901 28.26l19.841-11.498a4.666 4.666 0 001.698-6.374z"/></g><defs><clipPath id="clip0_691_3963"><path fill="#fff" d="M0 0h84v84H0z"/></clipPath></defs></svg>