<svg width="84" height="84" fill="none" xmlns="http://www.w3.org/2000/svg"><path d="M62.2 30.68a3.978 3.978 0 00-3.854-1.21l-10.118 2.35-6.521-11.816c10.15 1.95 9.464 1.84 9.861 1.84a2.984 2.984 0 002.325-4.852L44.287 5.037a2.984 2.984 0 00-3.692-.784 9.658 9.658 0 01-.094 5.599l3.652 4.545-5.62-1.08-7.027 14.426 4.6-13.924a2.984 2.984 0 00-5.667-1.872l-3.468 10.5.838-6.536-.013-.006-4.569 2.522c-1.052.585-2.746 1.612-2.407 3.43L23.09 35.3a2.984 2.984 0 005.775.439l.313-.946 4.208 8.144v37.086a3.978 3.978 0 007.957 0V41.64s2.885-.723 11.805-2.794l-5.343 15.54a3.978 3.978 0 107.525 2.586l7.678-22.333a3.978 3.978 0 00-.808-3.958z" fill="#25283E"/><path d="M28.375 13.154l.365-1.78a4.812 4.812 0 018.82-1.542A6.903 6.903 0 0027.972.86a6.905 6.905 0 00-2.71 9.382 6.872 6.872 0 003.113 2.912z" fill="#25283E"/></svg>