<svg width="84" height="84" fill="none" xmlns="http://www.w3.org/2000/svg"><g clip-path="url(#clip0_691_3954)" fill="#25283E"><path d="M2.985 49.676A2.984 2.984 0 000 52.661a2.984 2.984 0 002.985 2.986h19.548l-5.39-5.97H2.985zm80.892 2.991l-2.653-13.83a12.911 12.911 0 00-8.499-9.81L68.9 21.454a2.957 2.957 0 00-2.985-1.62 2.987 2.987 0 00-2.572 2.22l-2.19 8.49c-2.874 1.956-3.766 3.89-5.506 6.875a6.68 6.68 0 014.075 4.863c2.377-4.08 3.653-7.613 8.114-8.003 3.612-.3 6.84 2.128 7.522 5.682l2.652 13.83a.743.743 0 01-.568.87.757.757 0 01-.743-.263l-5.283-6.565a2.988 2.988 0 00-4.198-.455 2.987 2.987 0 00-.455 4.198c4.97 6.175 6.91 10.081 12.023 8.9a6.691 6.691 0 005.09-7.81zM51.32 50.084l-2.618-.749-.198.341H41.28l1.95 2.16a8.955 8.955 0 012.024 3.811h4.965a2.994 2.994 0 002.58-1.481l2.414-4.143a6.696 6.696 0 01-3.892.061zm-.227-31.144a6.893 6.893 0 00.122-9.747 6.883 6.883 0 00-9.737-.126 6.883 6.883 0 00-.125 9.738c2.647 2.729 7.014 2.784 9.74.134z"/><path d="M54.201 40.04l-9.965-2.856-2.875-9.312 1.68 2.749a5.936 5.936 0 00-1.26-6.324l-1.767-1.813a5.926 5.926 0 00-4.172-1.793 5.944 5.944 0 00-4.218 1.682l-12.02 11.712c-3.205 3.116-3.353 8.338-.152 11.626 2.91 2.986.606.51 12.172 13.318L28.32 71.242a4.48 4.48 0 003.154 5.492 4.48 4.48 0 005.493-3.154l3.938-14.572a4.478 4.478 0 00-1-4.169L30.09 43.971c3.799-3.697 2.842-2.767 4.618-4.499l-.478-9.402 3.47 11.242a3.73 3.73 0 002.536 2.487l11.906 3.414a3.733 3.733 0 002.059-7.172z"/></g><defs><clipPath id="clip0_691_3954"><path fill="#fff" d="M0 0h84v84H0z"/></clipPath></defs></svg>