<svg width="84" height="84" fill="none" xmlns="http://www.w3.org/2000/svg"><g clip-path="url(#clip0_691_3988)" fill="#25283E"><path d="M29.323 42.71L4.418 56.093a3.968 3.968 0 00-2.09 3.497v20.44a3.97 3.97 0 107.94 0V61.964l22.6-12.144-1.039-4.192-2.506-2.917zm46.5-24.984L50.988 31.07l.423.494 6.574 4.76 15.748-8.46v18.024a3.97 3.97 0 107.94 0V21.223c0-3-3.209-4.918-5.85-3.497z"/><path d="M62.082 45.173l-8.76-6.343-5.16-3.737-1.471-1.714-9.965-11.6c5.425-2.744 4.228-2.14 6.944-3.515a3.974 3.974 0 001.423-1.214l7.785-10.753a3.971 3.971 0 00-6.433-4.656l-7.22 9.973-10.9 5.52c-.458.232-3.309 2.61-4.039 3.236-.454.39-1.12 1.112-1.755 2.365l-5.414 10.723-8.843-3.053a3.976 3.976 0 00-5.047 2.458 3.97 3.97 0 002.457 5.048c1.05.363 12.346 4.4 13.415 4.4a3.968 3.968 0 003.543-2.18l3.978-7.88 9.56 11.132 3.851 15.539-5.517 15.323a4.764 4.764 0 008.963 3.229l6.008-16.682a4.76 4.76 0 00.142-2.76l-3.053-12.326 7.726 5.596-1.391 15.422a4.766 4.766 0 004.317 5.173 4.766 4.766 0 005.173-4.317l1.633-18.12a4.763 4.763 0 00-1.95-4.287zM24.215 16.538c2.853-2.447 3.268-6.84.743-9.776a6.937 6.937 0 00-9.78-.741 6.934 6.934 0 00-.737 9.774c2.543 2.964 7.02 3.111 9.774.743z"/></g><defs><clipPath id="clip0_691_3988"><path fill="#fff" d="M0 0h84v84H0z"/></clipPath></defs></svg>