<svg width="84" height="85" fill="none" xmlns="http://www.w3.org/2000/svg"><g clip-path="url(#clip0_691_4043)" fill="#25283E"><path d="M21.805 39c4.143 0 7.5-3.356 7.5-7.499a7.5 7.5 0 10-15 0 7.5 7.5 0 007.5 7.499z"/><path d="M6.925 44.65l7.068 3.5c0 .023-.006.046-.006.07v15.655c3.838-.963 7.998 0 11.164 2.944a13.032 13.032 0 013.584-2.394l.086-8.42.776.925c.49.583 1.142.968 1.855 1.092l10.984 1.92c1.76.306 3.398-1.014 3.675-2.931.278-1.925-.916-3.733-2.666-4.039l-9.885-1.727c-6.091-7.26-1.114-1.346-7.214-8.6-.545-.648-1.315-1.211-3.622-1.211h-2.563c-.968 0-1.872.266-2.687.7l-6.729-3.331-4.552-12.577c-.654-1.808-2.518-2.698-4.17-1.973-1.646.72-2.45 2.772-1.795 4.583l5.033 13.903c.308.85.903 1.535 1.664 1.91zM59.655 39c4.143 0 7.5-3.356 7.5-7.499a7.5 7.5 0 10-7.5 7.499z"/><path d="M43.11 42.738c.307.851.903 1.536 1.664 1.912l7.067 3.5c0 .023-.007.046-.007.07v15.313c2.667.25 5.27 1.307 7.327 3.27 2.086-1.989 4.729-3.047 7.432-3.279l.076-7.522.778.928c.49.583 1.142.967 1.855 1.092.406.07 11.081 1.964 11.492 1.964 1.55 0 2.915-1.24 3.166-2.975.278-1.925-.916-3.734-2.666-4.04l-9.883-1.727c-16.576-19.76 9.485 11.308-7.214-8.599-.548-.653-1.323-1.212-3.623-1.212h-2.565c-.968 0-1.87.267-2.686.701l-6.729-3.332-4.552-12.576c-.654-1.809-2.516-2.698-4.17-1.973-1.646.719-2.45 2.771-1.795 4.582l5.033 13.903z"/><path d="M78.437 69.837c-1.257 1.385-3.293 1.38-4.55-.003-3.327-3.658-9.125-3.658-12.45.003a3.086 3.086 0 01-4.553-.003c-3.297-3.627-9.147-3.628-12.447-.001l-.049.054c-1.262 1.338-3.263 1.314-4.509-.053-3.339-3.673-8.884-3.923-12.555.118-1.147 1.258-3.195 1.262-4.345-.004-3.374-3.71-8.864-3.71-12.245.003-1.377 1.518-3.793 1.52-5.173-.001-1.09-1.2-2.859-1.198-3.949-.002-1.09 1.199-1.09 3.142-.001 4.34 1.746 1.92 4.067 2.977 6.537 2.977 2.47 0 4.792-1.058 6.535-2.975 1.2-1.319 3.15-1.319 4.352 0 3.241 3.568 8.881 3.69 12.343-.117 1.265-1.39 3.304-1.374 4.56.006 3.348 3.68 8.922 3.868 12.441 0l.048-.053c1.206-1.276 3.326-1.254 4.508.045 3.329 3.658 9.124 3.658 12.45.003a3.083 3.083 0 014.554-.001c3.436 3.777 9.013 3.788 12.45-.003 1.09-1.2 1.087-3.144-.005-4.339-1.093-1.198-2.86-1.195-3.947.006z"/></g><defs><clipPath id="clip0_691_4043"><path fill="#fff" d="M0 0h84v85H0z"/></clipPath></defs></svg>