<svg width="84" height="84" fill="none" xmlns="http://www.w3.org/2000/svg"><path d="M51.787 34.647l-1.022 1.996a1.965 1.965 0 003.497 1.791l2.642-5.158-5.117 1.371zm19.948-18.813a24.502 24.502 0 01-6.662-1.136l.257-.503a1.965 1.965 0 00-3.497-1.792l-.416.813-1.303-.621a.742.742 0 00-.989.35l-1.652 3.47a.742.742 0 00.35.989l1.164.554-3.217 6.279a6.608 6.608 0 013.497 1.791l3.173-6.192a24.65 24.65 0 015.22 4.551.743.743 0 001.232-.165l3.49-7.327a.743.743 0 00-.647-1.061zm.172 36.731a1.02 1.02 0 00-1.584.25 11.15 11.15 0 01-1.876 2.56c.074-.55.111-1.103.111-1.658 0-1.064-.147-2.16-.438-3.255-.956-3.6-3.462-6.646-6.876-8.354a1.028 1.028 0 00-.944.014.965.965 0 00-.51.769c-.267 3.272-2.007 6.248-4.78 8.169l-.109.077c-.075.053-.146.104-.213.146l-.03.02a13.305 13.305 0 00-4.16 4.66A12.598 12.598 0 0049 61.93c0 1.064.147 2.159.438 3.255C50.97 70.965 56.343 75 62.5 75 69.944 75 76 69.137 76 61.93c0-3.554-1.454-6.88-4.093-9.365z" fill="#25283E"/><path d="M56.556 27.11c-.944-1.844-3.088-2.508-4.788-1.484L46.18 28.99l-3.683-6.107c-.109.004-.218.01-.328.01-3.709 0-6.904-2.428-8.309-5.893H22.255c-1.284 0-2.465.757-3.085 1.976l-4.46 8.782c-.938 1.847-.318 4.169 1.386 5.186a3.294 3.294 0 001.695.474c1.242 0 2.447-.713 3.088-1.976l3.457-6.806h6.65L20.832 43.854H8.522C6.576 43.854 5 45.564 5 47.672c0 2.109 1.577 3.818 3.521 3.818h14.32c1.246 0 2.399-.713 3.032-1.876l2.53-4.64 6.386 5.455-3.829 10.328c-.725 1.956.15 4.18 1.954 4.967.43.187.875.276 1.313.276 1.395 0 2.716-.905 3.268-2.395l4.813-12.982c.583-1.572.14-3.374-1.088-4.423l-7.081-6.049 4.895-9.057 3.045 5.05c.673 1.114 1.797 1.729 2.95 1.729.58 0 1.167-.156 1.708-.481l8.451-5.091c1.7-1.024 2.313-3.349 1.368-5.192z" fill="#25283E"/><path d="M41 20a6 6 0 100-12 6 6 0 000 12z" fill="#25283E"/></svg>