<svg width="84" height="85" fill="none" xmlns="http://www.w3.org/2000/svg"><path d="M80.703 1.77a7.265 7.265 0 00-10.331.84c-2.633 3.122-2.26 7.803.825 10.463a7.269 7.269 0 0010.336-.844c2.631-3.117 2.255-7.799-.83-10.458zM73.75 70.291L67.423 78.2H33.384c.385-.341.74-.73 1.017-1.202l18.664-31.722a5.28 5.28 0 003.939-1.883l13.788-16.392c2.26-2.686 1.94-6.717-.714-9.008l-2.057-1.77c-2.658-2.294-6.646-1.958-8.906.72l-3.868 4.603 7.512-2.175c.007-.003.013 0 .02 0-.006 0-.013 0-.02.004l-14.352 6.77a4.123 4.123 0 00-.956.624L36.04 36.66c-1.763 1.527-1.967 4.21-.458 5.993a4.167 4.167 0 005.92.461l10.974-9.512 13.833-6.525c.006-.003.01-.01.016-.013-.006.007-.01.013-.016.017l-11.755 8.078-11.41 9.891a6.671 6.671 0 01-2.475 1.348l-14.931 25.38a5.142 5.142 0 00.99 6.422H4.075c-1.855 0-3.36 1.52-3.36 3.4S2.22 85 4.074 85h64.952a3.348 3.348 0 002.612-1.261l7.335-9.171a3.426 3.426 0 00-.498-4.781 3.336 3.336 0 00-4.725.504z" fill="#25283E"/></svg>