<svg width="84" height="84" fill="none" xmlns="http://www.w3.org/2000/svg"><path d="M72.324 42.418c-1.633-4.366-6.543-17.463-6.543-17.463a5.559 5.559 0 00-7.156-3.254l-4.662 1.747-7.406 1.325-7.69-7.38c-.616-.596-1.432-.812-2.222-.728l-7.636-15.65a1.394 1.394 0 00-2.505 1.222l7.864 16.116a2.776 2.776 0 00.638 3.06l1.606 1.54 10.195 20.899-2.473 7.843-3.507-2.4a5.483 5.483 0 01-2.31-3.598l-2.706-15.704c-.1-.59-.3-1.157-.583-1.682l-5.26-9.72L25.3 1.62A2.21 2.21 0 0023.17 0h-9.704a2.208 2.208 0 00-2.206 2.207v79.237c0 1.22.989 2.207 2.206 2.207h46.21a2.208 2.208 0 001.9-3.33L53.646 66.9a5.538 5.538 0 01-.435-.924l-3.09-8.548a4.17 4.17 0 001.925-2.368l.087-.283 13.877 28.44a1.386 1.386 0 001.862.642c.691-.337.98-1.172.642-1.864l-6.97-14.286c.054.003.106.027.163.027a4.182 4.182 0 004.073-5.145l-2.346-9.932 7.493-4.528c1.47-.89 2.393-3.05 1.397-5.712zm-29.88-13.864l1.275 1.225a2.789 2.789 0 002.423.734l9.193-1.646 3.51 9.366-5.944-1.227a4.182 4.182 0 00-4.833 2.84l-.047.143-5.577-11.435zm10.909 22.358l1.557-4.95 2.557.528-.966.586a4.179 4.179 0 00-1.91 4.54l.842 3.569-2.08-4.273z" fill="#25283E"/><path d="M55.185 20.856a6.258 6.258 0 100-12.517 6.258 6.258 0 000 12.517z" fill="#25283E"/></svg>