<svg width="84" height="84" fill="none" xmlns="http://www.w3.org/2000/svg"><path d="M32.749 51.17l10.345-4.562-5.785-5.784-4.56 10.345zm13.833-8.034L51.217 32.7l-10.435 4.635 5.8 5.8z" fill="#25283E"/><path d="M71.699 12.301C63.766 4.37 53.219 0 42 0 30.781 0 20.234 4.369 12.301 12.301 4.37 20.234 0 30.781 0 42c0 11.219 4.369 21.766 12.301 29.699C20.234 79.63 30.781 84 42 84c11.219 0 21.766-4.369 29.699-12.301C79.63 63.766 84 53.219 84 42c0-11.219-4.369-21.766-12.301-29.699zm-6.961 52.437C58.664 70.811 50.589 74.156 42 74.156c-8.59 0-16.664-3.345-22.738-9.418C13.188 58.664 9.844 50.589 9.844 42c0-8.59 3.345-16.664 9.418-22.738C25.336 13.188 33.411 9.844 42 9.844c8.59 0 16.664 3.345 22.738 9.418 6.073 6.074 9.418 14.149 9.418 22.738 0 8.59-3.345 16.664-9.418 22.738z" fill="#25283E"/><path d="M61.258 22.742C56.114 17.6 49.275 14.766 42 14.766c-7.275 0-14.114 2.833-19.258 7.976C17.6 27.886 14.766 34.725 14.766 42c0 7.275 2.833 14.114 7.976 19.258C27.886 66.4 34.725 69.234 42 69.234c7.275 0 14.114-2.832 19.258-7.976C66.4 56.114 69.234 49.275 69.234 42c0-7.275-2.832-14.114-7.976-19.258zm-2.948 6.114l-8.685 19.553a2.476 2.476 0 01-1.256 1.253l-19.438 8.57a2.462 2.462 0 01-3.244-3.245l8.569-19.438a2.49 2.49 0 011.253-1.256l19.553-8.685a2.461 2.461 0 013.248 3.248z" fill="#25283E"/></svg>