<svg width="84" height="84" fill="none" xmlns="http://www.w3.org/2000/svg"><path d="M35.773 35.492a6.286 6.286 0 01-7.88.18c-1.985-1.516-2.792-3.974-2.33-6.267l-5.668.527 13.616-3.458a3.314 3.314 0 00-1.633-6.423l-13.617 3.458 6.174-2.645a6.264 6.264 0 01-1.455-2.758L12.214 25.24c-1.304.846-1.92 2.748-1.017 4.372.74 1.27 2.182 1.973 3.674 1.595l4.441-1.128c0 3.615-.024 22.17-.024 49.818a4.103 4.103 0 008.204 0V52.635h3v27.263c0 1.243-.35 2.393-.91 3.41.635.4 1.34.692 2.145.692a4.103 4.103 0 004.102-4.102c0-21.595-.056-42.168-.056-44.406zM23.214 14.448c.897-2.394 3.187-4.106 5.893-4.106h5.88c.26-.78.432-1.6.432-2.466a7.876 7.876 0 00-15.752 0 7.857 7.857 0 003.547 6.572zm15.975 16.849c.03 0 .064.013.095.013.595 0 1.187-.159 1.714-.478l11.657-7.047c.36-.217.647-.504.89-.818h-7.986l-6.37 8.33z" fill="#25283E"/><path d="M71.652 15.076H58.15c-.549-.926-1.517-1.578-2.672-1.578H43.87V9.356a1.577 1.577 0 10-3.157 0v4.142H29.107a3.155 3.155 0 00-3.156 3.156c0 1.24.73 2.287 1.77 2.802l3.615-1.547c2.924-1.253 6.189.255 7.338 2.938 1.474 3.432-.77 7.387-4.62 7.769l-5 .464c-.794 1.356-.523 3.106.756 4.087a3.154 3.154 0 004.423-.59L44 19.81h11.478c1.156 0 2.123-.651 2.672-1.578h13.503a1.577 1.577 0 100-3.156z" fill="#25283E"/></svg>