<svg width="84" height="84" fill="none" xmlns="http://www.w3.org/2000/svg"><g clip-path="url(#clip0_691_4147)" fill="#25283E"><path d="M82.062 78.517L73.151 65.68l5.17-9.535c.526-.97.763-2.072.682-3.174l-1.556-21.26a3.64 3.64 0 00-3.892-3.366l-10.913.71 6 2.201-9.424-1.044-8.222-8.634a3.05 3.05 0 10-4.418 4.208l8.989 9.439c.495.52 1.158.849 1.873.928l10.53 1.167-5.644.742 1.107 15.246-7.815 9.721a3.484 3.484 0 00-.467.765l-6.824 15.292a3.49 3.49 0 106.376 2.845l6.64-14.879 8.89-10.639-4.245 7.828a3.49 3.49 0 00.202 3.655L76.326 82.5a3.49 3.49 0 105.736-3.982z"/><path d="M64.414 26.622a6.081 6.081 0 10.013-12.164 6.081 6.081 0 00-.013 12.164zm-27.2 22.834c18.494 1.892 17.486 1.813 17.837 1.813a3.598 3.598 0 003.581-3.305c.163-1.966-1.34-3.68-3.302-3.88l-17.608-1.81a3.607 3.607 0 00-.455-.017l-11.922-.581 1.292-8.473 6.237 4.17c.271.181.57.317.886.402L45.2 40.86a2.997 2.997 0 003.694-2.186c.388-1.593-.626-3.197-2.21-3.624l-10.888-2.936-7.976-5.777a7.82 7.82 0 00-3.615-1.427l-8.41-1.054-5.857-8.891-.872-12.181a2.998 2.998 0 00-5.98.428l.927 12.962c.038.512.205 1.006.487 1.435l7.167 10.88c.017.026.036.05.054.076L9.125 47.35 1.971 57.548c-1.654 2.36-.023 5.644 3.004 5.663l19.288.127h.024a3.598 3.598 0 00.023-7.195l-12.506-.082 4.863-6.935 20.547.33z"/><path d="M20.991 10.144A6.03 6.03 0 1019.34 22.09a6.03 6.03 0 001.651-11.946z"/></g><defs><clipPath id="clip0_691_4147"><path fill="#fff" d="M0 0h84v84H0z"/></clipPath></defs></svg>