<svg width="84" height="84" fill="none" xmlns="http://www.w3.org/2000/svg"><path d="M61.21 24.91l.284-4.041c.205.04.393.112.617.112 2.639 0 3.94-2.855 4.394-6.02.963-.506 1.654-1.469 1.684-2.636.03-1.225-.667-2.28-1.684-2.811-.457-3.158-1.76-6.004-4.394-6.004-1.965 0-3.18 1.603-3.863 3.719a3.797 3.797 0 00-3.092 1.656l-21.968-.568-.344-.53a3.877 3.877 0 00-4.003-1.688C28.076 2.75 26.432 0 23.474 0c-3.56 0-5.227 3.959-5.73 8.183a3.11 3.11 0 00-1.933 2.797c-.033 1.32.776 2.455 1.93 2.931.5 4.237 2.165 8.215 5.733 8.215 2.988 0 4.634-2.805 5.392-6.203 8.445 13.047 5.287 8.005 13.858 22.115l.419 15.478c-.325.708-2.833 11.677-3.01 12.44l-12.279 9.741a4.647 4.647 0 00-.754 6.537 4.644 4.644 0 006.537.755L47.189 72.24a4.637 4.637 0 001.644-2.586l2.714-10.573 5.909 6.537v13.725A4.658 4.658 0 0062.11 84a4.658 4.658 0 004.657-4.656v-15.52a4.645 4.645 0 00-1.203-3.123l-8.314-9.192-.378-13.955 4.12-11.62a3.87 3.87 0 00.216-1.024zm-9.365 3.844c-2.813.402-5.446.39-5.446.39l-9.123-14.506c5.071.126 3.445.088 7.868.2-.951 1.203-1.528 2.714-1.482 4.369a6.769 6.769 0 006.762 6.591c.062 0 .128 0 .19-.002a6.774 6.774 0 006.593-6.959 6.726 6.726 0 00-1.236-3.72l3.568.092a9.898 9.898 0 01.77 3.546c.138 5.056-3.581 9.288-8.464 9.999z" fill="#25283E"/></svg>