<svg width="84" height="84" fill="none" xmlns="http://www.w3.org/2000/svg"><path d="M78.503 76.189l-27.994-31.48 1.196-17.619h14.11c2.675 0 4.553-2.652 3.656-5.179l-3.002-8.448-6.52 4.827.37 1.04h-1.775l-25.393 18.8a5.923 5.923 0 01-2.43 6.774v.007l-9.575 14.507a4.693 4.693 0 00-.62 3.786l4.58 17.304a4.692 4.692 0 109.072-2.401l-4.042-15.273L38.2 50.615l5.098.107L71.49 82.425a4.693 4.693 0 007.013-6.236zM59.462 5.33a3.88 3.88 0 00-2.484 4.52l5.713-4.23a3.873 3.873 0 00-3.23-.29zM19.574 40.097L5.211 50.73a2.22 2.22 0 002.642 3.57L22.62 43.365l-3.047-3.269zm12.266-4.205c.12.129.234.262.34.398L75.216 4.43A2.22 2.22 0 1072.574.862L29.152 33.007l2.689 2.885z" fill="#25283E"/><path d="M14.56 31.724l10.11 10.85c3.722 3.636 9.034-1.405 5.615-5.359l-6.201-6.654 7.668-3.102-.066 1.115 12.858-9.605h-10.07c-1.464 0-2.914.278-4.274.821l-14.256 5.692c-2.516 1.018-3.24 4.25-1.384 6.242z" fill="#25283E"/><circle cx="43" cy="8" r="8" fill="#25283E"/></svg>