<svg width="84" height="84" fill="none" xmlns="http://www.w3.org/2000/svg"><g clip-path="url(#clip0_691_4118)" fill="#25283E"><path d="M42.828 16.447a7.737 7.737 0 0010.551-2.883 7.74 7.74 0 00-2.89-10.552 7.734 7.734 0 00-7.662 13.435zm31.344 10.146c-.488-2.26-2.713-3.715-4.978-3.21l-12.16 2.62-9.11-2.05a6.613 6.613 0 00-2.12-1.944l-3.156-1.8c-1.25-.713-2.844-.985-4.582-.517-2.824 1.01 7.262-2.736-15.14 5.613a4.26 4.26 0 00-1.244.727L7.985 37.617a4.19 4.19 0 005.414 6.398L26.536 32.9l2.683-1c-8.506 14.907-4.578 7.562-14.982 28.005L1.37 73.527a5.028 5.028 0 007.312 6.903l13.363-14.147c.327-.349.605-.743.825-1.172l6.146-12.078 15.552 9.67-.988 13.918a5.027 5.027 0 0010.028.714l1.204-16.942a5.022 5.022 0 00-2.36-4.626L38.99 47.395l8.526-14.945 8.581 1.93a4.182 4.182 0 001.804.007l13.062-2.816a4.189 4.189 0 003.21-4.978zm.978 37.701a8.848 8.848 0 00-8.85 8.848c0 4.888 3.96 8.85 8.85 8.85S84 78.03 84 73.142a8.848 8.848 0 00-8.85-8.848z"/></g><defs><clipPath id="clip0_691_4118"><path fill="#fff" d="M0 0h84v84H0z"/></clipPath></defs></svg>