<svg width="84" height="84" fill="none" xmlns="http://www.w3.org/2000/svg"><path d="M26.931 40.013c.098-.042.182-.098.266-.154.028-.028 2.73-1.918 5.11-2.646.308-.084.644-.07.966.07 1.19.49 2.996 1.092 4.956 1.204-3.78 4.27-9.898 12.362-10.444 20.314H56.71c.14-3.08.574-7.252 1.792-10.276.252-.616.518-1.232.784-1.876 1.106-2.59 2.254-5.278 2.492-8.092.504-6.104-.112-10.99-1.806-14.434-.168-.406-4.228-9.996-13.314-11.55a3.181 3.181 0 01-1.512-.728c-1.764-1.582-5.586-4.13-11.2-3.276a1.38 1.38 0 00-.994.658 1.39 1.39 0 00-.126 1.176l1.946 5.698c-4.34.098-7.238 2.212-7.938 5.796-.028.098-.07.238-.168.322l-6.762 5.642c-2.632 2.198-3.486 5.74-2.072 8.596.49.994 1.176 1.778 2.03 2.324.602.49 3.556 2.674 7.07 1.232zm38.514 28.588h-44.8c-.77 0-1.4.63-1.4 1.4v4.2c0 .77.63 1.4 1.4 1.4h44.8c.77 0 1.4-.63 1.4-1.4v-4.2c0-.77-.63-1.4-1.4-1.4zm-40.6-7c-.77 0-1.4.63-1.4 1.4v2.8h39.2v-2.8c0-.77-.63-1.4-1.4-1.4h-36.4z" fill="#25283E"/></svg>